<svg viewBox="0 0 1114.2000732421875 400" xmlns="http://www.w3.org/2000/svg"><g><g><g><g><g><line x1="61.953125" y1="377" x2="56.953125" y2="377" style="visibility: inherit;" fill="rgb(0, 0, 0)" stroke="rgb(204, 204, 204)" stroke-width="1px"></line><line x1="61.953125" y1="348" x2="56.953125" y2="348" style="visibility: inherit;" fill="rgb(0, 0, 0)" stroke="rgb(204, 204, 204)" stroke-width="1px"></line><line x1="61.953125" y1="319" x2="56.953125" y2="319" style="visibility: inherit;" fill="rgb(0, 0, 0)" stroke="rgb(204, 204, 204)" stroke-width="1px"></line><line x1="61.953125" y1="290" x2="56.953125" y2="290" style="visibility: inherit;" fill="rgb(0, 0, 0)" stroke="rgb(204, 204, 204)" stroke-width="1px"></line><line x1="61.953125" y1="261" x2="56.953125" y2="261" style="visibility: inherit;" fill="rgb(0, 0, 0)" stroke="rgb(204, 204, 204)" stroke-width="1px"></line><line x1="61.953125" y1="232" x2="56.953125" y2="232" style="visibility: inherit;" fill="rgb(0, 0, 0)" stroke="rgb(204, 204, 204)" stroke-width="1px"></line><line x1="61.953125" y1="203" x2="56.953125" y2="203" style="visibility: inherit;" fill="rgb(0, 0, 0)" stroke="rgb(204, 204, 204)" stroke-width="1px"></line><line x1="61.953125" y1="174" x2="56.953125" y2="174" style="visibility: inherit;" fill="rgb(0, 0, 0)" stroke="rgb(204, 204, 204)" stroke-width="1px"></line><line x1="61.953125" y1="145" x2="56.953125" y2="145" style="visibility: inherit;" fill="rgb(0, 0, 0)" stroke="rgb(204, 204, 204)" stroke-width="1px"></line><line x1="61.953125" y1="116" x2="56.953125" y2="116" style="visibility: inherit;" fill="rgb(0, 0, 0)" stroke="rgb(204, 204, 204)" stroke-width="1px"></line><line x1="61.953125" y1="87.00000000000003" x2="56.953125" y2="87.00000000000003" style="visibility: inherit;" fill="rgb(0, 0, 0)" stroke="rgb(204, 204, 204)" stroke-width="1px"></line><line x1="61.953125" y1="58" x2="56.953125" y2="58" style="visibility: inherit;" fill="rgb(0, 0, 0)" stroke="rgb(204, 204, 204)" stroke-width="1px"></line><line x1="61.953125" y1="29.00000000000002" x2="56.953125" y2="29.00000000000002" style="visibility: inherit;" fill="rgb(0, 0, 0)" stroke="rgb(204, 204, 204)" stroke-width="1px"></line><line x1="61.953125" y1="0" x2="56.953125" y2="0" style="visibility: inherit;" fill="rgb(0, 0, 0)" stroke="rgb(204, 204, 204)" stroke-width="1px"></line></g><g transform="translate(51.953125, 0)"><text x="0" y="377" dx="0em" dy="0.3em" style="text-anchor: end; visibility: hidden; font-family: Roboto, sans-serif; font-size: 12px; font-weight: 200;" fill="rgb(33, 33, 33)" stroke="none" stroke-width="1px">-0.01</text><text x="0" y="348" dx="0em" dy="0.3em" style="text-anchor: end; visibility: inherit; font-family: Roboto, sans-serif; font-size: 12px; font-weight: 200;" fill="rgb(33, 33, 33)" stroke="none" stroke-width="1px">0</text><text x="0" y="319" dx="0em" dy="0.3em" style="text-anchor: end; visibility: inherit; font-family: Roboto, sans-serif; font-size: 12px; font-weight: 200;" fill="rgb(33, 33, 33)" stroke="none" stroke-width="1px">0.01</text><text x="0" y="290" dx="0em" dy="0.3em" style="text-anchor: end; visibility: inherit; font-family: Roboto, sans-serif; font-size: 12px; font-weight: 200;" fill="rgb(33, 33, 33)" stroke="none" stroke-width="1px">0.02</text><text x="0" y="261" dx="0em" dy="0.3em" style="text-anchor: end; visibility: inherit; font-family: Roboto, sans-serif; font-size: 12px; font-weight: 200;" fill="rgb(33, 33, 33)" stroke="none" stroke-width="1px">0.03</text><text x="0" y="232" dx="0em" dy="0.3em" style="text-anchor: end; visibility: inherit; font-family: Roboto, sans-serif; font-size: 12px; font-weight: 200;" fill="rgb(33, 33, 33)" stroke="none" stroke-width="1px">0.04</text><text x="0" y="203" dx="0em" dy="0.3em" style="text-anchor: end; visibility: inherit; font-family: Roboto, sans-serif; font-size: 12px; font-weight: 200;" fill="rgb(33, 33, 33)" stroke="none" stroke-width="1px">0.05</text><text x="0" y="174" dx="0em" dy="0.3em" style="text-anchor: end; visibility: inherit; font-family: Roboto, sans-serif; font-size: 12px; font-weight: 200;" fill="rgb(33, 33, 33)" stroke="none" stroke-width="1px">0.06</text><text x="0" y="145" dx="0em" dy="0.3em" style="text-anchor: end; visibility: inherit; font-family: Roboto, sans-serif; font-size: 12px; font-weight: 200;" fill="rgb(33, 33, 33)" stroke="none" stroke-width="1px">0.07</text><text x="0" y="116" dx="0em" dy="0.3em" style="text-anchor: end; visibility: inherit; font-family: Roboto, sans-serif; font-size: 12px; font-weight: 200;" fill="rgb(33, 33, 33)" stroke="none" stroke-width="1px">0.08</text><text x="0" y="87.00000000000003" dx="0em" dy="0.3em" style="text-anchor: end; visibility: inherit; font-family: Roboto, sans-serif; font-size: 12px; font-weight: 200;" fill="rgb(33, 33, 33)" stroke="none" stroke-width="1px">0.09</text><text x="0" y="58" dx="0em" dy="0.3em" style="text-anchor: end; visibility: inherit; font-family: Roboto, sans-serif; font-size: 12px; font-weight: 200;" fill="rgb(33, 33, 33)" stroke="none" stroke-width="1px">0.1</text><text x="0" y="29.00000000000002" dx="0em" dy="0.3em" style="text-anchor: end; visibility: inherit; font-family: Roboto, sans-serif; font-size: 12px; font-weight: 200;" fill="rgb(33, 33, 33)" stroke="none" stroke-width="1px">0.11</text><text x="0" y="0" dx="0em" dy="0.3em" style="text-anchor: end; visibility: hidden; font-family: Roboto, sans-serif; font-size: 12px; font-weight: 200;" fill="rgb(33, 33, 33)" stroke="none" stroke-width="1px">0.12</text></g><line x1="61.953125" y1="0" x2="61.953125" y2="377" fill="rgb(0, 0, 0)" stroke="rgb(204, 204, 204)" stroke-width="1px"></line></g></g><g transform="translate(61, 0)" clip-path="url(#clip_0)"><clipPath id="clip_0"><rect width="1052" height="377"></rect></clipPath><g><g><g><line x1="0" y1="0" x2="0" y2="377" fill="rgb(0, 0, 0)" stroke="rgb(66, 66, 66)" stroke-width="1px" opacity="0.25"></line><line x1="131.530859375" y1="0" x2="131.530859375" y2="377" fill="rgb(0, 0, 0)" stroke="rgb(66, 66, 66)" stroke-width="1px" opacity="0.25"></line><line x1="263.06171875" y1="0" x2="263.06171875" y2="377" fill="rgb(0, 0, 0)" stroke="rgb(66, 66, 66)" stroke-width="1px" opacity="0.25"></line><line x1="394.59257812500005" y1="0" x2="394.59257812500005" y2="377" fill="rgb(0, 0, 0)" stroke="rgb(66, 66, 66)" stroke-width="1px" opacity="0.25"></line><line x1="526.1234375" y1="0" x2="526.1234375" y2="377" fill="rgb(0, 0, 0)" stroke="rgb(66, 66, 66)" stroke-width="1px" opacity="0.25"></line><line x1="657.654296875" y1="0" x2="657.654296875" y2="377" fill="rgb(0, 0, 0)" stroke="rgb(66, 66, 66)" stroke-width="1px" opacity="0.25"></line><line x1="789.1851562500001" y1="0" x2="789.1851562500001" y2="377" fill="rgb(0, 0, 0)" stroke="rgb(66, 66, 66)" stroke-width="1px" opacity="0.25"></line><line x1="920.7160156250001" y1="0" x2="920.7160156250001" y2="377" fill="rgb(0, 0, 0)" stroke="rgb(66, 66, 66)" stroke-width="1px" opacity="0.25"></line><line x1="1052.246875" y1="0" x2="1052.246875" y2="377" fill="rgb(0, 0, 0)" stroke="rgb(66, 66, 66)" stroke-width="1px" opacity="0.25"></line></g><g><line x1="0" y1="377" x2="1052.246875" y2="377" fill="rgb(0, 0, 0)" stroke="rgb(66, 66, 66)" stroke-width="1px" opacity="0.25"></line><line x1="0" y1="348" x2="1052.246875" y2="348" fill="rgb(0, 0, 0)" stroke="rgb(66, 66, 66)" stroke-width="1px" opacity="0.25"></line><line x1="0" y1="319" x2="1052.246875" y2="319" fill="rgb(0, 0, 0)" stroke="rgb(66, 66, 66)" stroke-width="1px" opacity="0.25"></line><line x1="0" y1="290" x2="1052.246875" y2="290" fill="rgb(0, 0, 0)" stroke="rgb(66, 66, 66)" stroke-width="1px" opacity="0.25"></line><line x1="0" y1="261" x2="1052.246875" y2="261" fill="rgb(0, 0, 0)" stroke="rgb(66, 66, 66)" stroke-width="1px" opacity="0.25"></line><line x1="0" y1="232" x2="1052.246875" y2="232" fill="rgb(0, 0, 0)" stroke="rgb(66, 66, 66)" stroke-width="1px" opacity="0.25"></line><line x1="0" y1="203" x2="1052.246875" y2="203" fill="rgb(0, 0, 0)" stroke="rgb(66, 66, 66)" stroke-width="1px" opacity="0.25"></line><line x1="0" y1="174" x2="1052.246875" y2="174" fill="rgb(0, 0, 0)" stroke="rgb(66, 66, 66)" stroke-width="1px" opacity="0.25"></line><line x1="0" y1="145" x2="1052.246875" y2="145" fill="rgb(0, 0, 0)" stroke="rgb(66, 66, 66)" stroke-width="1px" opacity="0.25"></line><line x1="0" y1="116" x2="1052.246875" y2="116" fill="rgb(0, 0, 0)" stroke="rgb(66, 66, 66)" stroke-width="1px" opacity="0.25"></line><line x1="0" y1="87.00000000000003" x2="1052.246875" y2="87.00000000000003" fill="rgb(0, 0, 0)" stroke="rgb(66, 66, 66)" stroke-width="1px" opacity="0.25"></line><line x1="0" y1="58" x2="1052.246875" y2="58" fill="rgb(0, 0, 0)" stroke="rgb(66, 66, 66)" stroke-width="1px" opacity="0.25"></line><line x1="0" y1="29.00000000000002" x2="1052.246875" y2="29.00000000000002" fill="rgb(0, 0, 0)" stroke="rgb(66, 66, 66)" stroke-width="1px" opacity="0.25"></line><line x1="0" y1="0" x2="1052.246875" y2="0" fill="rgb(0, 0, 0)" stroke="rgb(66, 66, 66)" stroke-width="1px" opacity="0.25"></line></g></g></g><g><g><line x1="0" y1="348" x2="1052.246875" y2="348" fill="rgb(0, 0, 0)" stroke="rgb(153, 153, 153)" stroke-width="1.5px"></line></g></g><g><g><line x1="131.530859375" y1="0" x2="131.530859375" y2="377" fill="rgb(0, 0, 0)" stroke="rgb(153, 153, 153)" stroke-width="1.5px"></line></g></g><g><g><g><g><g><path stroke="rgb(255, 112, 67)" stroke-width="2px" d="M133.1092296875,287.2024651169777L133.37229140625,282.7203104989603L134.6876,251.7143827739115L135.47678515625,277.5577891136739L135.739846875,290.41870962772305L136.52903203125,302.9709854809574L137.05515546875,312.0897682907754L138.10740234375,310.63554286763167L141.26414296875,304.3629151353321L142.31638984375002,309.39937350457933L142.84251328125,313.3831926003956L143.36863671875003,303.0387665619201L143.6316984375,301.47644208431893L144.15782187500002,311.46742328084673L145.73619218750002,319.94519421765074L145.99925390625003,316.9652289506755L146.262315625,302.77494076855913L146.52537734375002,313.13402046195193L146.78843906250003,304.38723066360205L148.8929328125,312.59036854856845L149.68211796875,318.72861198978825L150.471303125,317.5946699030662L150.73436484375,322.1294709732996L150.99742656249998,324.088322169385L151.26048828125,316.89626039536444L152.575796875,323.39124820240403L154.680290625,328.73429958607534L154.94335234375,332.2519334308818L156.52172265625,332.17416015247977L158.62621640625,331.4539184928935L159.4154015625,332.7304849320278L159.67846328125,335.5120151427472L161.5198953125,311.4065851762973L162.30908046875,319.29066133408884L162.83520390625,326.1769499817195L164.93969765625002,324.0623404173717L165.72888281250002,329.5264855779558L165.99194453125,332.91733929215906L168.3595,334.3649018965072L168.88562343750002,334.6670413088013L169.14868515625002,336.1976096897158L169.411746875,333.997336785559L171.25317890625,327.60012632755354L172.5684875,331.5533633184451L173.09461093750002,334.66256418347007L173.35767265625,322.38791841501717L174.40991953125,327.3767021426025L175.72522812500003,331.99041262002L175.98828984375,334.0274949270386L176.777475,331.4245469889072L178.3558453125,330.93040228089615L178.61890703125002,332.58593834758835L179.14503046875,335.897182615158L179.93421562500004,334.06571729424826L180.46033906250003,330.1992239382435L180.72340078125004,333.8648773522134L181.24952421875,336.88157273216353L181.77564765625,334.74575333972723L182.038709375,331.7648765828008L183.88014140625,325.70911151682077L185.98463515625,329.2251247883722L186.247696875,330.31282303755796L186.51075859375,332.69884791240287L187.56300546875,334.38246321016663L190.19362265625,333.9278213096208L190.456684375,333.19310417697113L190.9828078125,335.0901583998667L192.0350546875,329.08891576494375L192.82423984375,327.21651798466206L193.08730156250002,330.38038337516406L193.35036328125,331.0926512407519L194.1395484375,333.3721720003937L197.29628906250002,335.33851680488016L198.87465937500002,322.1798061539568L199.66384453125002,323.291626209607L200.18996796875,312.48593649541755L200.45302968750002,316.0717515246595L200.979153125,324.3889648644045L202.03140000000002,309.21829289960357L203.08364687500003,320.67772095102066L203.60977031250002,321.07289998500346L204.92507890625,327.9164843083548L208.60794296875002,331.85754309348033L209.9232515625,328.70005611182313L210.18631328125002,333.0970386041764L211.23856015625003,335.04132486014447L211.501621875,238.5373716272645L212.55386875000002,278.9364835924794L212.81693046875003,285.89777855616154L213.34305390625002,304.4152982863268L214.1322390625,315.3580644746113L215.44754765625,318.08549668458033L215.710609375,306.712832096618L215.97367109375,311.09390315467215L217.2889796875,322.0446411855018L217.55204140625,323.97992989268874L217.815103125,318.40382529256925L218.60428828125,324.3954806437086L220.97184375,328.38983829230017L221.4979671875,330.4541269609925L223.0763375,328.9992558021603L224.6547078125,331.906640653119L224.91776953125,333.5238049555156L226.49613984375,337.0397849185516L227.285325,339.5094068229273L228.337571875,332.7650840106651L229.38981875000002,336.5858120213029L229.9159421875,339.0218752065347L230.96818906250002,321.7817475431589L231.23125078125,323.2866893363552L231.4943125,319.91653027996756L232.02043593750003,318.8002097151598L233.33574453125001,327.7953373766345L234.651053125,333.2000073724331L234.91411484375,321.9434546535219L235.17717656250002,328.2630502483997L239.12310234375002,331.61725416417437L240.96453437500003,333.25134895226665L242.54290468750003,332.2282439707596L242.80596640625,335.6327601523029L243.33208984375003,338.3704669390367L243.85821328125002,338.42602202306665L244.91046015625002,340.24647534961537L247.278015625,335.81761022254847L247.80413906249998,334.9823206661345L248.06720078125,335.8122693567396L248.8563859375,333.7600000698221L250.43475625,334.70916125246004L252.53925,336.70552824478216L252.80231171875,336.6780463697962L253.591496875,331.4213951925905L253.85455859375,334.4990842908902L256.2221140625,334.1962281209399L256.48517578125,333.86171735329447L259.3788546875,331.89687972294104L260.16803984375,333.86796776109526L260.43110156250003,336.4795669989502L260.957225,337.36092648069354L261.4833484375,336.09746505341104L265.16621250000003,335.7050526903342L266.48152109374996,337.2401517367375L267.00764453125,339.031766328872L267.7968296875,337.8368946201567L268.322953125,337.0736895382085L269.63826171875,338.515081225987L269.9013234375,336.2176044108902L271.47969375,338.155184121277L272.00581718750004,330.47959143003584L272.26887890625,334.28339075196243L272.79500234375,335.68766843727803L273.0580640625,336.47322716386066L273.84724921875,336.5454869512972L274.37337265625,331.04780770058966L275.68868125,336.41831792777356L275.95174296875,334.99754718697415L278.31929843750004,334.40721378851737L278.845421875,335.8273087032366L279.89766875000004,337.69854293057193L280.16073046875,336.775377103918L280.42379218750006,337.1054227042098L281.47603906250004,336.8510952346265L282.5282859375,338.5689447996908L282.79134765625,334.2310982795295L283.58053281250005,335.53706835332434L284.10665625,335.17104815392446L284.36971796875,333.99035237624497L284.63277968750003,333.7746602074459L284.89584140625,331.3306429558191L285.15890312500005,335.18780779976805L285.42196484375,335.07209913664553L285.94808828125,337.5970214045554L286.21115000000003,334.6278824328786L287.52645859375,335.5204238627497L287.78952031250003,337.44695812033973L288.8417671875,335.4783677403173L289.63095234375,327.09904945904265L290.15707578125,332.6675660607323L291.73544609375,330.2391785768929L292.26156953125,328.4210676119186L293.57687812500006,332.66883068474874L294.62912500000004,335.40169117900876L294.89218671875,336.47217210041373L295.41831015625,336.712103689652L298.57505078125,330.8290878012427L300.41648281249996,323.05632840988926L300.67954453125003,326.1321026214831L301.20566796875,330.88262142711125L301.4687296875,331.91956639050386L301.73179140625,335.1800839260754L301.99485312499996,332.05242873239735L302.5209765625,328.56217879359855L303.31016171875,333.3529902286377L304.36240859375005,331.85071568858893L304.6254703125,328.54676011605426L305.6777171875,321.1502455422483L306.46690234375,327.3510184481264L307.51914921875004,330.1842804279638L308.308334375,334.77721024724616L308.57139609375,333.0066841649877L308.8344578125,336.2180320047806L309.09751953125004,336.2550080648643L309.36058125,337.91324693152796L309.8867046875,329.8938807185858L310.14976640625,334.8854691687298L310.412828125,337.36785309258534L311.20201328125,337.47394469003933L311.465075,336.9145498566095L311.72813671875,338.27551837815423L312.25426015625004,338.54828410925614L312.78038359375,336.5752283443937L313.0434453125,334.71971601083453L314.88487734375,338.3170861841564L315.6740625,338.430404613395L316.726309375,338.76147189995913L317.51549453125006,338.0735881478266L318.04161796875,333.32571285892584L318.56774140625004,336.31336780967746L319.61998828125,338.05783945445677L320.67223515625005,334.23204186632904L321.4614203125,335.2790492255966L321.72448203125003,336.59361560781184L321.98754375,336.9522503600382L322.25060546875005,338.9876727781214L323.82897578125005,338.1357249526094L325.40734609375005,337.393615919078L325.93346953125007,339.61133510670044L326.19653125,338.55554513253855L327.248778125,338.1708207953309L328.03796328125003,337.5835166940591L328.30102500000004,339.30457426351313L329.09021015625,338.8819608442009L329.353271875,337.3489162841153L329.61633359374997,339.233796175567L330.14245703125,335.9936517491923L330.66858046875,339.21800308372747L332.24695078125,336.2689595480035L333.03613593750003,328.9959626724881L333.29919765625,329.18466255996003L334.0883828125,331.4559510413311L334.35144453124997,333.5115219176413L334.61450625000003,332.69648654583705L335.1406296875,328.3677696455932L335.40369140625,328.1113795321832L336.98206171875,324.0076362539321L338.03430859375,327.34327000150023L338.29737031250005,331.5421672017511L338.82349375,333.1897314705632L339.34961718750003,333.18840789158236L339.87574062500005,337.1001517641341L340.13880234375,339.06868436964123L340.4018640625,336.62017275635463L340.66492578125,338.51445832770503L340.92798750000003,337.9621213599082L341.71717265625,337.6881384010784L342.24329609375,325.8768356430931L342.76941953125,331.530173339376L343.5586046875,330.39492724488923L344.084728125,333.9417516933426L344.34778984375,331.2448815857795L344.61085156250005,330.5582695710914L346.18922187500004,333.44357736904954L346.45228359375,334.4356616772684L346.97840703125,333.8773092709465L347.76759218750004,334.19440266683597L348.8198390625,328.8607241910392L349.60902421875,332.203707761791L350.398209375,332.1957379652421L350.66127109375003,334.33785533112945L351.18739453125,332.81838887380155L351.71351796875,335.9150918376243L352.23964140625003,337.5463601128337L353.55495,337.9586170577155L354.34413515625,338.07376559864855L354.87025859375,334.6787866512917L358.81618437500003,326.2084918475141L359.86843125000007,331.8514930318886L360.39455468750003,335.4121893140581L360.65761640625004,336.7808557100091L361.70986328125,334.6854068523344L362.23598671875004,337.3983794475762L362.4990484375,338.6508908294241L363.28823359375,317.801106415546L363.81435703125004,327.0030816587693L364.34048046875,333.37442066813327L365.129665625,336.3068820486654L365.6557890625,336.30082705394557L365.91885078125,339.29643119496035L366.44497421875,339.8673657659258L367.49722109375,339.85983206159267L368.54946796875004,338.2281886507654L370.3909,289.74493140993025L370.65396171875,310.709756304428L370.9170234375,322.56407515345813L371.18008515625,329.6015662216473L371.70620859375003,334.4356115773814L372.49539375,336.9343581164179L372.75845546875,335.97907434414617L373.0215171875,330.35505060858003L373.81070234375005,331.78293681297583L374.0737640625,334.8063327634566L374.33682578125,335.75719736303284L374.5998875,333.9163189301515L376.70438125,335.66469409657265L376.96744296875005,318.36895707602946L377.756628125,326.44749630827096L379.59806015625,324.43052915536396L380.3872453125,329.6147880356194L382.4917390625,334.8492636293579L382.75480078125,333.2244198745733L383.28092421875004,335.6916517198828L383.5439859375,338.2628812290428L383.80704765625006,337.23926589844814L384.59623281250003,339.51780654018035L384.85929453125004,340.0799682510639L385.38541796875006,339.47216813476354L385.91154140625,333.7163800997226L387.22685,333.4835698464625L387.48991171875,335.5598389798619L388.54215859375006,334.8566141177248L388.8052203125,332.23792820567076L389.06828203125,332.30587801050655L389.33134375000003,335.00602310463194L390.12052890625006,333.8189960088695L390.383590625,323.01873309262777L390.64665234375,331.67080859656295L391.4358375,333.9895585969249L391.69889921875006,332.2122616206205L393.80339296875,330.15926121679524L394.85563984375,334.8388089988832L395.38176328125,334.73985289509324L395.90788671875,336.2445605999245L396.17094843750004,335.8381444271513L396.96013359375,338.69508665091445L397.74931875000004,340.98053418848156L398.01238046875,339.65273372607373L398.2754421875,339.75251610704925L398.53850390625,325.0115535713951L399.32768906250004,328.39517931686163L401.4321828125,331.11872566891503L401.95830625,334.8479904019999L402.48442968750004,335.11341538930935L403.010553125,325.43493445309997L403.27361484375,330.0664947541386L404.06280000000004,334.7586981877285L404.5889234375,335.87333980572805L405.115046875,329.2543551049983L406.43035546875,329.2915766937944L408.2717875,333.4302300242879L408.53484921875,333.7939729901134L409.32403437500005,336.93417622704675L409.8501578125,335.5242752384208L411.428528125,335.966425738547L411.69158984375,333.27829519841896L412.21771328125,337.31364154012545L412.74383671875,337.13106421495405L413.79608359375,338.6042816761281L414.84833046875,339.0271001341579L415.37445390625,336.7845075678907L416.68976250000003,336.19344391984237L416.95282421875,335.70521754734216L417.21588593750005,337.3205075973272L419.05731796875,338.41439891690015L419.32037968750006,339.6367564400077L420.89875000000006,339.75830613188685L421.95099687500004,340.0745904053762L422.21405859375,337.80121549922313L422.47712031250006,335.68179874544194L424.84467578125003,338.12029150493356L425.37079921875,332.5622231699074L426.159984375,333.62995626476675L427.73835468749996,336.1706922103302L428.00141640625003,336.28846088271354L429.05366328125,337.4413657633723L429.8428484375,339.3965295436687L430.10591015625005,338.90762738482397L430.368971875,338.398640042372L431.15815703125,339.15827051711227L434.0518359375,332.4560269961485L434.84102109375004,336.3890159379529L435.63020625,337.8483099759273L435.89326796875,329.04905406210736L436.1563296875,330.5370865736837L436.94551484375,332.4774170137605L437.2085765625,335.47126277414924L437.47163828125,332.04946374075394L441.4175640625,334.41257927001584L442.20674921875,334.3320823285345L442.73287265625004,335.5166064402976L442.995934375,337.2977900222849L443.5220578125,334.2276615785605L443.78511953125,334.4844599306313L444.5743046875,336.21635216674076L445.36348984375,336.75544294648387L445.6265515625,334.6016811314703L446.152675,335.6316534222502L446.6787984375,337.3188492129051L447.204921875,336.71176950900576L447.7310453125,328.3881412015487L448.52023046875,333.627799003415L449.04635390625003,334.47078355049655L449.57247734375005,336.54911898386814L450.09860078125,338.1138151984652L450.62472421875003,337.81157553315103L451.15084765625005,333.9218028723892L453.78146484375003,326.2682251953898L454.83371171875007,331.8722110628377L455.88595859375005,334.50111778985206L456.1490203125,336.9180135598674L456.41208203125007,335.84583834906783L456.93820546875,336.18435254492084L457.727390625,330.2766563388569L458.51657578125,335.1681346557506L459.04269921875004,333.6173782236557L459.831884375,337.2152218110669L461.4102546875,332.7930857702975L461.93637812500003,332.5732542002132L462.4625015625,333.8525012768168L462.72556328125,329.1249874807512L463.51474843750003,332.7108622991809L463.77781015625,326.52103348694857L464.04087187500005,332.92045457585226L464.83005703125,335.7551579519276L466.93455078125,318.7257440861561L468.249859375,325.64248981633773L468.77598281250005,331.3778261218011L470.35435312500005,329.5254649340236L471.4066,332.0250641595795L471.66966171875,336.334308775565L471.93272343750004,334.8225273078984L472.19578515625,335.12834043570194L473.77415546875,337.09380120124126L474.563340625,330.60716509572086L476.40477265625003,334.12235541940584L476.93089609375,336.16023912944405L477.72008125,331.76843342583186L477.98314296875003,335.4983789680201L478.77232812500006,337.4053656590163L479.03538984375,338.5961319607305L480.35069843750006,338.3239689835493L480.61376015625,338.77466508782413L480.876821875,338.5284634312928L481.66600703125,329.9384123284185L482.4551921875,323.64179214230563L482.71825390625,330.82679774733714L482.98131562500004,330.51960770560703L483.24437734375,334.9059045763218L483.50743906250005,336.9353353508654L485.08580937500005,334.2140672827269L486.66417968750005,337.7484252091202L488.24255000000005,339.28854129565974L489.29479687500003,340.9639924221305L489.82092031250005,338.16009104791686L491.13622890625004,338.1942802483941L492.18847578125,339.83458715953554L494.02990781249997,325.50776934789496L494.55603125,331.547507403668L495.34521640625,334.6833092683561L495.87133984375004,336.66438450524254L496.1344015625,338.3323004632237L496.92358671875,336.67163542592783L497.18664843749997,338.33733324667367L497.712771875,337.76671576997967L497.97583359375005,339.69709657338313L498.76501875,339.4926729426953L503.23706796875,339.19970948144334L503.5001296875,334.7710184344324L503.76319140625003,337.0484017063631L504.026253125,338.677224317086L505.0785,338.2547015995635L505.86768515625005,338.28757699956617L506.91993203125,335.86650051105096L507.18299375,338.80339502202315L507.44605546875005,339.1891924569419L508.49830234375,338.21105638023676L508.7613640625,340.1786095235584L509.02442578125005,339.56168030962874L509.55054921875006,337.0898668528529L510.07667265625,338.8485335211266L510.60279609375004,338.4602884821778L511.12891953125006,338.01494289622815L513.23341328125,332.371680415786L514.548721875,335.586134294192L514.8117835937501,330.39366985530853L517.1793390625,328.8276270086837L517.4424007812501,322.77438203276824L520.3360796875,329.56433521900556L521.6513882812501,334.89391797673096L522.4405734375,335.1891083844983L522.70363515625,329.7998525889804L523.4928203125,334.03547579896986L524.0189437500001,336.99234949411476L524.2820054687501,337.1655845481099L526.38649921875,330.70612619298345L526.6495609374999,335.3142693626293L526.91262265625,338.454663357692L527.1756843750001,338.80832022595825L527.9648695312501,337.50692293818844L528.49099296875,338.0983466559711L528.7540546875,337.2440109203198L529.01711640625,338.36222038790214L531.1216101562501,335.8779047578551L532.43691875,337.362680508195L532.69998046875,334.610600743293L533.489165625,337.29421730516805L535.33059765625,337.92912689889044L535.85672109375,340.1430644609828L538.4873382812501,340.18738945384615L539.802646875,339.36995229980226L540.0657085937501,337.591513969665L540.5918320312501,339.9451432207839L540.8548937500001,339.5247178859035L542.4332640625,342.04504652073354L542.69632578125,340.2411826286487L544.27469609375,340.46863094173506L544.5377578125,340.214509425775L546.9053132812501,337.851391343454L547.9575601562501,338.4631246142414L548.48368359375,335.4941884882943L549.53593046875,338.2037903406588L551.9034859375,338.8932182502519L552.429609375,337.86224915082875L553.2187945312501,336.8717799328007L553.74491796875,339.18261709558146L554.0079796875,338.03132458625544L555.32328828125,338.09112692161386L556.1124734375,339.4437269216566L557.4277820312501,341.79342642652847L557.95390546875,341.8320576886258L559.00615234375,337.76860527261624L559.53227578125,339.1084481589617L559.7953375000001,336.9403958663417L560.05839921875,339.9287834417864L560.58452265625,338.0771649242666L561.11064609375,337.85637054771047L562.4259546875,333.48394388142145L563.2151398437501,335.0267272606219L563.74126328125,336.4901903470442L564.5304484375,334.52640455738214L565.31963359375,338.8041615711183L566.3718804687501,338.0689466514606L567.1610656250001,334.5587168354344L568.2133125,337.1262369777889L568.47637421875,337.91623577221515L568.7394359375,336.1309983349996L570.58086796875,337.095776706839L571.10699140625,338.7910462237325L571.63311484375,338.11236063678126L572.4223000000001,340.0174929313827L572.6853617187501,333.82519622522403L574.26373203125,337.38250019589253L574.52679375,326.2744240354847L575.5790406250001,331.9856218284429L576.6312875000001,333.076017624799L577.42047265625,336.4206051154665L577.683534375,338.15802597582234L577.94659609375,340.2993907804706L578.2096578125,339.7382749136787L578.7357812500001,340.3210518917591L579.52496640625,341.5495928964705L581.3663984375,338.8037341261917L581.6294601562499,338.572240160779L582.9447687500001,338.8520016375934L583.4708921875,336.463449693695L583.73395390625,337.68270451656L583.9970156250001,339.09122992243476L586.3645710937501,340.50050931739725L587.41681796875,340.24408922459435L587.6798796875,341.0751567802772L587.94294140625,341.66403600778847L588.206003125,334.7490236831109L588.7321265625001,332.2879644519031L590.04743515625,335.84923295965433L590.3104968750001,336.42824237519886L590.8366203125,331.0078939689659L591.09968203125,333.28436318596977L591.36274375,335.9981512125479L592.15192890625,336.37105544745305L592.6780523437501,29.016035749550912L592.9411140625,150.7334963710822L593.20417578125,225.56954364257857L595.57173125,265.93236641825916L596.36091640625,296.36535067851355L598.728471875,311.51572553959494L600.3068421875,323.63805338567204L600.56990390625,328.95606466167095L602.1482742187501,334.7652771251376L602.4113359375,325.9731695653186L602.67439765625,322.5442080379239L603.20052109375,325.64492072571585L604.77889140625,331.33746709173477L606.3572617187501,334.23444746581055L606.6203234375,337.15590735910735L608.7248171875001,337.6659195822531L608.98787890625,338.75341500875675L609.7770640625,337.76297730527716L610.56624921875,328.132468964591L611.6184960937501,328.81641516890187L612.14461953125,334.47968113846963L613.19686640625,336.6480528290712L614.7752367187501,337.8349523108836L615.8274835937501,340.2158550489179L616.0905453125,339.72385338802525L616.87973046875,338.2981069727802L617.4058539062501,339.37410651037476L618.1950390625001,340.1369511210286L619.2472859375,340.2031739472367L619.773409375,339.3995182920407L620.2995328125,339.67451249451403L620.56259453125,340.3633484785465L620.82565625,340.6121381294553L622.66708828125,335.7966518996254L623.19321171875,337.42281459558575L623.4562734375,335.4700519541715L625.03464375,336.6313854981103L625.29770546875,332.2734664464676L625.5607671875,335.2833912318756L626.086890625,336.76879420478997L626.6130140625,338.25609660170886L629.7697546875,336.9293065996314L632.13731015625,334.83330482356814L633.18955703125,336.6702680989389L634.504865625,337.39481092791465L634.76792734375,338.73555835068646L636.0832359375,339.2852318632181L636.34629765625,339.687660356094L636.609359375,332.17294323577255L637.66160625,336.1647060353832L637.92466796875,336.9041615673468L639.50303828125,337.21185160196217L640.5552851562501,337.3396378838503L640.818346875,338.0893384051909L641.08140859375,336.6957763929719L641.60753203125,337.810604700047L641.87059375,339.34660139968884L643.18590234375,340.2252996190095L643.9750875,341.31742691725213L644.5012109375001,340.4045820194019L645.29039609375,340.45240930102966L646.07958125,339.72377682072045L646.8687664062501,339.42711477967873L647.39488984375,335.5670861191617L648.97326015625,336.00186984536447L649.236321875,336.6742671913499L649.7624453125001,332.3664441048559L650.28856875,335.3372378167931L652.65612421875,337.5859082247272L652.9191859375001,334.185779889253L653.1822476562501,333.5142421468063L653.4453093750001,337.9291955301665L657.1281734375001,335.06823269245047L658.1804203125,336.2461311763049L659.2326671874999,328.11712755087143L659.4957289062501,323.4968643580265L660.2849140625,328.1100924101107L660.5479757812501,332.38326615574255L661.3371609375,335.66220768009003L661.863284375,337.10036387124285L662.3894078124999,338.51649726303594L663.7047164062501,334.4628537222575L664.4939015625,332.5715979471702L665.020025,320.9282307466804L665.28308671875,329.81171490980324L665.8092101562501,334.02129602347696L666.5983953125,337.99714837135303L667.38758046875,339.8604078686173L667.91370390625,334.4399047744832L668.7028890624999,334.02903955743085L669.49207421875,335.68647681997936L669.7551359375,337.5608232975854L670.54432109375,339.43352236588913L671.33350625,340.6010768375702L673.438,337.69629666652725L673.70106171875,337.5693281602648L674.2271851562501,334.6264527439646L675.5424937500001,337.01044397202566L676.85780234375,335.22635295180936L677.1208640625,338.47529831678247L677.3839257812501,339.67466486335144L677.91004921875,337.8921940838715L678.1731109375,338.2512199556333L678.6992343750001,339.7025796510579L679.2253578125,340.93612131757595L680.01454296875,340.8752977600429L680.2776046875,340.1662064668228L681.3298515625,340.87637062902394L682.6451601562501,335.06171775555697L683.17128359375,337.70643451815L684.74965390625,336.49780290800425L685.012715625,338.8524355093574L685.2757773437501,338.74812472909304L685.5388390625,339.881050386203L685.8019007812501,336.9775190498964L686.5910859375,331.14190004000284L687.117209375,318.13484422105086L687.90639453125,322.17354683943114L688.16945625,327.2080614581258L688.9586414062501,332.15751786095205L689.48476484375,335.0457555714983L690.0108882812501,334.0364238128804L690.27395,337.5238980987738L690.53701171875,337.58504744963767L691.5892585937501,310.66877680180625L692.64150546875,318.1284600110838L692.9045671875,327.6586285531216L693.16762890625,333.14736068619453L694.2198757812499,334.4621823497007L694.4829375,334.18606570168674L695.0090609375,337.2519747875144L695.27212265625,339.1033328830904L695.79824609375,337.4994126944069L696.0613078125,337.6723113954558L696.32436953125,339.13771246749127L696.85049296875,340.4687471119864L697.1135546875,340.30731690508446L697.639678125,336.3794314352114L698.42886328125,338.0343075189703L698.9549867187501,340.2233766147845L699.2180484375,340.4124177294584L700.79641875,342.5603239572115L701.05948046875,341.9068763836364L701.3225421875001,341.0118220677459L702.3747890625,340.83940226617364L702.9009125000001,341.4017425188893L703.4270359375,340.19738365729L704.4792828125001,339.7777523842862L706.32071484375,336.87172567530934L707.1099,333.81864036357086L707.6360234375001,334.78649682766604L708.1621468750001,336.4956038290495L708.4252085937501,337.5824736848762L709.47745546875,334.4200255234713L710.00357890625,334.33339118344634L710.266640625,332.84082275335817L710.52970234375,324.8568887782385L711.3188875000001,328.68873063309724L711.5819492187501,334.3150781427845L712.3711343750001,338.34028349559895L712.63419609375,340.24956075078336L713.42338125,340.91244337730757L714.21256640625,340.9704507948348L715.26481328125,340.54395362802677L716.84318359375,341.13656843382614L717.1062453125,339.30414108069834L717.8954304687501,338.9783649161881L718.1584921875,340.24051230008456L718.6846156250001,338.90578030261435L719.2107390625,338.6378618558528L719.47380078125,338.5470956466515L719.99992421875,337.1353010782253L720.2629859375,334.13790826640434L720.7891093750001,336.7100517680014L721.0521710937501,338.40271297609894L721.3152328125001,340.08811176503355L721.57829453125,339.72518674953074L722.1044179687501,340.26948029949244L722.63054140625,341.47697956095027L722.8936031250001,335.9988070963614L723.94585,337.41845080338675L724.2089117187501,336.9195351665185L724.73503515625,334.5493542210737L725.5242203125,336.97610013411816L726.05034375,339.02922732033653L726.83952890625,337.3184313067694L729.99626953125,336.5960645311415L731.04851640625,328.0213119362795L731.8377015625,331.9006258010866L733.15301015625,336.0748094939069L733.6791335937501,337.5829300551341L734.46831875,336.57350044883646L736.0466890625,326.1460162978611L736.30975078125,328.49852204211004L736.8358742187501,329.1995204836872L737.625059375,335.38680353318136L738.41424453125,338.0161985694884L738.67730625,338.1188707211327L738.94036796875,336.9677767408616L741.3079234375,340.1327165234597L741.57098515625,339.43028496204386L741.834046875,334.10222552566864L742.09710859375,335.5895725114592L742.62323203125,337.5290673348128L743.1493554687501,338.57188698710917L743.938540625,340.8939316719735L745.2538492187501,342.01433966513514L745.77997265625,336.73504030752804L746.043034375,336.71923602140623L746.30609609375,339.5139282827328L746.5691578125001,338.6204306384772L748.6736515625,335.2766169637948L751.04120703125,338.19153848267405L752.356515625,336.5990694759894L754.461009375,337.3658900524592L754.7240710937501,330.5743615189442L755.51325625,324.5863400062471L756.565503125,331.25485287893116L757.35468828125,335.0043245723891L758.40693515625,337.11171164116547L759.1961203125,336.7850271523075L759.98530546875,332.80924151748883L760.2483671875001,333.7025001267222L760.51142890625,337.37071087253855L761.03755234375,339.2573067961947L763.14204609375,338.36221008897223L763.66816953125,337.4032261976623L764.19429296875,338.20690405869624L764.72041640625,339.28100670019774L766.035725,338.140507461965L767.35103359375,339.24431224455833L769.45552734375,337.72736173817754L769.7185890625001,335.4139529217734L769.9816507812501,338.0031722541573L771.03389765625,338.84725433511574L771.8230828125,328.8101872216048L772.61226796875,331.6996350018908L774.71676171875,332.28167174853263L775.24288515625,336.65354015196044L776.2951320312501,333.96316673242853L776.55819375,337.19838539925996L776.82125546875,331.9371195266711L777.0843171875001,336.52517545048545L777.610440625,334.97244932397695L778.1365640625,321.4104354539185L778.92574921875,329.38360373578485L779.714934375,326.1933754974724L779.97799609375,326.28972913215284L780.50411953125,297.9303838753088L781.03024296875,315.94880185106445L782.871675,325.25266639413866L783.923921875,332.3831025238555L784.4500453125,336.0177285068167L784.97616875,334.34166621672705L785.5022921875001,337.02514484007713L785.7653539062501,337.96622102471923L786.29147734375,337.12263761915403L787.0806625,338.4968691860595L787.6067859375,324.06392997473233L788.39597109375,329.04876453709454L788.9220945312501,327.3841282280198L789.7112796875,330.7370108702428L789.9743414062501,335.21502105563263L790.237403125,336.1345325085186L792.8680203125,338.0422046294905L793.1310820312501,337.5081379185526L793.65720546875,337.72389097596164L793.9202671875,337.70633903680715L794.18332890625,339.12542625614094L794.446390625,338.5208657501524L795.2355757812501,340.13077834842414L795.4986375000001,340.5318404978383L796.0247609375,338.78245360081604L796.81394609375,338.9208384993685L797.34006953125,338.9249891079523L797.86619296875,338.4028005908911L798.3923164062501,339.4219273726484L800.759871875,338.6762895271385L801.02293359375,337.875142747772L801.8121187500001,338.72892289958133L802.3382421875,339.0381554143979L802.864365625,332.75156216784444L803.3904890625,336.7246280111097L803.9166125,336.3397869287266L804.17967421875,333.79250966121754L804.9688593750001,335.41262739105525L806.5472296875,338.6629723918646L806.81029140625,334.8831949002868L807.8625382812501,338.3923548341811L808.6517234375,338.78529464377584L809.44090859375,339.28209643802717L809.96703203125,339.4748541142295L810.23009375,340.06445537884537L811.2823406250001,334.6970601365239L812.3345875000001,337.7940371715066L813.1237726562501,338.563083807113L813.386834375,340.4528896775736L813.64989609375,339.643600135931L813.9129578125,340.1109054710052L814.7021429687501,339.78821587975807L815.75438984375,338.92017758103304L816.2805132812501,339.590073824448L817.3327601562501,338.2881824943558L817.5958218750001,340.649030875676L818.1219453125,339.1967462325174L818.3850070312501,339.3260449800091L819.700315625,333.15833734471784L820.4895007812501,328.56770537197104L820.7525625000001,332.69185149572496L821.2786859375,336.0423773003501L821.8048093750001,338.5654785363604L822.3309328125,336.9367087083298L822.59399453125,336.1710286414467L823.3831796875,326.22769898032203L823.6462414062499,333.00433163649626L824.1723648437501,333.6661915775048L824.9615500000001,336.4737632234935L825.22461171875,337.2581509704169L825.75073515625,339.3568461573736L827.3291054687501,338.47001073764955L828.1182906250001,338.2686824258846L828.90747578125,339.88922128717195L829.1705375,335.0222794474071L830.2227843750001,336.3287144242767L831.8011546875,337.68612996162733L835.22095703125,338.94003762444413L836.27320390625,338.82340110475155L836.7993273437501,328.13680336853463L838.1146359375,333.3022111962324L838.90382109375,336.4750136869452L839.42994453125,335.1671341590465L840.48219140625,334.5159967866469L841.7975000000001,338.0382010610061L842.849746875,337.83085640906734L843.9019937500001,339.4526839715358L844.69117890625,341.0610806153859L847.0587343750001,341.61432897022485L848.6371046875,342.0952852364771L851.2677218750001,341.8915848729844L851.53078359375,320.5446611641547L851.7938453125,326.2721732928575L852.58303046875,331.58330588969415L852.8460921875001,336.07036831338894L854.16140078125,337.49693944109794L854.68752421875,331.5448502364953L855.73977109375,336.0227514842942L856.0028328125001,331.7328327441093L856.26589453125,336.13929325957605L856.52895625,339.1352597981364L856.7920179687501,339.0345302352858L857.0550796875,338.63988598537753L857.31814140625,340.6126368605111L859.4226351562501,338.51280811134063L860.2118203125001,340.12776210261484L861.790190625,339.86059437939883L862.8424375,340.7108815569392L865.4730546875,340.99869515985023L865.7361164062501,341.991808683923L865.999178125,340.96665709316795L867.84061015625,341.43277458570935L869.15591875,340.79202250114105L869.94510390625,338.1633965557577L870.4712273437501,339.4321953016228L870.7342890625,339.53379872748L870.99735078125,336.3963242005333L871.2604125,339.7460115199774L872.312659375,338.43032449904024L874.417153125,338.6074832319345L874.68021484375,335.4934489169196L875.4694,336.2141223986283L875.9955234375001,338.13517135951435L876.25858515625,339.3796774868579L876.7847085937501,337.5592230081207L878.1000171875,334.24123880756775L879.9414492187501,336.8342019885354L880.46757265625,339.42191659757185L881.2567578125,340.4555751016658L881.7828812500001,337.9858005244089L883.0981898437501,331.90204920760107L883.887375,335.40844738865684L884.67656015625,336.91707671737544L887.044115625,337.9733190644137L887.3071773437501,338.5360303392024L888.0963625,338.8860793267197L888.8855476562501,335.61746882972164L889.41167109375,335.82997704790256L889.6747328125001,336.49864432995753L891.253103125,334.16922306886454L892.0422882812501,336.3481813877591L892.30535,338.5577745178949L892.8314734375001,335.8093376503653L893.62065859375,334.3807614741484L894.14678203125,336.47844698490263L894.67290546875,329.2413939741943L895.462090625,328.44318442241513L895.72515234375,332.67512856429016L895.9882140625001,335.8986014101964L897.82964609375,335.8869327559508L899.1449546875001,336.0261218453608L899.671078125,336.5222178957708L899.93413984375,338.2798251013814L900.1972015625,340.21492674188215L901.2494484375001,341.14861924286276L901.5125101562501,340.9333177929258L902.82781875,330.33905633390754L903.09088046875,335.219305160125L904.1431273437499,333.588483350712L904.9323125000001,336.5142183544415L905.19537421875,338.2126152808772L905.7214976562501,337.9655447133813L907.5629296875001,338.1416276084443L907.8259914062501,338.0359391309059L909.1413,340.08375089781646L912.298040625,337.6816317829023L913.61334921875,338.0227837021667L914.1394726562501,338.40194693426895L914.4025343750001,338.3148123962916L915.1917195312501,339.1969081200353L915.45478125,340.5749433420415L917.82233671875,340.66571766926734L919.40070703125,336.764761190378L920.4529539062501,337.3978781835069L920.7160156250001,339.34785206941245" style="fill: none;" fill="none"></path></g><g><path stroke="rgb(0, 119, 187)" stroke-width="2px" d="M192.0350546875,337.43095966242254L218.3412265625,338.1042150653666L265.6923359375,338.5285170491861L399.8538125,338.81703635499304L462.988625,338.51282226929146L602.4113359375,338.61609786274545L631.348125,338.98202443278706L839.1668828125,339.18782720413844L920.7160156250001,339.2710760515423" style="fill: none;" fill="none"></path></g></g></g></g><g opacity="0.2"><g><g><g><path stroke="rgb(255, 112, 67)" stroke-width="2px" d="M133.1092296875,287.2024651169777L133.37229140625,280.0310177281499L134.6876,221.94869215786454L135.47678515625,307.94963496923447L135.739846875,307.2099274508655L136.52903203125,320.3353018052876L137.05515546875,325.1297736093402L138.10740234375,308.515268240124L141.26414296875,295.112007625401L142.31638984375002,316.87792721390724L142.84251328125,319.32278829813004L143.36863671875003,287.57842141389847L143.6316984375,299.13805662840605L144.15782187500002,326.4343217033893L145.73619218750002,332.6518853213638L145.99925390625003,312.49738275259733L146.262315625,281.49551334977144L146.52537734375002,328.67000983282924L146.78843906250003,291.26837845146656L148.8929328125,324.8943255767226L149.68211796875,327.9356405157596L150.471303125,315.89379408583045L150.73436484375,328.93158304691315L150.99742656249998,327.02657575905323L151.26048828125,306.1082188524306L152.575796875,333.1337022148073L154.680290625,336.74886299017817L154.94335234375,337.52837879769504L156.52172265625,332.0575003065169L158.62621640625,330.3735564015806L159.4154015625,334.64533416740596L159.67846328125,339.6843099053949L161.5198953125,275.2484431043267L162.30908046875,331.11677500605583L162.83520390625,336.506382657215L164.93969765625002,320.8904261253774L165.72888281250002,337.72270323429257L165.99194453125,338.0036198319867L168.3595,336.5362457949668L168.88562343750002,335.1202504262328L169.14868515625002,338.49346225801855L169.411746875,330.69692743197083L171.25317890625,318.00431064516306L172.5684875,337.4832188030705L173.09461093750002,339.32636548019946L173.35767265625,303.9759497642517L174.40991953125,334.8598777335137L175.72522812500003,338.9109783358872L175.98828984375,337.08311838749796L176.777475,327.52012508176267L178.3558453125,330.18918521888554L178.61890703125002,335.06924244761467L179.14503046875,340.86404901649803L179.93421562500004,331.3185193128884L180.46033906250003,324.3994839042425L180.72340078125004,339.3633574731648L181.24952421875,341.4066158020869L181.77564765625,331.5420242510736L182.038709375,327.2935614474118L183.88014140625,316.62546391785145L185.98463515625,334.4991446956992L186.247696875,331.9443704113364L186.51075859375,336.2778852246702L187.56300546875,336.9078861568123L190.19362265625,333.2458584588021L190.456684375,332.0910284779966L190.9828078125,337.9357397342101L192.0350546875,320.08705181255937L192.82423984375,324.4079213142395L193.08730156250002,335.126181460917L193.35036328125,332.16105303913355L194.1395484375,336.79145313985646L197.29628906250002,338.28803401160985L198.87465937500002,302.4417401775718L199.66384453125002,324.95935629308224L200.18996796875,296.2774019241333L200.45302968750002,321.45047406852245L200.979153125,336.864784874022L202.03140000000002,286.4622849524021L203.08364687500003,337.8668630281463L203.60977031250002,321.6656685359776L204.92507890625,338.18186079338193L208.60794296875002,337.7691312711686L209.9232515625,323.9638256393373L210.18631328125002,339.6925123427063L211.23856015625003,337.9577542440966L211.501621875,93.78144177794458L212.55386875000002,339.53515154030174L212.81693046875003,296.33972100168467L213.34305390625002,332.19157788157463L214.1322390625,331.7722137570381L215.44754765625,322.1766449995339L215.710609375,289.6538352146745L215.97367109375,317.66550974175334L217.2889796875,338.47074823174626L217.55204140625,326.88286295346916L217.815103125,310.03966839239L218.60428828125,333.38296367041767L220.97184375,334.3813747651875L221.4979671875,333.550559964031L223.0763375,326.81694906391203L224.6547078125,336.26771792955697L224.91776953125,335.9495514091104L226.49613984375,342.3137548631057L227.285325,343.2138396794908L228.337571875,322.64859979227185L229.38981875000002,342.3169040372595L229.9159421875,342.6759699843824L230.96818906250002,295.9215560480952L231.23125078125,325.54410202614963L231.4943125,314.86129169538617L232.02043593750003,317.12572886794806L233.33574453125001,341.2880288688466L234.651053125,341.30701236613095L234.91411484375,305.058625575155L235.17717656250002,337.7424436407164L239.12310234375002,336.64856003783643L240.96453437500003,335.70249113440514L242.54290468750003,330.6935864984989L242.80596640625,340.7395344246179L243.33208984375003,342.47702711913735L243.85821328125002,338.50935464911163L244.91046015625002,342.97715533943847L247.278015625,329.1743125319481L247.80413906249998,333.7293863315135L248.06720078125,337.05719239264727L248.8563859375,330.6815961394459L250.43475625,336.1329030264169L252.53925,339.7000787332654L252.80231171875,336.63682355731726L253.591496875,323.5364184267819L253.85455859375,339.1156179383397L256.2221140625,333.7419438660145L256.48517578125,333.35995120182633L259.3788546875,328.94962327741086L260.16803984375,336.82459981832653L260.43110156250003,340.39696585573256L260.957225,338.6829657033086L261.4833484375,334.2022729124874L265.16621250000003,335.1164341457188L266.48152109374996,339.54280030634254L267.00764453125,341.7191882170737L267.7968296875,336.04458705708385L268.322953125,335.9288819152862L269.63826171875,340.6771687576547L269.9013234375,332.77138918824494L271.47969375,341.0615536868572L272.00581718750004,318.96620239317417L272.26887890625,339.9890897348523L272.79500234375,337.7940849652514L273.0580640625,337.6515652537346L273.84724921875,336.653876632452L274.37337265625,322.80128882452846L275.68868125,344.4740832685493L275.95174296875,332.866391075775L278.31929843750004,333.52171369083226L278.845421875,337.9574510753155L279.89766875000004,340.5053942715749L280.16073046875,335.39062836393714L280.42379218750006,337.6004911046475L281.47603906250004,336.4696040302515L282.5282859375,341.1457191472873L282.79134765625,327.72432849928737L283.58053281250005,337.4960234640166L284.10665625,334.62201785482466L284.36971796875,332.21930870972574L284.63277968750003,333.45112195424736L284.89584140625,327.6646170783788L285.15890312500005,340.97355506569147L285.42196484375,334.8985361419618L285.94808828125,341.3844048064202L286.21115000000003,330.1741739753634L287.52645859375,336.8592360075563L287.78952031250003,340.3367595067248L288.8417671875,332.5254821702838L289.63095234375,314.5300720371306L290.15707578125,341.0203409632668L291.73544609375,326.5965973511338L292.26156953125,325.6939011644572L293.57687812500006,339.04047529399395L294.62912500000004,339.5009819203988L294.89218671875,338.0778934825212L295.41831015625,337.07200107350945L298.57505078125,322.00456396862864L300.41648281249996,311.39718932285905L300.67954453125003,330.745763938874L301.20566796875,338.00839963555336L301.4687296875,333.47498383559287L301.73179140625,340.0708602294326L301.99485312499996,327.36094594188035L302.5209765625,323.3268038854003L303.31016171875,340.5392073811963L304.36240859375005,329.59730387851596L304.6254703125,323.5908267572522L305.6777171875,310.0554736815393L306.46690234375,336.65217780694366L307.51914921875004,334.43417339771986L308.308334375,341.66660497616976L308.57139609375,330.35089504159987L308.8344578125,341.0350537644699L309.09751953125004,336.31047215498984L309.36058125,340.4006052315235L309.8867046875,317.86483139917254L310.14976640625,342.3728518439457L310.412828125,341.09142897836864L311.20201328125,337.6330820862204L311.465075,336.0754576064646L311.72813671875,340.31697116047144L312.25426015625004,338.957432705909L312.78038359375,333.6156446970999L313.0434453125,331.9364475104958L314.88487734375,343.7131414441392L315.6740625,338.60038225725293L316.726309375,339.2580728298053L317.51549453125006,337.0417625196278L318.04161796875,326.20389992557466L318.56774140625004,340.7948502358049L319.61998828125,340.67454692162573L320.67223515625005,328.49334548413754L321.4614203125,336.849560264498L321.72448203125003,338.56546518113464L321.98754375,337.4902024883777L322.25060546875005,342.04080640524626L323.82897578125005,336.8578032143414L325.40734609375005,336.28045236878097L325.93346953125007,342.93791388813406L326.19653125,336.9718601712957L327.248778125,337.5937342895195L328.03796328125003,336.70256054215133L328.30102500000004,341.88616061769426L329.09021015625,338.2480407152325L329.353271875,335.049349443987L329.61633359374997,342.0611160127446L330.14245703125,331.1334351096302L330.66858046875,344.05453008553013L332.24695078125,331.84539424441755L333.03613593750003,318.086467359215L333.29919765625,329.4677123911679L334.0883828125,334.8628837633878L334.35144453124997,336.59487823210657L334.61450625000003,331.47393348813057L335.1406296875,321.8746942952275L335.40369140625,327.7267943620682L336.98206171875,317.8520213365555L338.03430859375,332.34672062285244L338.29737031250005,337.8405130021274L338.82349375,335.6610778737813L339.34961718750003,333.1864225231111L339.87574062500005,342.96776757296175L340.13880234375,342.021483277902L340.4018640625,332.9474053364247L340.66492578125,341.35588668473065L340.92798750000003,337.13361590821296L341.71717265625,337.2771639628336L342.24329609375,308.1598815061152L342.76941953125,340.01017988380045L343.5586046875,328.69205810315907L344.084728125,339.2619883660227L344.34778984375,327.1995764244348L344.61085156250005,329.52835154905915L346.18922187500004,337.7715390659869L346.45228359375,335.9237881395966L346.97840703125,333.03978066146374L347.76759218750004,334.6700427606702L348.8198390625,320.86020647734404L349.60902421875,337.21818311791867L350.398209375,332.18378327041864L350.66127109375003,337.5510313799605L351.18739453125,330.5391891878098L351.71351796875,340.56014628335834L352.23964140625003,339.9932625256479L353.55495,338.57700247503817L354.34413515625,338.2464884100482L354.87025859375,329.58631823025644L358.81618437500003,313.5030496418476L359.86843125000007,340.31599480845034L360.39455468750003,340.75323373731226L360.65761640625004,338.8338553039357L361.70986328125,331.54223356582224L362.23598671875004,341.4678383404389L362.4990484375,340.52965790219605L363.28823359375,286.52642979472876L363.81435703125004,340.8060445236042L364.34048046875,342.9314291821793L365.129665625,340.70557411946356L365.6557890625,336.2917445618659L365.91885078125,343.78983740648255L366.44497421875,340.723767622374L367.49722109375,339.848531505093L368.54946796875004,335.78072353452444L370.3909,217.02004554867744L370.65396171875,342.15699364617467L370.9170234375,340.3455534270033L371.18008515625,340.157802823931L371.70620859375003,341.68667961098254L372.49539375,340.6824779249728L372.75845546875,334.54614868573844L373.0215171875,321.9190150052309L373.81070234375005,333.92476611956954L374.0737640625,339.34142668917775L374.33682578125,337.1834942623973L374.5998875,331.1550012808293L376.70438125,338.2872568462044L376.96744296875005,292.42535154521465L377.756628125,338.56530515663326L379.59806015625,321.40507842600346L380.3872453125,337.3911763560027L382.4917390625,342.70097701996565L382.75480078125,330.78715424239635L383.28092421875004,339.3924994878471L383.5439859375,342.1197254927829L383.80704765625006,335.70384290255606L384.59623281250003,342.93561750277877L384.85929453125004,340.9232108173892L385.38541796875006,338.56046796031296L385.91154140625,325.0826980471611L387.22685,333.1343544665724L387.48991171875,338.674242679961L388.54215859375006,333.80177682451904L388.8052203125,328.30989933758974L389.06828203125,332.4078027177602L389.33134375000003,339.0562407458201L390.12052890625006,332.0384553652257L390.383590625,306.8183387182653L390.64665234375,344.6489218524657L391.4358375,337.46768359746784L391.69889921875006,329.5463161561638L393.80339296875,327.0797606110573L394.85563984375,341.85813067201525L395.38176328125,334.59141873940825L395.90788671875,338.50162215717137L396.17094843750004,335.2285201679915L396.96013359375,342.98049998655915L397.74931875000004,344.40870549483225L398.01238046875,337.661033032462L398.2754421875,339.9021896785125L398.53850390625,302.9001097679138L399.32768906250004,333.47061793506145L401.4321828125,335.20404519699514L401.95830625,340.4418875016272L402.48442968750004,335.5115528702736L403.010553125,310.9172130487859L403.27361484375,337.0138352056965L404.06280000000004,341.7970033381134L404.5889234375,337.5453022327274L405.115046875,319.3258780539036L406.43035546875,329.3474090769887L408.2717875,339.63821002002805L408.53484921875,334.3395874388516L409.32403437500005,341.6444810824469L409.8501578125,333.40942375548184L411.428528125,336.6296514887363L411.69158984375,329.24609938822687L412.21771328125,343.36666105268523L412.74383671875,336.85719822719693L413.79608359375,340.8141078678891L414.84833046875,339.6613278212026L415.37445390625,333.42061871849L416.68976250000003,335.3068484477699L416.95282421875,334.9728779885918L417.21588593750005,339.7434426723048L419.05731796875,340.05523589625955L419.32037968750006,341.470292724669L420.89875000000006,339.94063066970557L421.95099687500004,340.54901681561023L422.21405859375,334.39115313999355L422.47712031250006,332.5026736147702L424.84467578125003,341.77803064417094L425.37079921875,324.2251206673682L426.159984375,335.23155590705574L427.73835468749996,339.98179612867534L428.00141640625003,336.46511389128864L429.05366328125,339.17072308436036L429.8428484375,342.3292752141133L430.10591015625005,338.17427414655685L430.368971875,337.63515902869403L431.15815703125,340.2977162292227L434.0518359375,322.40266171470284L434.84102109375004,342.28849935065955L435.63020625,340.0372510328889L435.89326796875,315.8501701913774L436.1563296875,332.76913534104824L436.94551484375,335.3879126738757L437.2085765625,339.96203141473234L437.47163828125,326.91676519066095L441.4175640625,337.9572525639087L442.20674921875,334.2113369163126L442.73287265625004,337.2933926079422L442.995934375,339.9695653952658L443.5220578125,329.622468912974L443.78511953125,334.8696574587375L444.5743046875,338.81419052090496L445.36348984375,337.5640791160986L445.6265515625,331.37103840894997L446.152675,337.1766118584201L446.6787984375,339.8496428988874L447.204921875,335.8011499531567L447.7310453125,315.9026987403631L448.52023046875,341.4872857062146L449.04635390625003,335.7352603711188L449.57247734375005,339.66662213392556L450.09860078125,340.4608595203608L450.62472421875003,337.3582160351798L451.15084765625005,328.08714388124645L453.78146484375003,314.78785867989063L454.83371171875007,340.2781898640096L455.88595859375005,338.4444778803736L456.1490203125,340.5433572148904L456.41208203125007,334.2375755328685L456.93820546875,336.69212383870035L457.727390625,321.4151120297611L458.51657578125,342.50535213109106L459.04269921875004,331.29124357551336L459.831884375,342.61198719218373L461.4102546875,326.1598817091435L461.93637812500003,332.2435068450868L462.4625015625,335.7713718917221L462.72556328125,322.0337167866528L463.51474843750003,338.08967452682555L463.77781015625,317.2362902686L464.04087187500005,342.5195862092078L464.83005703125,340.0072130160406L466.93455078125,293.18162328749895L468.249859375,336.0176084116101L468.77598281250005,339.9808305799961L470.35435312500005,326.74692315235734L471.4066,335.77446299791336L471.66966171875,342.7981756995432L471.93272343750004,332.55485510639846L472.19578515625,335.5870601274073L473.77415546875,340.0419923495501L474.563340625,320.8772109374404L476.40477265625003,339.3951409049332L476.93089609375,339.21706469450146L477.72008125,325.18072487041354L477.98314296875003,341.0932972813025L478.77232812500006,340.2658456955105L479.03538984375,340.3822814133018L480.35069843750006,337.91572451777756L480.61376015625,339.45070924423635L480.876821875,338.15916094649583L481.66600703125,317.0533356741071L482.4551921875,314.1968618631363L482.71825390625,341.6043061548844L482.98131562500004,330.0588226430118L483.24437734375,341.4853498823941L483.50743906250005,339.97948151268065L485.08580937500005,330.1321651805192L486.66417968750005,343.04996209871024L488.24255000000005,341.598715425469L489.29479687500003,343.4771691118367L489.82092031250005,333.95423898659647L491.13622890625004,338.2455640491098L492.18847578125,342.2950475262478L494.02990781249997,304.01754263043404L494.55603125,340.60711448732764L495.34521640625,339.38701206538826L495.87133984375004,339.6359973605722L496.1344015625,340.8341744001955L496.92358671875,334.1806378699839L497.18664843749997,340.8358799777925L497.712771875,336.9107895549387L497.97583359375005,342.59266777848825L498.76501875,339.18603749666363L503.23706796875,338.7602642895654L503.5001296875,328.1279818639159L503.76319140625003,340.4644766142592L504.026253125,341.1204582331702L505.0785,337.6209175232798L505.86768515625005,338.33689009957016L506.91993203125,332.2348857782781L507.18299375,343.2087367884815L507.44605546875005,339.7678886093199L508.49830234375,336.74385226517916L508.7613640625,343.1299392385408L509.02442578125005,338.6362864887342L509.55054921875006,333.3821466676891L510.07667265625,341.4865335235372L510.60279609375004,337.8779209237546L511.12891953125006,337.3469245173037L513.23341328125,323.9067866951227L514.548721875,340.407815111801L514.8117835937501,322.60497319698334L517.1793390625,326.4785627387464L517.4424007812501,313.6945145688951L520.3360796875,339.74926499836147L521.6513882812501,342.88829211331904L522.4405734375,335.6318939961493L522.70363515625,321.71596889570355L523.4928203125,340.38891061395407L524.0189437500001,341.4276600368321L524.2820054687501,337.42543712910265L526.38649921875,321.0169386602938L526.6495609374999,342.22648411709815L526.91262265625,343.165254350286L527.1756843750001,339.3388055283576L527.9648695312501,335.55482700653374L528.49099296875,338.98548223264515L528.7540546875,335.9625073168427L529.01711640625,340.0395345892757L531.1216101562501,332.15143131278455L532.43691875,339.5898441337049L532.69998046875,330.4824810959399L533.489165625,341.31964214798063L535.33059765625,338.88149128947407L535.85672109375,343.46397080412135L538.4873382812501,340.2538769431412L539.802646875,338.14379656873643L540.0657085937501,334.92385647445917L540.5918320312501,343.47558709746227L540.8548937500001,338.8940798835829L542.4332640625,345.82553947297856L542.69632578125,337.53538679052144L544.27469609375,340.80980341136456L544.5377578125,339.83332715183496L546.9053132812501,334.3067142199725L547.9575601562501,339.3807245204225L548.48368359375,331.0407842993736L549.53593046875,342.26819311920553L551.9034859375,339.9273601146415L552.429609375,336.3157955016941L553.2187945312501,335.38607610575855L553.74491796875,342.6488728397526L554.0079796875,336.30438582226634L555.32328828125,338.1808304246515L556.1124734375,341.4726269217208L557.4277820312501,345.31797568383627L557.95390546875,341.8900045817718L559.00615234375,331.6734266486019L559.53227578125,341.1182124884799L559.7953375000001,333.6883174274117L560.05839921875,344.41136480495334L560.58452265625,335.2997371479869L561.11064609375,337.52517898287624L562.4259546875,326.92530388198793L563.2151398437501,337.34090232942253L563.74126328125,338.6853849766776L564.5304484375,331.58072587288916L565.31963359375,345.2207970917225L566.3718804687501,336.96612427197397L567.1610656250001,329.293372111395L568.2133125,340.97751719132066L568.47637421875,339.1012339638546L568.7394359375,333.4531421791762L570.58086796875,338.5429442645982L571.10699140625,341.33395049907267L571.63311484375,337.0943322563544L572.4223000000001,342.8751913732849L572.6853617187501,324.53675116598606L574.26373203125,342.7184561518952L574.52679375,309.612309794873L575.5790406250001,340.55241851788014L576.6312875000001,334.7116113193333L577.42047265625,341.43748635146767L577.683534375,340.76415726635605L577.94659609375,343.51143798744306L578.2096578125,338.89660111349076L578.7357812500001,341.19521735887975L579.52496640625,343.3924044035375L581.3663984375,334.6849459707737L581.6294601562499,338.2249992126599L582.9447687500001,339.27164385281503L583.4708921875,332.8806217778474L583.73395390625,339.51158675085753L583.9970156250001,341.20401803124696L586.3645710937501,342.6144284098409L587.41681796875,339.85945908539L587.6798796875,342.3217581138015L587.94294140625,342.5473548490554L588.206003125,324.3765051960945L588.7321265625001,328.59637560509145L590.04743515625,341.19113572128117L590.3104968750001,337.2967564985156L590.8366203125,322.8773713596165L591.09968203125,336.69906701147556L591.36274375,340.06883325241506L592.15192890625,336.9304117998108L592.6780523437501,-432.0164937973023L592.9411140625,333.3096873033792L593.20417578125,337.8236145498231L595.57173125,326.4766005817801L596.36091640625,342.0148270688951L598.728471875,334.24128783121705L600.3068421875,341.8215451547876L600.56990390625,336.93308157566935L602.1482742187501,343.47909582033753L602.4113359375,312.78500822559L602.67439765625,317.4007657468319L603.20052109375,330.29598975740373L604.77889140625,339.8762866407633L606.3572617187501,338.57991802692413L606.6203234375,341.5380971990526L608.7248171875001,338.43093791697174L608.98787890625,340.38465814851224L609.7770640625,336.2773207500577L610.56624921875,313.6867064535618L611.6184960937501,329.84233447536826L612.14461953125,342.97458009282127L613.19686640625,339.90061036497355L614.7752367187501,339.6153015336022L615.8274835937501,343.7872091559693L616.0905453125,338.9858508966863L616.87973046875,336.1594873499125L617.4058539062501,340.9881058167666L618.1950390625001,341.28121803700924L619.2472859375,340.30250818654895L619.773409375,338.19403480924666L620.2995328125,340.08700379822403L620.56259453125,341.39660245459527L620.82565625,340.9853226058185L622.66708828125,328.5734225548804L623.19321171875,339.86205863952637L623.4562734375,332.54090799205005L625.03464375,338.37338581401855L625.29770546875,325.7365878690034L625.5607671875,339.7982784099877L626.086890625,338.99689866416156L626.6130140625,340.4870501970872L629.7697546875,334.9391215965152L632.13731015625,331.6893021594733L633.18955703125,339.42571301199496L634.504865625,338.48162517137825L634.76792734375,340.7466794848442L636.0832359375,340.1097421320155L636.34629765625,340.2913030954078L636.609359375,320.90086755529046L637.66160625,342.1523502347991L637.92466796875,338.0133448652923L639.50303828125,337.67338665388525L640.5552851562501,337.53131730668247L640.818346875,339.21388918720186L641.08140859375,334.6054333746433L641.60753203125,339.48284716065973L641.87059375,341.65059644915164L643.18590234375,341.54334694799036L643.9750875,342.9556178646162L644.5012109375001,339.03531467262655L645.29039609375,340.5241502234712L646.07958125,338.6308281002566L646.8687664062501,338.9821217181161L647.39488984375,329.77704312838614L648.97326015625,336.65404543466866L649.236321875,337.6828632103279L649.7624453125001,325.90470947511494L650.28856875,339.7934283846989L652.65612421875,340.9589138366282L652.9191859375001,329.0855873860419L653.1822476562501,332.50693553313613L653.4453093750001,344.55162560520694L657.1281734375001,330.77678843587637L658.1804203125,338.0129789020866L659.2326671874999,315.9236221127212L659.4957289062501,316.5664695687592L660.2849140625,335.0299344882369L660.5479757812501,338.79302677419037L661.3371609375,340.58061996661127L661.863284375,339.2575981579721L662.3894078124999,340.64069735072553L663.7047164062501,328.3823884110898L664.4939015625,329.7347142845392L665.020025,303.46317994594574L665.28308671875,343.13694115448743L665.8092101562501,340.3356676939875L666.5983953125,343.9609268931672L667.38758046875,342.6552971145138L667.91370390625,326.30915013328195L668.7028890624999,333.4127417318523L669.49207421875,338.17263271380216L669.7551359375,340.3723430139944L670.54432109375,342.2425709683448L671.33350625,342.35240854509175L673.438,333.3391264099628L673.70106171875,337.37887540087104L674.2271851562501,330.21213961951435L675.5424937500001,340.5864308141172L676.85780234375,332.55021642148495L677.1208640625,343.34871636424214L677.3839257812501,341.4737146832049L677.91004921875,335.21848791465163L678.1731109375,338.78975876327604L678.6992343750001,341.8796191941947L679.2253578125,342.7864338173531L680.01454296875,340.7840624237433L680.2776046875,339.10256952699274L681.3298515625,341.94161687232554L682.6451601562501,326.3397384453565L683.17128359375,341.6735096620396L684.74965390625,334.6848554927856L685.012715625,342.38438441138715L685.2757773437501,338.5916585586965L685.5388390625,341.58043887186795L685.8019007812501,332.6222220454365L686.5910859375,322.38847152516246L687.117209375,298.62426049262285L687.90639453125,328.2316007670015L688.16945625,334.7598333861679L688.9586414062501,339.5817024651915L689.48476484375,339.37811213731766L690.0108882812501,332.5224261749536L690.27395,342.75510952761397L690.53701171875,337.6767714759335L691.5892585937501,270.29437083005905L692.64150546875,329.31798482500017L692.9045671875,341.9538813661784L693.16762890625,341.3804588858038L694.2198757812499,336.43441484496L694.4829375,333.77189072966576L695.0090609375,341.850838416256L695.27212265625,341.88037002645433L695.79824609375,335.0935324113816L696.0613078125,337.93165944702923L696.32436953125,341.3358140755445L696.85049296875,342.465299078729L697.1135546875,340.0651715947315L697.639678125,330.4876032304019L698.42886328125,340.5166216446087L698.9549867187501,343.5069802585058L699.2180484375,340.69597940146923L700.79641875,345.7821832988411L701.05948046875,340.9267050232738L701.3225421875001,339.6692405939102L702.3747890625,340.5807725638151L702.9009125000001,342.2452528979629L703.4270359375,338.390845364891L704.4792828125001,339.1483054747805L706.32071484375,332.51268561184406L707.1099,329.2390123959631L707.6360234375001,336.23828152380884L708.1621468750001,339.0592643311247L708.4252085937501,339.2127784686163L709.47745546875,329.67635328136384L710.00357890625,334.20343967340887L710.266640625,330.60197010822594L710.52970234375,312.8809878155589L711.3188875000001,334.4364934153855L711.5819492187501,342.75459940731525L712.3711343750001,344.3780915248208L712.63419609375,343.1134766335599L713.42338125,341.9067673170939L714.21256640625,341.05746192112565L715.26481328125,339.90420787781477L716.84318359375,342.02549064252526L717.1062453125,336.5555000510067L717.8954304687501,338.48970066942275L718.1584921875,342.1337333759293L718.6846156250001,336.9036823064089L719.2107390625,338.23598418571055L719.47380078125,338.41094633284956L719.99992421875,335.01760922558606L720.2629859375,329.6418190486729L720.7891093750001,340.5682670203969L721.0521710937501,340.94170478824526L721.3152328125001,342.6162099484354L721.57829453125,339.1807992262766L722.1044179687501,341.08592062443495L722.63054140625,343.288228453137L722.8936031250001,327.7815483994782L723.94585,339.54791636392474L724.2089117187501,336.171161711216L724.73503515625,330.99408280290663L725.5242203125,340.6162190036848L726.05034375,342.10891809966415L726.83952890625,334.7522372864187L729.99626953125,335.5125143676996L731.04851640625,315.15918304398656L731.8377015625,337.71959659829736L733.15301015625,342.33608503313735L733.6791335937501,339.8451108969748L734.46831875,335.05935603938997L736.0466890625,310.504790071398L736.30975078125,332.0272806584835L736.8358742187501,330.25101814605296L737.625059375,344.6677281074226L738.41424453125,341.960291123949L738.67730625,338.2728789485991L738.94036796875,335.241135770455L741.3079234375,344.88012619735673L741.57098515625,338.3766376199201L741.834046875,326.1101363711059L742.09710859375,337.8205929901451L742.62323203125,340.4383095698431L743.1493554687501,340.13611646555364L743.938540625,344.3769986992702L745.2538492187501,343.6949516548775L745.77997265625,328.81609127111733L746.043034375,336.69552959222347L746.30609609375,343.70596667472273L746.5691578125001,337.28018417209387L748.6736515625,330.26089645177126L751.04120703125,342.5639207609929L752.356515625,334.2103659659624L754.461009375,338.5161209171638L754.7240710937501,320.3870687186718L755.51325625,315.60430773720145L756.565503125,341.25762218795717L757.35468828125,340.62853211257607L758.40693515625,340.27279224433005L759.1961203125,336.29500041902065L759.98530546875,326.84556306526065L760.2483671875001,335.0423880405724L760.51142890625,342.87302699126303L761.03755234375,342.08720068167895L763.14204609375,337.01956502813846L763.66816953125,335.9647503606975L764.19429296875,339.41242085024714L764.72041640625,340.8921606624499L766.035725,336.4297586046159L767.35103359375,340.9000194184482L769.45552734375,335.45193597860634L769.7185890625001,331.9438396971673L769.9816507812501,341.88700125273317L771.03389765625,340.1133774565533L771.8230828125,313.75458655133843L772.61226796875,336.03380667231977L774.71676171875,333.15472686849535L775.24288515625,343.2113427571021L776.2951320312501,329.9276066031307L776.55819375,342.0512133995071L776.82125546875,324.04522071778774L777.0843171875001,343.40725933620706L777.610440625,332.64336013421416L778.1365640625,301.0674146488309L778.92574921875,341.34335615858436L779.714934375,321.4080331400037L779.97799609375,326.43425958417356L780.50411953125,255.39136599004266L781.03024296875,342.976428814698L782.871675,339.2084632087499L783.923921875,343.07875671843067L784.4500453125,341.4696674812585L784.97616875,331.8275727815926L785.5022921875001,341.05036277510226L785.7653539062501,339.37783530168235L786.29147734375,335.8572625108063L787.0806625,340.5582165364176L787.6067859375,302.41452115774155L788.39597109375,336.5260163806379L788.9220945312501,324.88717376440763L789.7112796875,335.7663348335773L789.9743414062501,341.9320363337174L790.237403125,337.5137996878475L792.8680203125,340.9037128109485L793.1310820312501,336.70703785214573L793.65720546875,338.0475205620751L793.9202671875,337.6800111280754L794.18332890625,341.25405708514154L794.446390625,337.6140249911696L795.2355757812501,342.5456472458318L795.4986375000001,341.1334337219596L796.0247609375,336.15837325528264L796.81394609375,339.1284158471972L797.34006953125,338.93121502082795L797.86619296875,337.61951781529933L798.3923164062501,340.95061754528433L800.759871875,337.5578327588737L801.02293359375,336.67342257872224L801.8121187500001,340.0095931272954L802.3382421875,339.5020041866228L802.864365625,323.32167229801416L803.3904890625,342.68422677600756L803.9166125,335.76252530515194L804.17967421875,329.971593759954L804.9688593750001,337.84280398581177L806.5472296875,343.5384898930788L806.81029140625,329.21352866292L807.8625382812501,343.65609473502263L808.6517234375,339.37470435816795L809.44090859375,340.0272991294041L809.96703203125,339.76399062853307L810.23009375,340.9488572757691L811.2823406250001,326.6459672730416L812.3345875000001,342.4395027239807L813.1237726562501,339.7166537605226L813.386834375,343.28759848326445L813.64989609375,338.4296658234671L813.9129578125,340.81186347361654L814.7021429687501,339.30418149288744L815.75438984375,337.6181201329455L816.2805132812501,340.5949181895703L817.3327601562501,336.3353454992175L817.5958218750001,344.19030344765633L818.1219453125,337.0183192677796L818.3850070312501,339.51999310124665L819.700315625,323.90677589178085L820.4895007812501,321.68175741285086L820.7525625000001,338.8780706813559L821.2786859375,341.0681660072878L821.8048093750001,342.35013039037585L822.3309328125,334.4935539662838L822.59399453125,335.0225085411221L823.3831796875,311.31270448863506L823.6462414062499,343.1692806207575L824.1723648437501,334.6589814890176L824.9615500000001,340.68512069247663L825.22461171875,338.434732590802L825.75073515625,342.5048889378086L827.3291054687501,337.1397576080635L828.1182906250001,337.9666899582371L828.90747578125,342.320029579103L829.1705375,327.72186668775976L830.2227843750001,338.2883668895811L831.8011546875,339.7222532676533L835.22095703125,340.82089911866933L836.27320390625,338.6484463252127L836.7993273437501,312.10690676420927L838.1146359375,341.05032293777913L838.90382109375,341.23421742301434L839.42994453125,333.20531486719847L840.48219140625,333.5392907280475L841.7975000000001,343.3215074725449L842.849746875,337.5198394311592L843.9019937500001,341.88542531523854L844.69117890625,343.47367558116093L847.0587343750001,342.44420150248334L848.6371046875,342.8167196358554L851.2677218750001,341.58603432774544L851.53078359375,288.5242756009102L851.7938453125,334.8634414859116L852.58303046875,339.5500047849491L852.8460921875001,342.8009619489312L854.16140078125,339.6367961326614L854.68752421875,322.6167164295912L855.73977109375,342.7396033559926L856.0028328125001,325.297954633832L856.26589453125,342.7489840327762L856.52895625,343.62920960597694L856.7920179687501,338.88343589100987L857.0550796875,338.04791961051524L857.31814140625,343.57176317321137L859.4226351562501,335.36306498758495L860.2118203125001,342.55019308952615L861.790190625,339.4598427945748L862.8424375,341.9863123232499L865.4730546875,341.4304155642167L865.7361164062501,343.4814789700322L865.999178125,339.4289297070354L867.84061015625,342.1319508245215L869.15591875,339.8308943742886L869.94510390625,334.22045763768256L870.4712273437501,341.3353934204206L870.7342890625,339.6862038662657L870.99735078125,331.6901124101132L871.2604125,344.77054249914363L872.312659375,336.45679396763444L874.417153125,338.873221331276L874.68021484375,330.8223974443972L875.4694,337.29513262119144L875.9955234375001,341.0167448008433L876.25858515625,341.24643667787313L876.7847085937501,334.828541290015L878.1000171875,329.2642625067383L879.9414492187501,340.7236467599869L880.46757265625,343.3034885111265L881.2567578125,342.0060628578067L881.7828812500001,334.28113865852356L883.0981898437501,322.77642223238945L883.887375,340.6680446602404L884.67656015625,339.1800207104534L887.044115625,339.5576825849712L887.3071773437501,339.38009725138545L888.0963625,339.4111528079957L888.8855476562501,330.71455308422446L889.41167109375,336.14873937517405L889.6747328125001,337.5016452530399L891.253103125,330.6750911772251L892.0422882812501,339.6166188661009L892.30535,341.8721642130986L892.8314734375001,331.6866823490709L893.62065859375,332.23789720982313L894.14678203125,339.6249752510339L894.67290546875,318.3858144581318L895.462090625,327.24587009474635L895.72515234375,339.02304477710277L895.9882140625001,340.73381067905575L897.82964609375,335.8694297745824L899.1449546875001,336.23490547947586L899.671078125,337.2663619713858L899.93413984375,340.91623590979725L900.1972015625,343.11757920263335L901.2494484375001,342.54915799433365L901.5125101562501,340.6103656180203L902.82781875,314.44766414538026L903.09088046875,342.5396783994511L904.1431273437499,331.1422506365925L904.9323125000001,340.9028208600357L905.19537421875,340.7602106705308L905.7214976562501,337.5949388621375L907.5629296875001,338.40575195103884L907.8259914062501,337.8774064145982L909.1413,343.1554685481824L912.298040625,334.078453110531L913.61334921875,338.53451158106327L914.1394726562501,338.97069178242236L914.4025343750001,338.1841105893254L915.1917195312501,340.520051705651L915.45478125,342.64199617505074L917.82233671875,340.8018791601062L919.40070703125,330.913326472044L920.4529539062501,338.3475536732003L920.7160156250001,342.2728128982708" style="fill: none;" fill="none"></path></g><g><path stroke="rgb(0, 119, 187)" stroke-width="2px" d="M192.0350546875,337.43095966242254L218.3412265625,338.508168307133L265.6923359375,338.9358469536528L399.8538125,339.15633505862206L462.988625,338.11564035899937L602.4113359375,338.75896518770605L631.348125,339.5053052827716L839.1668828125,339.48788962047547L920.7160156250001,339.3938519312069" style="fill: none;" fill="none"></path></g></g></g></g></g></g><g transform="translate(61, 377)" clip-path="url(#clip_1)"><clipPath id="clip_1"><rect width="1052" height="23"></rect></clipPath><g><g><line x1="0" y1="0" x2="0" y2="5" style="visibility: inherit;" fill="rgb(0, 0, 0)" stroke="rgb(204, 204, 204)" stroke-width="1px"></line><line x1="131.530859375" y1="0" x2="131.530859375" y2="5" style="visibility: inherit;" fill="rgb(0, 0, 0)" stroke="rgb(204, 204, 204)" stroke-width="1px"></line><line x1="263.06171875" y1="0" x2="263.06171875" y2="5" style="visibility: inherit;" fill="rgb(0, 0, 0)" stroke="rgb(204, 204, 204)" stroke-width="1px"></line><line x1="394.59257812500005" y1="0" x2="394.59257812500005" y2="5" style="visibility: inherit;" fill="rgb(0, 0, 0)" stroke="rgb(204, 204, 204)" stroke-width="1px"></line><line x1="526.1234375" y1="0" x2="526.1234375" y2="5" style="visibility: inherit;" fill="rgb(0, 0, 0)" stroke="rgb(204, 204, 204)" stroke-width="1px"></line><line x1="657.654296875" y1="0" x2="657.654296875" y2="5" style="visibility: inherit;" fill="rgb(0, 0, 0)" stroke="rgb(204, 204, 204)" stroke-width="1px"></line><line x1="789.1851562500001" y1="0" x2="789.1851562500001" y2="5" style="visibility: inherit;" fill="rgb(0, 0, 0)" stroke="rgb(204, 204, 204)" stroke-width="1px"></line><line x1="920.7160156250001" y1="0" x2="920.7160156250001" y2="5" style="visibility: inherit;" fill="rgb(0, 0, 0)" stroke="rgb(204, 204, 204)" stroke-width="1px"></line><line x1="1052.246875" y1="0" x2="1052.246875" y2="5" style="visibility: inherit;" fill="rgb(0, 0, 0)" stroke="rgb(204, 204, 204)" stroke-width="1px"></line></g><g transform="translate(0, 8)"><text x="0" y="0" dx="0em" dy="0.95em" style="text-anchor: middle; visibility: hidden; font-family: Roboto, sans-serif; font-size: 12px; font-weight: 200;" fill="rgb(33, 33, 33)" stroke="none" stroke-width="1px">-50k</text><text x="131.530859375" y="0" dx="0em" dy="0.95em" style="text-anchor: middle; visibility: inherit; font-family: Roboto, sans-serif; font-size: 12px; font-weight: 200;" fill="rgb(33, 33, 33)" stroke="none" stroke-width="1px">0</text><text x="263.06171875" y="0" dx="0em" dy="0.95em" style="text-anchor: middle; visibility: inherit; font-family: Roboto, sans-serif; font-size: 12px; font-weight: 200;" fill="rgb(33, 33, 33)" stroke="none" stroke-width="1px">50k</text><text x="394.59257812500005" y="0" dx="0em" dy="0.95em" style="text-anchor: middle; visibility: inherit; font-family: Roboto, sans-serif; font-size: 12px; font-weight: 200;" fill="rgb(33, 33, 33)" stroke="none" stroke-width="1px">100k</text><text x="526.1234375" y="0" dx="0em" dy="0.95em" style="text-anchor: middle; visibility: inherit; font-family: Roboto, sans-serif; font-size: 12px; font-weight: 200;" fill="rgb(33, 33, 33)" stroke="none" stroke-width="1px">150k</text><text x="657.654296875" y="0" dx="0em" dy="0.95em" style="text-anchor: middle; visibility: inherit; font-family: Roboto, sans-serif; font-size: 12px; font-weight: 200;" fill="rgb(33, 33, 33)" stroke="none" stroke-width="1px">200k</text><text x="789.1851562500001" y="0" dx="0em" dy="0.95em" style="text-anchor: middle; visibility: inherit; font-family: Roboto, sans-serif; font-size: 12px; font-weight: 200;" fill="rgb(33, 33, 33)" stroke="none" stroke-width="1px">250k</text><text x="920.7160156250001" y="0" dx="0em" dy="0.95em" style="text-anchor: middle; visibility: inherit; font-family: Roboto, sans-serif; font-size: 12px; font-weight: 200;" fill="rgb(33, 33, 33)" stroke="none" stroke-width="1px">300k</text><text x="1052.246875" y="0" dx="0em" dy="0.95em" style="text-anchor: middle; visibility: hidden; font-family: Roboto, sans-serif; font-size: 12px; font-weight: 200;" fill="rgb(33, 33, 33)" stroke="none" stroke-width="1px">350k</text></g><line x1="0" y1="0" x2="1052.246875" y2="0" fill="rgb(0, 0, 0)" stroke="rgb(204, 204, 204)" stroke-width="1px"></line></g></g></g></g></svg>