<svg viewBox="0 0 1114.2000732421875 400" xmlns="http://www.w3.org/2000/svg"><g><g><g><g><g><line x1="41.171875" y1="377" x2="36.171875" y2="377" style="visibility: inherit;" fill="rgb(0, 0, 0)" stroke="rgb(204, 204, 204)" stroke-width="1px"></line><line x1="41.171875" y1="335.1111111111111" x2="36.171875" y2="335.1111111111111" style="visibility: inherit;" fill="rgb(0, 0, 0)" stroke="rgb(204, 204, 204)" stroke-width="1px"></line><line x1="41.171875" y1="293.22222222222223" x2="36.171875" y2="293.22222222222223" style="visibility: inherit;" fill="rgb(0, 0, 0)" stroke="rgb(204, 204, 204)" stroke-width="1px"></line><line x1="41.171875" y1="251.33333333333331" x2="36.171875" y2="251.33333333333331" style="visibility: inherit;" fill="rgb(0, 0, 0)" stroke="rgb(204, 204, 204)" stroke-width="1px"></line><line x1="41.171875" y1="209.44444444444446" x2="36.171875" y2="209.44444444444446" style="visibility: inherit;" fill="rgb(0, 0, 0)" stroke="rgb(204, 204, 204)" stroke-width="1px"></line><line x1="41.171875" y1="167.55555555555554" x2="36.171875" y2="167.55555555555554" style="visibility: inherit;" fill="rgb(0, 0, 0)" stroke="rgb(204, 204, 204)" stroke-width="1px"></line><line x1="41.171875" y1="125.66666666666669" x2="36.171875" y2="125.66666666666669" style="visibility: inherit;" fill="rgb(0, 0, 0)" stroke="rgb(204, 204, 204)" stroke-width="1px"></line><line x1="41.171875" y1="83.77777777777777" x2="36.171875" y2="83.77777777777777" style="visibility: inherit;" fill="rgb(0, 0, 0)" stroke="rgb(204, 204, 204)" stroke-width="1px"></line><line x1="41.171875" y1="41.888888888888864" x2="36.171875" y2="41.888888888888864" style="visibility: inherit;" fill="rgb(0, 0, 0)" stroke="rgb(204, 204, 204)" stroke-width="1px"></line><line x1="41.171875" y1="0" x2="36.171875" y2="0" style="visibility: inherit;" fill="rgb(0, 0, 0)" stroke="rgb(204, 204, 204)" stroke-width="1px"></line></g><g transform="translate(31.171875, 0)"><text x="0" y="377" dx="0em" dy="0.3em" style="text-anchor: end; visibility: hidden; font-family: Roboto, sans-serif; font-size: 12px; font-weight: 200;" fill="rgb(33, 33, 33)" stroke="none" stroke-width="1px">0.1</text><text x="0" y="335.1111111111111" dx="0em" dy="0.3em" style="text-anchor: end; visibility: inherit; font-family: Roboto, sans-serif; font-size: 12px; font-weight: 200;" fill="rgb(33, 33, 33)" stroke="none" stroke-width="1px">0.2</text><text x="0" y="293.22222222222223" dx="0em" dy="0.3em" style="text-anchor: end; visibility: inherit; font-family: Roboto, sans-serif; font-size: 12px; font-weight: 200;" fill="rgb(33, 33, 33)" stroke="none" stroke-width="1px">0.3</text><text x="0" y="251.33333333333331" dx="0em" dy="0.3em" style="text-anchor: end; visibility: inherit; font-family: Roboto, sans-serif; font-size: 12px; font-weight: 200;" fill="rgb(33, 33, 33)" stroke="none" stroke-width="1px">0.4</text><text x="0" y="209.44444444444446" dx="0em" dy="0.3em" style="text-anchor: end; visibility: inherit; font-family: Roboto, sans-serif; font-size: 12px; font-weight: 200;" fill="rgb(33, 33, 33)" stroke="none" stroke-width="1px">0.5</text><text x="0" y="167.55555555555554" dx="0em" dy="0.3em" style="text-anchor: end; visibility: inherit; font-family: Roboto, sans-serif; font-size: 12px; font-weight: 200;" fill="rgb(33, 33, 33)" stroke="none" stroke-width="1px">0.6</text><text x="0" y="125.66666666666669" dx="0em" dy="0.3em" style="text-anchor: end; visibility: inherit; font-family: Roboto, sans-serif; font-size: 12px; font-weight: 200;" fill="rgb(33, 33, 33)" stroke="none" stroke-width="1px">0.7</text><text x="0" y="83.77777777777777" dx="0em" dy="0.3em" style="text-anchor: end; visibility: inherit; font-family: Roboto, sans-serif; font-size: 12px; font-weight: 200;" fill="rgb(33, 33, 33)" stroke="none" stroke-width="1px">0.8</text><text x="0" y="41.888888888888864" dx="0em" dy="0.3em" style="text-anchor: end; visibility: inherit; font-family: Roboto, sans-serif; font-size: 12px; font-weight: 200;" fill="rgb(33, 33, 33)" stroke="none" stroke-width="1px">0.9</text><text x="0" y="0" dx="0em" dy="0.3em" style="text-anchor: end; visibility: hidden; font-family: Roboto, sans-serif; font-size: 12px; font-weight: 200;" fill="rgb(33, 33, 33)" stroke="none" stroke-width="1px">1</text></g><line x1="41.171875" y1="0" x2="41.171875" y2="377" fill="rgb(0, 0, 0)" stroke="rgb(204, 204, 204)" stroke-width="1px"></line></g></g><g transform="translate(41, 0)" clip-path="url(#clip_0)"><clipPath id="clip_0"><rect width="1073" height="377"></rect></clipPath><g><g><g><line x1="0" y1="0" x2="0" y2="377" fill="rgb(0, 0, 0)" stroke="rgb(66, 66, 66)" stroke-width="1px" opacity="0.25"></line><line x1="134.128515625" y1="0" x2="134.128515625" y2="377" fill="rgb(0, 0, 0)" stroke="rgb(66, 66, 66)" stroke-width="1px" opacity="0.25"></line><line x1="268.25703125" y1="0" x2="268.25703125" y2="377" fill="rgb(0, 0, 0)" stroke="rgb(66, 66, 66)" stroke-width="1px" opacity="0.25"></line><line x1="402.38554687500005" y1="0" x2="402.38554687500005" y2="377" fill="rgb(0, 0, 0)" stroke="rgb(66, 66, 66)" stroke-width="1px" opacity="0.25"></line><line x1="536.5140625" y1="0" x2="536.5140625" y2="377" fill="rgb(0, 0, 0)" stroke="rgb(66, 66, 66)" stroke-width="1px" opacity="0.25"></line><line x1="670.642578125" y1="0" x2="670.642578125" y2="377" fill="rgb(0, 0, 0)" stroke="rgb(66, 66, 66)" stroke-width="1px" opacity="0.25"></line><line x1="804.7710937500001" y1="0" x2="804.7710937500001" y2="377" fill="rgb(0, 0, 0)" stroke="rgb(66, 66, 66)" stroke-width="1px" opacity="0.25"></line><line x1="938.8996093750001" y1="0" x2="938.8996093750001" y2="377" fill="rgb(0, 0, 0)" stroke="rgb(66, 66, 66)" stroke-width="1px" opacity="0.25"></line><line x1="1073.028125" y1="0" x2="1073.028125" y2="377" fill="rgb(0, 0, 0)" stroke="rgb(66, 66, 66)" stroke-width="1px" opacity="0.25"></line></g><g><line x1="0" y1="377" x2="1073.028125" y2="377" fill="rgb(0, 0, 0)" stroke="rgb(66, 66, 66)" stroke-width="1px" opacity="0.25"></line><line x1="0" y1="335.1111111111111" x2="1073.028125" y2="335.1111111111111" fill="rgb(0, 0, 0)" stroke="rgb(66, 66, 66)" stroke-width="1px" opacity="0.25"></line><line x1="0" y1="293.22222222222223" x2="1073.028125" y2="293.22222222222223" fill="rgb(0, 0, 0)" stroke="rgb(66, 66, 66)" stroke-width="1px" opacity="0.25"></line><line x1="0" y1="251.33333333333331" x2="1073.028125" y2="251.33333333333331" fill="rgb(0, 0, 0)" stroke="rgb(66, 66, 66)" stroke-width="1px" opacity="0.25"></line><line x1="0" y1="209.44444444444446" x2="1073.028125" y2="209.44444444444446" fill="rgb(0, 0, 0)" stroke="rgb(66, 66, 66)" stroke-width="1px" opacity="0.25"></line><line x1="0" y1="167.55555555555554" x2="1073.028125" y2="167.55555555555554" fill="rgb(0, 0, 0)" stroke="rgb(66, 66, 66)" stroke-width="1px" opacity="0.25"></line><line x1="0" y1="125.66666666666669" x2="1073.028125" y2="125.66666666666669" fill="rgb(0, 0, 0)" stroke="rgb(66, 66, 66)" stroke-width="1px" opacity="0.25"></line><line x1="0" y1="83.77777777777777" x2="1073.028125" y2="83.77777777777777" fill="rgb(0, 0, 0)" stroke="rgb(66, 66, 66)" stroke-width="1px" opacity="0.25"></line><line x1="0" y1="41.888888888888864" x2="1073.028125" y2="41.888888888888864" fill="rgb(0, 0, 0)" stroke="rgb(66, 66, 66)" stroke-width="1px" opacity="0.25"></line><line x1="0" y1="0" x2="1073.028125" y2="0" fill="rgb(0, 0, 0)" stroke="rgb(66, 66, 66)" stroke-width="1px" opacity="0.25"></line></g></g></g><g><g><line x1="0" y1="418.8888888888889" x2="1073.028125" y2="418.8888888888889" fill="rgb(0, 0, 0)" stroke="rgb(153, 153, 153)" stroke-width="1.5px"></line></g></g><g><g><line x1="134.128515625" y1="0" x2="134.128515625" y2="377" fill="rgb(0, 0, 0)" stroke="rgb(153, 153, 153)" stroke-width="1.5px"></line></g></g><g><g><g><g><g><path stroke="rgb(255, 112, 67)" stroke-width="2px" d="M135.73805781250002,53.3722789420022L136.00631484375,48.663272675540725L137.3476,82.2825383748057L138.15237109375002,107.47330404574576L138.420628125,153.8468377789551L139.22539921875,191.71733310453033L139.76191328125,233.05140561971936L140.83494140625,244.87119810203723L144.05402578125,238.07095927386902L145.12705390625,175.83133421916622L145.66356796875002,204.31498912255492L146.20008203125002,191.53620060539473L146.4683390625,188.46714225088616L147.004853125,225.41162968133563L148.61439531250002,259.71024768779387L148.88265234375,261.5286472537718L149.15090937500003,215.21618408250168L149.41916640625,252.34780342661938L149.68742343750003,234.8177868396191L151.8334796875,263.767555031102L152.63825078124998,276.37497461493865L153.443021875,276.48751924212786L153.71127890625,286.01649876207676L153.9795359375,269.30747319168404L154.24779296875,286.77049665050083L155.589078125,306.0248906341318L157.735134375,283.89070199387066L158.00339140625,297.31723469355376L159.61293359375,302.54669683916245L161.75898984375002,294.99813996414264L162.5637609375,305.0112571050254L162.83201796875,305.1502254885816L164.7098171875,226.44050112048976L165.51458828125,265.4742109012548L166.05110234375002,283.1758735248505L168.19715859375,282.03686831558815L169.0019296875,303.35180986766306L169.27018671875,311.88816218737736L171.6845,322.73443587552384L172.22101406250002,296.63741428236364L172.48927109375,280.57706620148275L172.75752812500002,298.5657907364993L174.63532734375002,291.5734474343671L175.97661250000002,302.5817571257981L176.51312656250002,318.5719528783021L176.78138359375,308.5873928123308L177.85441171875001,312.2195169932502L179.195696875,322.68429556487126L179.46395390625003,319.4399486720013L180.26872500000002,322.68361340402885L181.87826718750003,321.9972429500347L182.14652421875002,314.2321514847115L182.68303828125002,324.31378334669785L183.487809375,297.8304555211694L184.02432343750002,282.58695308199617L184.29258046875003,303.1866532660137L184.82909453125,318.69025430990604L185.36560859374998,326.67970691602875L185.633865625,315.7822878561627L187.51166484375,295.3515803854979L189.65772109374998,298.94086406212296L189.925978125,306.26489275046947L190.19423515625,306.53192806253094L191.26726328125,315.08638275469895L193.94983359375001,324.0435989600089L194.218090625,325.56090977533L194.7546046875,317.51180598516595L195.8276328125,313.2586387160182L196.63240390625,317.9857735121571L196.9006609375,324.64927681657275L197.16891796875,308.4609094959851L197.9736890625,314.4142342164861L201.19277343750002,311.38030124368083L202.802315625,288.03501742015703L203.60708671875,293.6261517686141L204.14360078125,294.7289884086611L204.41185781250002,311.03836963551214L204.94837187500002,320.22606134400945L206.0214,313.74345048260403L207.094428125,326.6002179423474L207.6309421875,326.3661557115152L208.97222734375,319.6690194281824L212.72782578125003,324.50925846401844L214.06911093750003,309.85581663948693L214.33736796875002,319.77462839373055L215.41039609375002,330.6896436754816L215.678653125,146.70700921545804L216.75168125000002,219.89356877100036L217.01993828125003,248.94507505842316L217.55645234375,278.5852629973719L218.3612234375,281.9863316834507L219.70250859375,269.01588321251893L219.97076562499998,260.7799306211929L220.23902265625,274.6448573025236L221.5803078125,286.36792270984597L221.84856484375,296.9931991880583L222.116821875,302.3642331485551L222.92159296875,306.37491477278485L225.33590625,312.2145829629425L225.8724203125,317.9157482735562L227.4819625,324.28809926490135L229.0915046875,320.5243430337782L229.35976171875,309.17689418933975L230.96930390625002,322.06466542037305L231.774075,329.5705488239181L232.84710312500002,272.66040029943036L233.92013125,298.70109080300097L234.4566453125,313.6251354954165L235.5296734375,281.92650582176907L235.79793046875002,292.05247614916306L236.0661875,296.95744663293186L236.60270156250002,293.4584566674863L237.94398671875,309.7206910219465L239.285271875,318.7734674473608L239.55352890625002,297.90996590945485L239.8217859375,307.181561746359L243.84564140625002,323.9986756393275L245.72344062500002,331.72787869996927L247.33298281250003,322.737819847295L247.60123984375002,323.23887875818303L248.13775390625003,329.8161301217396L248.67426796875003,331.965806059157L249.74729609375004,334.94607380688427L252.16160937499998,313.970991230635L252.6981234375,323.0104245218736L252.96638046875,325.88602345690407L253.7711515625,334.3775759429054L255.38069375,332.2431430658556L257.52675,333.9904514880161L257.79500703125,331.3627187767335L258.599778125,306.28268773839454L258.86803515625,313.7429843938154L261.2823484375,328.0974748754648L261.55060546875,322.6180065553541L264.5014328125,319.3479577695688L265.30620390625,316.6374111305226L265.5744609375,326.9607903770271L266.110975,320.0648197856543L266.64748906250003,301.7200435263778L270.4030875,314.88208884375484L271.74437265625,320.2896320286027L272.28088671874997,326.76890627651534L273.0856578125,322.1111251678613L273.622171875,320.18177537718697L274.96345703125,325.70539596173074L275.23171406250003,322.11612761182L276.84125625,329.34043103553296L277.37777031250005,304.9244623494658L277.64602734375,318.0696674255041L278.18254140625,305.92429462146475L278.4507984375,314.85562219728723L279.25556953125,319.1410038806248L279.79208359374996,305.33228777140533L281.13336875000005,328.98900572499394L281.40162578125,330.1114245894001L283.81593906250004,334.76022185075294L284.352453125,336.6914744050583L285.42548125,340.0757788939047L285.69373828125,347.6322930382683L285.96199531250005,343.1891289746957L287.0350234375,340.8512440030162L288.1080515625,342.34796979917064L288.37630859375,317.05401949752485L289.1810796875,321.3909937898464L289.71759375000005,319.518715147451L289.98585078125,318.25226293262375L290.2541078125,329.06421483643106L290.52236484375,324.6178151566355L290.79062187500006,336.7715724944215L291.05887890625,334.87967953915245L291.59539296875,341.67623521388475L291.86365,322.22021421691323L293.20493515625003,318.33794449972106L293.47319218750005,319.03852576471894L294.54622031250005,316.09190211701247L295.35099140625,318.0950528741351L295.88750546875,331.90524916678163L297.49704765625,333.2233846766852L298.03356171875004,332.10819751850715L299.37484687500006,316.7839578770847L300.44787500000007,323.53352512816093L300.71613203125,325.8605499884125L301.25264609375,327.3311961848585L304.47173046875,300.65728930918004L306.34952968749997,316.8460356424839L306.61778671875004,315.0946516399603L307.15430078125,318.0258660213496L307.4225578125,322.70864963046125L307.69081484375,330.1561692990215L307.959071875,332.1195720350488L308.4955859375,322.97262112592125L309.30035703125003,328.155782906645L310.37338515625004,328.9975245923401L310.6416421875,315.2995203413924L311.7146703125,300.3782173282918L312.51944140625,305.0195619568768L313.59246953125,303.71695766150873L314.397240625,320.56595349556824L314.66549765625,319.0725503088498L314.93375468749997,325.4761693907657L315.20201171875004,324.01629246801735L315.47026875,327.531260065089L316.0067828125,328.96072655297996L316.27503984375005,332.9327579236025L316.543296875,339.57042188819213L317.34806796875,318.4957575946276L317.616325,326.362333306624L317.88458203125003,322.1429673685353L318.42109609375,332.7008141324486L318.95761015625004,316.9879687707298L319.2258671875,319.89492114335997L321.10366640625006,333.82420797716003L321.9084375,333.6869616019287L322.981465625,340.8673075594374L323.78623671875005,337.9267083990628L324.32275078125,338.8097640043662L324.85926484375005,330.30897654093303L325.93229296875006,332.6167372021231L327.00532109375,300.85527764676925L327.8100921875,304.0823697131675L328.07834921875,313.5654489314306L328.34660625,319.59437312710105L328.61486328125005,330.92221255319015L330.22440546875004,335.5686733967398L331.83394765625,330.00144331731406L332.37046171875005,340.57661374522723L332.63871875,339.9213331216052L333.711746875,329.78523474574934L334.51651796875007,319.0290461346624L334.784775,327.2354813237062L335.58954609374996,332.12844238262466L335.85780312500003,330.1675491003393L336.12606015625,324.82664903808825L336.66257421874997,325.54699267763743L337.19908828125,329.02076692870565L338.80863046875,323.83605581748606L339.61340156250003,321.9939814938791L339.88165859375,328.1270796617083L340.68642968750004,319.614959525015L340.95468671875,316.25824943532643L341.22294375,314.62745296832645L341.75945781250005,300.26870219634014L342.02771484375,312.7526411338212L343.63725703125,314.27553883070453L344.71028515625,311.20400933283724L344.9785421875,323.9824775991992L345.51505625000004,326.6182252251003L346.0515703125,328.60121970935694L346.58808437500005,338.9737555782505L346.85634140625,333.3810248481206L347.1245984375,308.26647235660255L347.39285546875,311.6831991165059L347.6611125,319.8250051458848L348.46588359375,329.95279884392386L349.00239765625,325.51784877941964L349.53891171875,329.4383956026326L350.34368281250005,313.18554770470735L350.880196875,324.0452739024756L351.14845390625,300.18328001645796L351.41671093750006,324.3821127778479L353.02625312500004,333.77284479866887L353.29451015625,326.3755605383543L353.83102421875,329.1686491428114L354.6357953125,335.2363248555175L355.70882343750003,262.55175828268L356.51359453125,288.05494005413107L357.318365625,302.3071610824143L357.58662265625003,303.46908372682253L358.12313671875,312.77481622720904L358.65965078125,326.66308480834056L359.19616484375,323.80522019665494L360.53745000000004,331.7405215389262L361.34222109375,331.45312130703246L361.87873515625,320.0764427465091L365.902590625,285.59114666075845L366.97561875,306.50306984558506L367.51213281250006,319.5403501543556L367.78038984375,324.25905055058263L368.85341796875,316.9722332002523L369.38993203125,323.11359920750874L369.6581890625,332.0647183973639L370.46296015625,329.4157871092124L370.99947421875004,315.26275979388333L371.53598828125,329.25025118203774L372.340759375,333.93345113946754L372.8772734375,335.7340583848846L373.14553046875,340.9662804923523L373.68204453125,341.5500549097764L374.75507265625004,335.7227779665203L375.82810078125004,341.1946357895765L377.7059,305.6436650520464L377.97415703125,314.3955240719391L378.2424140625,324.4979030996949L378.51067109375003,331.67403949627294L379.04718515625,335.7001577350571L379.85195625,312.37536420290775L380.12021328125,315.6858993230833L380.3884703125,316.35166751627895L381.19324140625,308.74516050389275L381.4614984375,322.46449346895866L381.72975546875,323.88235408730156L381.9980125,321.43441473643094L384.14406875,330.8814599095457L384.41232578125005,330.55242986022137L385.217096875,334.44194102608384L387.09489609375004,322.0275655447834L387.89966718750003,319.2740457424491L390.0457234375,323.80846633196353L390.31398046875006,314.49435141558405L390.85049453125004,320.6157522412635L391.1187515625,331.56342083290207L391.38700859375,334.1129625550077L392.1917796875,287.40131575796664L392.46003671875,312.73256727086374L392.99655078125005,320.3478390854211L393.53306484375,314.6114444993238L394.87435,317.63929417637127L395.14260703125007,327.61969052299145L396.21563515625,325.76774858295823L396.48389218750003,310.5620039342106L396.75214921875005,315.47856217983264L397.02040625,320.4964238519577L397.82517734375006,303.1792094246279L398.093434375,319.8912296919133L398.36169140625003,325.3605365028179L399.1664625,321.4330300121292L399.43471953125004,320.3186803450787L401.58077578125005,317.5724089047342L402.65380390625,318.67351498941093L403.19031796875,325.67369334608685L403.72683203125,328.2911488045542L403.9950890625,317.29590618387596L404.79986015624996,329.6074916879214L405.60463125,335.2875795075555L405.87288828124997,332.9816713199572L406.14114531250004,337.67045900815066L406.40940234375,337.88975743475225L407.2141734375,335.6019940523333L409.3602296875,333.0731656414419L409.89674375000004,336.5742761384073L410.4332578125,331.99751456191547L410.96977187500005,317.43016687796757L411.23802890625,321.42993113722815L412.0428,335.41151762136997L412.57931406250003,338.5511904234109L413.115828125,342.5184907017136L414.45711328125,324.2877480287145L416.33491250000003,328.2473132881132L416.60316953125,320.2861552824806L417.40794062500004,329.3548620840714L417.9444546875,327.31769871650306L419.55399687500005,332.8004878146407L419.82225390625,326.1550596982016L420.35876796875,334.18224387478807L420.89528203125,323.9784388661436L421.96831015625,330.9003082664839L423.04133828125003,335.86835392825L423.57785234375,325.35148772703917L424.91913750000003,318.570237052418L425.18739453125,307.61174324007794L425.45565156250007,318.49768700577664L427.33345078125,325.83771813670836L427.6017078125,331.88343204315527L429.21125000000006,322.9894072713483L430.28427812500007,328.767289599566L430.55253515625003,322.5278464772367L430.82079218750005,317.83560186202374L433.23510546875,328.13199262895546L433.77161953125,343.5833389227293L434.57639062500004,342.88402789157175L436.18593281249997,342.05560478892187L436.45418984375004,332.63970810170724L437.52721796875,331.418720160565L438.3319890625,338.3383401348704L438.60024609375,338.45717312912564L438.868503125,338.27712535075597L439.67327421875,340.21977820191796L442.6241015625,339.11762899408484L443.42887265625,342.01884160852944L444.23364375,345.8381696037111L444.50190078125,328.1469313530453L444.7701578125,331.0206414464775L445.57492890625,303.8660900250605L445.8431859375,317.60059699813377L446.11144296875005,312.05385465661595L450.1352984375,323.1838738475636L450.94006953125006,312.6641624105609L451.47658359375004,322.3152847316115L451.744840625,325.0472846695863L452.2813546875,316.19888478929295L452.54961171875004,327.0772214198976L453.3543828125,334.1833722139983L454.15915390625,339.19050911340645L454.4274109375,306.76481522021146L454.963925,318.40957718562885L455.5004390625,327.98398685272946L456.036953125,326.3478415385536L456.5734671875,314.1328634856864L457.37823828125005,326.53001104691634L457.91475234375,326.90928999191595L458.45126640625006,334.5746348052917L458.98778046875003,337.7651227894576L459.52429453125006,339.1349219643299L460.06080859375004,338.23298989580087L462.74337890625003,316.20614089542903L463.81640703125004,326.6147161071621L464.88943515625004,329.73397217132054L465.1576921875,333.5360451654836L465.42594921875,336.68549909887184L465.96246328125005,341.44788530950893L466.76723437500004,340.52589281887896L467.57200546875004,339.90919691352036L468.10851953125007,336.4598351374281L468.913290625,339.59206597603105L470.52283281250004,316.6794238682394L471.059346875,301.3165567302852L471.59586093750005,311.5277750350194L471.86411796875,327.57234490920706L472.6688890625,313.41277116741503L472.93714609375,312.6750328990167L473.20540312500003,325.71463350899427L474.01017421874997,333.1084322002376L476.15623046875,304.6650959491836L477.497515625,311.54681371292116L478.03402968750004,316.07610693889575L479.643571875,305.05938514196833L480.7166,316.85649905411117L480.98485703125,327.051338509897L481.2531140625,328.20693332656333L481.52137109375,336.0437256682826L483.13091328125,341.9739983432837L483.93568437500005,327.57921030508237L485.81348359375,326.24711935618245L486.34999765625,323.72843005530603L487.15476875,323.80083927475954L487.42302578125003,327.82057203231375L488.227796875,333.6543705108451L488.49605390625,330.50725040425317L489.83733906250006,334.14546407481373L490.10559609375,338.7282548977157L490.37385312500004,339.44568653702066L491.17862421875003,315.21182487950983L491.9833953125,319.61012033284794L492.25165234375004,324.51997946298775L492.51990937500005,314.5422442590991L492.78816640625,327.2251534099194L493.05642343750003,333.63778644610323L494.66596562500007,327.3180623678896L496.27550781250005,336.9279755516635L497.88505000000004,337.5720896209219L498.95807812500004,348.50973571647836L499.4945921875001,335.77722177094L500.83587734375004,346.66592638802L501.90890546875,346.3624921242417L503.7867046875,339.2107240306019L504.32321874999997,339.04775415870955L505.12798984375,332.3857804769415L505.66450390625005,325.0866098516997L505.9327609375,325.96661084774036L506.73753203125,322.60768869515664L507.0057890625,333.62099034320494L507.542303125,328.51899419531594L507.81056015625,334.52405875838355L508.61533125,326.81558025760717L513.17570078125,314.780207671026L513.4439578125,313.199891936494L513.7122148437501,326.8192705330198L513.980471875,332.2867309540676L515.0535,334.4452001612154L515.85827109375,336.01272948349117L516.93129921875,319.4393828113088L517.19955625,332.26685238806994L517.4678132812501,326.7335641823592L518.54084140625,324.73583445271805L518.8090984375,334.45807134965304L519.07735546875,328.66854624134515L519.6138695312501,304.94240214138557L520.15038359375,310.082375643905L520.68689765625,322.5195860296027L521.2234117187501,332.1429636005946L523.3694679687501,322.8801837054855L524.710753125,329.14819333547814L524.9790101562501,325.0439689903459L527.3933234375,320.87634111206404L527.66158046875,329.21855256481047L530.6124078125,329.17052706725576L531.95369296875,329.3467342296075L532.7584640625,311.4195627301896L533.0267210937501,315.21683345880564L533.8314921875,329.04672785985343L534.36800625,338.00706069965554L534.6362632812501,331.8479075244364L536.78231953125,328.87484421267555L537.0505765624999,338.3814007702205L537.31883359375,335.71124266230134L537.587090625,337.96329541722116L538.3918617187501,340.4635866439823L538.92837578125,339.76962531015846L539.1966328125,340.26014613419784L539.46488984375,332.23013474927353L541.61094609375,337.0363788402571L542.9522312500001,334.4739332620862L543.22048828125,329.2264245047905L544.025259375,338.59484571783173L545.9030585937501,342.08455620018367L546.43957265625,351.53896472869286L549.12214296875,346.26038434648626L550.4634281250001,348.6753124878784L550.73168515625,343.0399699739206L551.26819921875,345.7271871208104L551.53645625,340.6264256381364L553.1459984375,354.86737017161545L553.4142554687501,344.3062878773888L555.02379765625,345.023357431998L555.2920546875,342.2245559525617L557.7063679687501,343.4944375878516L558.77939609375,343.73596430972873L559.31591015625,331.004373716249L560.38893828125,334.62219736194646L562.8032515625,336.3802100360025L563.339765625,321.92861326705525L564.14453671875,322.04429393578897L564.6810507812501,333.4947871434185L564.9493078125,308.6168100794649L566.29059296875,320.6956453074645L567.0953640625,330.12204195755504L568.4366492187501,343.1219060893059L568.97316328125,345.21769098491677L570.04619140625,339.39955628478583L570.58270546875,340.7685429580189L570.8509625,338.79137524991955L571.11921953125,349.52643350181813L571.6557335937499,335.150541662349L572.1922476562501,334.52658765796576L573.5335328125,341.4254803720804L574.3383039062501,335.291791269337L574.87481796875,336.0564392925894L575.6795890625,330.5917131244763L576.48436015625,348.0147916446568L577.55738828125,340.8390852963525L578.362159375,317.331594615515L579.4351875000001,323.36888477564014L579.70344453125,325.0131535319762L579.9717015625,329.6070314916934L581.8495007812501,332.2042040113389L582.38601484375,328.0914961215788L582.92252890625,341.00382672583004L583.7273,342.8245616763926L583.9955570312501,328.4177590164268L585.60509921875,329.06036721848466L585.87335625,337.9467928042989L586.9463843750001,335.3375913148379L588.0194125,339.8720822401L588.82418359375,336.2072340912579L589.0924406250001,338.29740557010064L589.3606976562501,346.02601365673263L589.6289546875,337.9659426330523L590.1654687500001,338.81881827163016L590.9702398437499,347.40905030994L592.8480390625,337.88842507193846L593.11629609375,323.0904302013671L594.4575812500001,329.0245042053514L594.9940953125,319.3413590210602L595.26235234375,329.32591892190334L595.530609375,324.4637572514799L597.94492265625,332.5378737961589L599.0179507812501,336.7186766666707L599.2862078125,339.6440394734199L599.55446484375,341.7675610392206L599.8227218750001,329.70422073258436L600.3592359375,336.4748171809523L601.70052109375,339.54900748589887L601.9687781250001,325.85132856073204L602.5052921875,325.75933067674106L602.77354921875,310.87513187068834L603.04180625,324.35843002587103L603.84657734375,324.3574958020488L604.3830914062501,286.9011655434394L604.6513484375,298.7507739190248L604.91960546875,322.0888051438059L607.33391875,321.1928040612375L608.13868984375,337.12161675067557L610.5530031249999,323.8248809938605L612.1625453125,335.58105099124896L612.43080234375,336.70284385900277L614.0403445312501,338.5080310628051L614.3086015625,351.8620279188097L614.57685859375,326.33162039383427L615.11337265625,328.9799324345441L616.72291484375,337.10827102956944L618.3324570312501,339.0426357297632L618.6007140625001,345.2924156280147L620.7467703125001,340.699418656204L621.01502734375,338.56022337076166L621.8197984375,338.8818736480169L622.62456953125,334.04927056006875L623.6975976562501,350.4223905429248L624.23411171875,345.9084412443971L625.3071398437501,344.93799000246673L626.91668203125,344.21259178278854L627.9897101562501,344.6041540185756L628.2579671875001,346.59105404165933L629.0627382812501,326.8096746971395L629.59925234375,332.20921871219525L630.4040234375001,338.31390899048256L631.4770515625,327.60283224757114L632.013565625,333.48534875232673L632.5500796875001,337.1151040647217L632.8183367187501,334.19937189343307L633.08659375,336.6403979416056L634.9643929687501,336.70221701064554L635.5009070312501,342.8088371774817L635.7691640625001,341.0554075267009L637.37870625,341.2774776302101L637.64696328125,333.3999329933915L637.9152203125001,336.83286072257187L638.451734375,336.25882215167894L638.9882484375,345.69415140932955L642.2073328125001,337.8375937998794L644.6216460937501,335.54821743001224L645.69467421875,333.2400497203848L647.0359593750001,332.56651698650273L647.30421640625,337.8435781014708L648.6455015625,340.95573218474607L648.91375859375,339.39668896879647L649.182015625,330.44181503704726L650.25504375,338.03126130545394L650.52330078125,329.6322084641445L652.1328429687501,331.3234632848627L653.20587109375,336.0421979212121L653.474128125,333.35765413476497L653.74238515625,320.3414520874959L654.2788992187501,323.39445576600286L654.5471562500001,336.6973339450283L655.88844140625,338.56233314267337L656.6932125,341.2111899656215L657.2297265625001,340.02708684483787L658.03449765625,336.2659336988903L658.83926875,332.21516107706884L659.6440398437501,333.7136758875171L660.18055390625,328.0660154925577L661.7900960937501,331.3514789843634L662.058353125,331.87916076273837L662.5948671875001,324.3610330454641L663.13138125,324.34998434311285L665.54569453125,330.61838818506084L665.8139515625,336.51756145970097L666.08220859375,329.8120744531318L666.350465625,343.12108622355385L670.1060640625001,343.1593243461636L671.1790921874999,334.4998737284613L672.2521203125,315.14594119775063L672.52037734375,316.27808644896743L673.3251484374999,311.7415962025417L673.59340546875,314.70252818295717L674.3981765625,320.1588803846732L674.934690625,323.57982649983205L675.4712046875,336.1963577940935L676.8124898437501,337.4053046032712L677.6172609375,338.6697832632351L678.153775,338.20888455705244L678.42203203125,341.67110461921664L678.9585460937501,336.2683763705231L679.7633171875,333.9721397719306L680.56808828125,346.4877549241231L681.1046023437501,333.94553285090274L681.9093734375,319.20784574828764L682.71414453125,319.892295048462L682.9824015625,319.91507107101813L683.78717265625,327.023235398363L684.59194375,336.1767443312856L686.738,317.0935714419873L687.00625703125,310.86139758153575L687.54277109375,315.16612448792614L688.8840562500001,322.52780286902095L690.22534140625,314.0743479569125L690.4935984374999,330.1383067830027L690.7618554687501,339.3761972981863L691.29836953125,336.9358865458671L691.5666265625,337.85022779537655L692.103140625,343.4690755791802L692.6396546875,341.48827059855756L693.4444257812501,332.80905362242873L693.7126828125,331.66135016843333L694.7857109375,336.94540951906436L696.1269960937501,336.237830862952L696.66351015625,338.2246114684459L698.2730523437501,327.8337958975623L698.5413093750001,335.9124709680074L698.80956640625,325.8447694886363L699.0778234375,331.1440990830642L699.3460804687501,326.91189081924915L700.1508515625,324.2786098209486L700.6873656250001,315.8305048822508L701.4921367187501,324.21784665129127L701.76039375,327.0713734186185L702.56516484375,320.00375931798374L703.1016789062501,324.00253459350967L703.6381929687501,323.43798118222446L703.9064500000001,322.89800179435025L704.17470703125,258.96578006737684L705.2477351562501,271.19989325943214L706.32076328125,296.964778339256L706.5890203125,310.4682023338809L706.85727734375,323.8057811002666L707.93030546875,336.65240376834475L708.1985625000001,352.53490489509346L708.7350765625,350.5756524510382L709.00333359375,338.5523691956519L709.53984765625,336.3477060507329L709.8081046875,343.06707929104783L710.0763617187499,342.9804495339738L710.6128757812501,349.0324833279604L710.8811328125,345.6319787407702L711.4176468750001,339.28901817231093L712.2224179687499,338.0613240615914L712.7589320312501,347.8848361780081L713.0271890625,346.20896939627664L714.63673125,356.65585193881134L714.90498828125,352.5333088203527L715.1732453125001,349.4541383854436L716.2462734375,347.81000572209217L716.7827875,348.13176492179895L717.3193015625,332.2017557448342L718.3923296875,338.98165220840605L720.2701289062501,337.7807762512992L721.0749000000001,334.69631411370216L721.6114140625,341.09706744195967L722.147928125,343.51433922964833L722.4161851562501,341.9528633032021L723.48921328125,319.5066934894455L724.02572734375,319.56124844576516L724.293984375,324.4228739551904L724.56224140625,324.42207366300835L725.3670125000001,324.86348474069365L725.6352695312501,329.1663188513089L726.440040625,340.60574115636433L726.70829765625,347.05808625082324L727.5130687500001,345.38372749695606L728.31783984375,343.87019014456854L729.39086796875,335.5815462701128L731.00041015625,340.014720041841L731.2686671875,334.28614086665095L732.0734382812501,325.0449489360494L732.3416953125001,332.99447933335426L732.8782093750001,328.1314251657949L733.4147234375,334.3890063135467L733.68298046875,325.17734184210684L734.21949453125,336.2164825791165L734.4877515625001,328.70520198574593L735.0242656250001,328.0939702445126L735.2925226562501,330.90958476917416L735.5607796875,339.874825231041L735.82903671875,344.48839918548856L736.36555078125,348.1810059759186L736.90206484375,347.10994128067296L737.1703218750001,332.49154437456593L738.24335,341.5391739672201L738.51160703125,334.31327806705895L739.04812109375,331.43153615868886L739.8528921875001,327.47371222753736L740.38940625,337.09301034981326L741.19417734375,339.4717727259589L744.41326171875,330.81332077186727L745.48628984375,314.9999686919403L746.2910609375,323.84439850903067L747.63234609375,334.7856199181799L748.16886015625,335.3616220880251L748.9736312499999,329.7942897290542L750.5831734375,305.24717741207934L750.85143046875,319.31259250440195L751.3879445312501,317.23744885271253L752.192715625,333.62361517569036L752.99748671875,335.52598546821906L753.26574375,334.07763302850145L753.53400078125,340.4002322387343L755.9483140625,348.0883321674983L756.21657109375,351.73289886852695L756.484828125,339.71540116314446L756.7530851562501,338.5284906542296L757.28959921875,341.04032410677246L757.8261132812501,340.95947197507735L758.6308843749999,348.6348857302654L759.9721695312501,345.5694800838675L760.50868359375,340.2818445432425L760.776940625,338.38576554334276L761.0451976562501,351.072640489661L761.3134546875001,347.2208389931328L763.4595109375,310.571325988509L765.87382421875,327.40538445700804L767.215109375,319.04942371335716L769.361165625,318.005175988531L769.6294226562501,321.62262600037144L770.43419375,329.7587040744584L771.507221875,334.5141840189116L772.31199296875,340.62645149816905L773.3850210937501,324.74880594234236L774.1897921875001,330.00230691431966L774.99456328125,342.3689680393478L775.2628203125,340.3612272531686L775.53107734375,343.6294230972269L776.06759140625,339.22318912473554L778.21364765625,333.5899009256529L778.7501617187501,338.972657644356L779.28667578125,334.4277695756781L779.82318984375,335.39504361467L781.164475,337.5390891173468L782.50576015625,339.85325033433486L784.65181640625,330.5798625248706L784.9200734375,330.50434216315426L785.18833046875,338.62742290238134L786.2613585937501,333.1648011327163L787.0661296875,302.6587097504628L787.87090078125,310.79178431252654L790.01695703125,315.7114675492579L790.5534710937501,329.0447670066013L791.62649921875,340.34158225584616L791.89475625,342.89694775578533L792.16301328125,330.15700343246885L792.4312703125,344.783950263898L792.9677843750001,337.06216954070754L793.5042984375001,333.6756221889826L794.30906953125,336.3448988792257L795.1138406250001,339.60982711164564L795.38209765625,332.6725370151703L795.9186117187501,330.1753253484179L796.45512578125,339.12337648007394L798.332925,348.73829560425423L799.405953125,353.0274625437252L799.9424671875001,349.1106229778868L800.4789812500001,341.5125409683299L801.0154953125001,340.1739488329252L801.28375234375,344.94787637771395L801.82026640625,345.24707896141945L802.6250375000001,342.54448631316995L803.1615515625001,339.18266791780474L803.96632265625,338.74936946108414L804.50283671875,347.77726365517924L805.3076078125,342.4369886057391L805.5758648437501,345.85146744272004L805.844121875,333.5261439899524L808.5266921875,329.638073646885L808.79494921875,349.1521392421429L809.33146328125,344.441761231479L809.5997203124999,339.3885208569972L809.8679773437501,331.64434578436664L810.1362343750001,332.72967601336535L810.9410054687501,338.58696656800475L811.2092625,342.7184231787221L811.7457765624999,354.16630262390555L812.55054765625,350.9011057405353L813.0870617187501,341.996913231069L813.62357578125,340.89431165257344L814.16008984375,339.64238139483217L816.574403125,348.7397367506795L816.84266015625,346.9401625974056L817.6474312500001,341.9823888583163L818.1839453125,341.70155970777813L818.720459375,347.9125078033949L819.2569734374999,349.2299884663947L819.7934875000001,331.2310865121573L820.06174453125,323.66265863430107L820.866515625,326.62013581213984L822.4760578125,339.3151972408816L822.7443148437501,341.86819054975456L823.81734296875,346.82868165085654L824.6221140625,341.9159547029532L825.42688515625,342.5460584749604L825.96339921875,338.08735088579135L826.23165625,283.8586911126313L827.3046843750001,301.33357552739665L828.3777125,322.28453640306935L829.1824835937501,312.264788665695L829.4507406250001,333.6605143722499L829.71899765625,334.8832719629966L829.9872546875,337.8554776705217L830.79202578125,331.5826580297431L831.8650539062501,341.151425946708L832.4015679687501,341.44233504140374L833.47459609375,334.20067766165465L833.742853125,337.40697643472197L834.2793671875,341.0348502608279L834.5476242187501,334.2443492764185L835.888909375,333.11258727170065L836.6936804687501,322.33132950777036L836.9619375000001,327.00764725660486L837.4984515625,332.68079118629083L838.034965625,333.79647807299966L838.5714796875,316.6744472743265L838.83973671875,324.35146894356103L839.6445078125,321.8393340618772L839.91276484375,333.08397081959424L840.44927890625,329.5608516052124L841.2540500000001,336.01263947376157L841.5223070312501,342.1114198656856L842.05882109375,341.0053783696745L843.6683632812501,319.7752404635263L844.4731343750001,313.88377188196455L845.27790546875,321.3750218993797L845.5461625,321.70266136737246L846.6191906250001,322.8456990367202L848.2287328125,331.45929565041763L851.71607421875,332.8023359709882L852.78910234375,337.66598448359395L853.3256164062501,319.67457410152144L854.6669015625,326.54148345397476L855.47167265625,330.3336630376572L856.00818671875,319.69581154327625L857.08121484375,319.8801761773356L858.4225000000001,333.21746891183426L859.4955281250001,328.7858084301054L860.5685562500001,337.5491636007302L861.37332734375,332.9055693287549L863.7876406250001,343.4430239058208L865.3971828125,345.99000485148724L868.0797531250001,348.7480909908217L868.3480101562501,345.6214813229747L868.6162671875001,344.40566462633194L869.42103828125,342.01930150138975L869.6892953125,346.7717540215974L871.03058046875,340.78481872587554L871.5670945312501,347.8190779337501L872.64012265625,345.5935115671353L872.9083796875001,337.80430736479343L873.17663671875,342.83763648472535L873.44489375,347.604315964792L873.7131507812501,340.8595101035783L873.9814078125,334.2612398463776L874.24966484375,342.15030636512313L876.39572109375,345.52380182021705L877.2004921875,344.9670679165685L878.810034375,346.0833851505907L879.8830624999999,341.541160729768L882.5656328125001,333.84913417929937L882.8338898437501,342.01341028949344L883.102146875,339.6800249308126L884.9799460937501,335.1145208240084L886.32123125,326.2461216399722L887.12600234375,320.0014611240683L887.6625164062501,329.3314025958917L887.9307734375001,331.512267373965L888.19903046875,337.92479063051894L888.4672875,348.1157666873942L889.540315625,341.9321506015996L891.686371875,335.85689587151245L891.95462890625,337.9529387055484L892.7594,340.8038547084585L893.2959140625001,343.18894231327835L893.56417109375,347.7493644396969L894.10068515625,346.53150682160964L895.4419703125001,352.25077664891046L897.3197695312501,349.9436271616833L897.85628359375,351.9462316225711L898.6610546875,340.1122033259384L899.19756875,336.3772731751205L900.5388539062501,343.91500885334284L901.343625,342.7799491520856L902.1483960937501,340.08204060743384L904.562709375,335.7910699523497L904.8309664062501,338.4762406077191L905.6357375,339.79469132116003L906.44050859375,336.45141135667103L906.97702265625,335.34303553179177L907.2452796875001,322.09733597800295L908.854821875,326.4152504545361L909.6595929687501,333.90963005938255L909.92785,335.5284555496528L910.4643640625001,335.2920870295881L911.26913515625,337.7771750278306L911.8056492187501,337.4515912511831L912.34216328125,348.95581157479L913.146934375,342.1619670147762L913.41519140625,339.4890960123512L913.6834484375,335.99801825548116L915.56124765625,307.22626794946467L916.9025328125001,298.0481011775801L917.439046875,301.7194710702964L917.70730390625,319.081775855895L917.9755609375001,332.2244431645926L919.0485890625001,338.07908653313126L919.3168460937501,339.01539824528686L920.65813125,323.21199108435627L920.92638828125,338.54416365323146L921.99941640625,338.3056427730979L922.8041875,339.91943403909437L923.07244453125,350.29025382695494L923.60895859375,341.0526214984265L925.4867578125001,330.24587226261605L925.75501484375,334.63605025817895L927.0963,342.50577879924873L930.315384375,336.82983746582516L931.65666953125,330.67839734692586L932.1931835937501,329.803502981168L932.461440625,335.1299121392248L933.26621171875,339.4779331797514L933.5344687500001,343.6616398879381L935.9487820312501,346.4983168966004L937.55832421875,354.1230690779809L938.6313523437501,345.6317739137193L938.8996093750001,350.386214415455" style="fill: none;" fill="none"></path></g><g><path stroke="rgb(0, 119, 187)" stroke-width="2px" d="M195.8276328125,309.2827677395609L222.6533359375,312.00281394852533L270.9396015625,314.25512234268547L407.7506875,315.975292912727L472.132375,297.6653070179566L614.3086015625,305.82024248926655L643.816875,310.55644772153005L855.7399296875,313.3601347539948L938.8996093750001,314.83837763952596" style="fill: none;" fill="none"></path></g></g></g></g><g opacity="0.2"><g><g><g><path stroke="rgb(255, 112, 67)" stroke-width="2px" d="M135.73805781250002,53.3722789420022L136.00631484375,45.83786891566382L137.3476,114.55703344610004L138.15237109375002,137.0976444747713L138.420628125,214.3921234210332L139.22539921875,244.1058615181181L139.76191328125,292.1597906615999L140.83494140625,262.1045690112644L144.05402578125,228.041927880711L145.12705390625,83.41274466779498L145.66356796875002,246.78212682406104L146.20008203125002,172.43755943245355L146.4683390625,183.8735757271449L147.004853125,280.7559827301237L148.61439531250002,311.1178579595354L148.88265234375,264.2549641264809L149.15090937500003,145.76708720790015L149.41916640625,308.03580472866696L149.68742343750003,208.52543248070612L151.8334796875,307.1895611948437L152.63825078124998,295.2854125698408L153.443021875,276.6563324795829L153.71127890625,300.309779908922L153.9795359375,244.24413277043232L154.24779296875,312.9649077190293L155.589078125,334.9063994983832L157.735134375,250.68947566880115L158.00339140625,317.457013130188L159.61293359375,310.3908852405018L161.75898984375002,283.6753088235855L162.5637609375,320.030929495891L162.83201796875,305.3586780362659L164.7098171875,108.37592396471234L165.51458828125,324.02477277649774L166.05110234375002,309.7283666994837L168.19715859375,280.3283605310652L169.0019296875,335.32422186599837L169.27018671875,324.692690587706L171.6845,339.003846347332L172.22101406250002,257.4918819798363L172.48927109375,256.4865441123644L172.75752812500002,325.5488775173823L174.63532734375002,281.08493248621625L175.97661250000002,319.0942216581768L176.51312656250002,342.5572465029028L176.78138359375,293.61055271493063L177.85441171875001,317.66770326428946L179.195696875,338.38146342171564L179.46395390625003,314.57342833280563L180.26872500000002,327.5491105020046L181.87826718750003,320.9676872690519L182.14652421875002,302.584514286783L182.68303828125002,339.4362311396334L183.487809375,258.10546378294623L184.02432343750002,259.72169942326013L184.29258046875003,334.0862035420206L184.82909453125,341.94565587573584L185.36560859374998,338.6638858252102L185.633865625,299.4361592663659L187.51166484375,264.7055191795031L189.65772109374998,304.3247895770603L189.925978125,317.2509357829889L190.19423515625,306.93248103062314L191.26726328125,327.918064792951L193.94983359375001,337.4794232679738L194.218090625,327.8368759983116L194.7546046875,305.43815029992L195.8276328125,306.87888781229657L196.63240390625,325.0764757063654L196.9006609375,334.6445317731963L197.16891796875,284.1783585151037L197.9736890625,323.3442212972376L201.19277343750002,306.829401784473L202.802315625,253.01709168487127L203.60708671875,302.0128532912996L204.14360078125,296.3832433687316L204.41185781250002,335.50244147578877L204.94837187500002,334.00759890675545L206.0214,304.01953419049585L207.094428125,345.8853691319625L207.6309421875,326.015062365267L208.97222734375,309.62331500318317L212.72782578125003,331.7696170177725L214.06911093750003,287.87565390268963L214.33736796875002,334.65284602509604L215.41039609375002,347.0621665981081L215.678653125,-129.26694247457715L216.75168125000002,329.67340810431375L217.01993828125003,292.52233448955747L217.55645234375,323.045544905795L218.3612234375,287.08793471256894L219.70250859375,249.56021050612128L219.97076562499998,248.42600173420374L220.23902265625,295.4422473245197L221.5803078125,303.9525208208296L221.84856484375,312.93111390537683L222.116821875,310.42078408930035L222.92159296875,312.39093720912933L225.33590625,320.9740852481789L225.8724203125,326.46749623947676L227.4819625,333.8466257519192L229.0915046875,314.87870868709354L229.35976171875,292.155720922682L230.96930390625002,341.39632226692305L231.774075,340.82937392923566L232.84710312500002,187.29517751269867L233.92013125,337.76212655835684L234.4566453125,336.0112025340398L235.5296734375,234.37856131129797L235.79793046875002,307.2414316402541L236.0661875,304.31490235858496L236.60270156250002,288.209971719318L237.94398671875,334.11404255363675L239.285271875,332.3526320854823L239.55352890625002,266.6147136025959L239.8217859375,321.08895550171536L243.84564140625002,349.2243464787801L245.72344062500002,343.3216832909319L247.33298281250003,309.2527315682835L247.60123984375002,323.99046712451513L248.13775390625003,339.6820071670744L248.67426796875003,335.1903199652831L249.74729609375004,339.4164754284753L252.16160937499998,282.5083673662609L252.6981234375,336.56957445873155L252.96638046875,330.1994218594498L253.7711515625,347.1149046719074L255.38069375,329.0414937502808L257.52675,336.6114141212569L257.79500703125,327.42111970980966L258.599778125,268.6626411808861L258.86803515625,324.93342937694655L261.2823484375,349.62921059793894L261.55060546875,314.3988040751881L264.5014328125,314.4428845908907L265.30620390625,312.5715911719534L265.5744609375,342.4458592467838L266.110975,309.7208638985952L266.64748906250003,274.202879137463L270.4030875,334.6251568198204L271.74437265625,328.4009468058745L272.28088671874997,336.4878176483843L273.0856578125,315.1244535048803L273.622171875,317.28775069117546L274.96345703125,333.99082683854635L275.23171406250003,316.7322250869539L276.84125625,340.1768861711025L277.37777031250005,268.30050932036505L277.64602734375,337.78747503956157L278.18254140625,287.7062354154057L278.4507984375,328.25261356102095L279.25556953125,325.56907640563117L279.79208359374996,284.61921360757617L281.13336875000005,364.47408265537683L281.40162578125,331.7950528860092L283.81593906250004,341.7334177427822L284.352453125,339.5883532365163L285.42548125,345.1522356271744L285.69373828125,358.96706425481375L285.96199531250005,336.52438287933666L287.0350234375,337.34441654549704L288.1080515625,344.5930584934023L288.37630859375,279.11309404505624L289.1810796875,327.8964552283287L289.71759375000005,316.710297183858L289.98585078125,316.35258461038273L290.2541078125,345.2821426921421L290.52236484375,317.9482156369421L290.79062187500006,355.00220850110054L291.05887890625,332.04184010624886L291.59539296875,351.8710687259833L291.86365,293.03618272145593L293.20493515625003,312.51453992393283L293.47319218750005,320.0893976622158L294.54622031250005,311.6719666454527L295.35099140625,321.09977900981903L295.88750546875,352.62054360575144L297.49704765625,335.2005879415406L298.03356171875004,330.43541678124006L299.37484687500006,293.7975984149509L300.44787500000007,333.65787600477535L300.71613203125,329.3510872787899L301.25264609375,329.5371654795276L304.47173046875,260.6464289956623L306.34952968749997,341.12915514243974L306.61778671875004,312.46757563617496L307.15430078125,322.4226875934336L307.4225578125,329.7328250441286L307.69081484375,341.32744880186186L307.959071875,335.0646761390898L308.4955859375,309.2521947622299L309.30035703125003,335.9305255777306L310.37338515625004,330.2601371208827L310.6416421875,294.75251396497094L311.7146703125,277.99626280864084L312.51944140625,311.9815788997544L313.59246953125,301.76305121845667L314.397240625,345.83944724665747L314.66549765625,316.83244552877215L314.93375468749997,335.08159801363945L315.20201171875004,321.82647708389493L315.47026875,332.8037114606963L316.0067828125,331.10492628481654L316.27503984375005,338.89080497953626L316.543296875,349.52691783507663L317.34806796875,286.88376115428076L317.616325,338.16219687461853L317.88458203125003,315.8139184614023L318.42109609375,348.5375842783186L318.95761015625004,293.4187007281515L319.2258671875,324.25534970230524L321.10366640625006,354.71813822786015L321.9084375,333.4810920390818L322.981465625,351.63782649570044L323.78623671875005,333.51580965850087L324.32275078125,340.1343474123213L324.85926484375005,317.55779534578323L325.93229296875006,336.0783781939083L327.00532109375,253.21308831373847L327.8100921875,308.9230078127649L328.07834921875,327.7900677588251L328.34660625,328.6377594206068L328.61486328125005,347.9139716923237L330.22440546875004,342.53836466206445L331.83394765625,321.65059819817543L332.37046171875005,356.4393693870968L332.63871875,338.9384121861723L333.711746875,314.58108718196553L334.51651796875007,302.894763218032L334.784775,339.54513410727185L335.58954609374996,339.4678839710024L335.85780312500003,327.22620917691125L336.12606015625,316.8152989447117L336.66257421874997,326.6275081369612L337.19908828125,334.23142830530804L338.80863046875,316.0589891506566L339.61340156250003,319.2308700084686L339.88165859375,337.32672691345215L340.68642968750004,306.8467793199751L340.95468671875,311.22318430079355L341.22294375,312.1812582678265L341.75945781250005,278.7305760383606L342.02771484375,331.4785495400429L343.63725703125,316.55988537602957L344.71028515625,306.5967150860363L344.9785421875,343.1501799987422L345.51505625000004,330.5718466639519L346.0515703125,331.5757114357418L346.58808437500005,354.53255938159094L346.85634140625,324.9919287529257L347.1245984375,270.59464361932544L347.39285546875,316.8082892563608L347.6611125,332.03771418995325L348.46588359375,345.1444893909825L349.00239765625,318.86542368266316L349.53891171875,335.31921583745213L350.34368281250005,288.80627585781946L350.880196875,340.33486319912805L351.14845390625,264.39028918743134L351.41671093750006,360.6803619199329L353.02625312500004,347.85894282990034L353.29451015625,315.27963414788246L353.83102421875,333.35828204949695L354.6357953125,344.33783842457666L355.70882343750003,153.52490842342377L356.51359453125,326.3097127113077L357.318365625,323.6854926248392L357.58662265625003,305.2119676934348L358.12313671875,326.7334149777889L358.65965078125,347.4954876800378L359.19616484375,319.5184232791265L360.53745000000004,343.643473552333L361.34222109375,331.0220209591919L361.87873515625,303.01142490572397L365.902590625,233.86320253213245L366.97561875,337.87095462282497L367.51213281250006,339.09627061751155L367.78038984375,331.3371011449231L368.85341796875,306.0420071747568L369.38993203125,332.3256482183933L369.6581890625,345.4913971821467L370.46296015625,325.442390176985L370.99947421875004,294.03321882088983L371.53598828125,350.2314882642693L372.340759375,340.95825107561217L372.8772734375,338.4349692530102L373.14553046875,348.81461365355386L373.68204453125,342.4257165359126L374.75507265625004,326.98186255163614L375.82810078125004,349.4024225241608L377.7059,252.3172089457512L377.97415703125,327.52331260177823L378.2424140625,339.6514716413286L378.51067109375003,342.4382440911399L379.04718515625,341.7393350932333L379.85195625,277.38817390468387L380.12021328125,320.65170200334654L380.3884703125,317.35031980607243L381.19324140625,297.3353999853134L381.4614984375,343.0434929165575L381.72975546875,326.0091450148159L381.9980125,317.76250571012497L384.14406875,345.05202766921786L384.41232578125005,330.05888478623496L385.217096875,340.27620777487755L387.09489609375004,303.40600232283276L387.89966718750003,315.14376603894766L390.0457234375,330.61009721623526L390.31398046875006,300.52317904101477L390.85049453125004,329.79785347978276L391.1187515625,347.9849237203598L391.38700859375,337.9372751381662L392.1917796875,217.33384556240503L392.46003671875,350.7294445402092L392.99655078125005,331.77074680725735L393.53306484375,306.0068526201778L394.87435,322.1810686919424L395.14260703125007,342.5902850429217L396.21563515625,322.9898356729084L396.48389218750003,287.75338696108923L396.75214921875005,322.85339954826566L397.02040625,328.02321636014517L397.82517734375006,277.20338778363333L398.093434375,344.95926009284125L398.36169140625003,333.56449671917494L399.1664625,315.54177027609614L399.43471953125004,318.647155844503L401.58077578125005,313.4530017442173L402.65380390625,320.32517411642607L403.19031796875,336.17396088110075L403.72683203125,332.2173319922553L403.9950890625,300.8030422528585L404.79986015624996,348.07486994398965L405.60463125,343.80771123700674L405.87288828124997,329.5228090385596L406.14114531250004,344.70364054044086L406.40940234375,338.2187050746547L407.2141734375,332.17034897870485L409.3602296875,329.2799230251047L409.89674375000004,341.8259418838554L410.4332578125,325.1323721971777L410.96977187500005,295.5791453520457L411.23802890625,327.42957752611903L412.0428,356.3838973475827L412.57931406250003,343.2606996264723L413.115828125,348.4694411191675L414.45711328125,296.94163401921594L416.33491250000003,334.18666117721136L416.60316953125,308.34441827403174L417.40794062500004,342.95792228645746L417.9444546875,324.26195366515054L419.55399687500005,341.0246714618471L419.82225390625,316.18691752354306L420.35876796875,346.2230201396677L420.89528203125,308.67273135317697L421.96831015625,341.2831123669942L423.04133828125003,343.3204224208991L423.57785234375,309.57618842522305L424.91913750000003,308.39836104048624L425.18739453125,291.1740025215679L425.45565156250007,334.82660265432463L427.33345078125,336.84776483310594L427.6017078125,340.95200290282565L429.21125000000006,309.6483701136377L430.28427812500007,337.43411309189264L430.55253515625003,313.16868179374273L430.82079218750005,310.7972349392043L433.23510546875,343.57657877935304L433.77161953125,366.76035836338997L434.57639062500004,341.8350613448355L436.18593281249997,340.812970134947L436.45418984375004,318.51586307088536L437.52721796875,329.5872382488516L438.3319890625,348.71777009632854L438.60024609375,338.6354226205084L438.868503125,338.0070536832015L439.67327421875,343.133757478661L442.6241015625,337.4644051823351L443.42887265625,346.3706605301963L444.23364375,351.56716159648363L444.50190078125,301.61007397704657L444.7701578125,335.33120658662585L445.57492890625,263.134262892935L445.8431859375,338.20235745774374L446.11144296875005,303.73374114433926L450.1352984375,339.87890263398486L450.94006953125006,296.88459525505704L451.47658359375004,336.7919682131873L451.744840625,329.1452845765485L452.2813546875,302.926284968853L452.54961171875004,343.3947263658047L453.3543828125,344.84259840514926L454.15915390625,346.7012144625187L454.4274109375,258.126274380419L454.963925,335.87672013375493L455.5004390625,342.3456013533804L456.036953125,323.89362356728975L456.5734671875,295.8103964063856L457.37823828125005,345.1257323887613L457.91475234375,327.47820840941534L458.45126640625006,346.07265202535524L458.98778046875003,342.5508547657066L459.52429453125006,341.1896207266384L460.06080859375004,336.8800917930073L462.74337890625003,283.16586739487116L463.81640703125004,342.2275789247619L464.88943515625004,334.4128562675582L465.1576921875,339.2391546567281L465.42594921875,341.4096799989541L465.96246328125005,348.59146462546454L466.76723437500004,339.1429040829341L467.57200546875004,338.98415305548247L468.10851953125007,331.2857924732897L468.913290625,344.29041223393546L470.52283281250004,282.3104607065519L471.059346875,278.272256023354L471.59586093750005,326.84460249212054L471.86411796875,351.63919972048865L472.6688890625,292.17341055472696L472.93714609375,311.5684254964193L473.20540312500003,345.2740344239606L474.01017421874997,344.1991302371025L476.15623046875,262.00009157260257L477.497515625,321.86939035852754L478.03402968750004,322.8700467778577L479.643571875,288.53430244657727L480.7166,334.55216992232533L480.98485703125,342.34359769357576L481.2531140625,329.94032555156286L481.52137109375,347.7989141808616L483.13091328125,350.86940735578537L483.93568437500005,305.98702824778024L485.81348359375,324.2489829328325L486.34999765625,319.9503961039914L487.15476875,323.9094531039397L487.42302578125003,333.8501711686452L488.227796875,342.40506822864216L488.49605390625,325.7865702443653L489.83733906250006,339.60278458065454L490.10559609375,345.60244113206863L490.37385312500004,340.52183399597806L491.17862421875003,278.8610323932436L491.9833953125,326.20756351285513L492.25165234375004,331.8847681581974L492.51990937500005,299.57564145326614L492.78816640625,346.24951713614996L493.05642343750003,343.2567360003789L494.66596562500007,317.83847625056904L496.27550781250005,351.3428453273243L497.88505000000004,338.53826072480945L498.95807812500004,364.91620485981304L499.4945921875001,316.6784508526325L500.83587734375004,362.99898331363994L501.90890546875,345.90734072857435L503.7867046875,328.48307189014224L504.32321874999997,338.803299350871L505.12798984375,322.39281995428934L505.66450390625005,314.13785391383703L505.9327609375,327.28661234180134L506.73753203125,317.56930546628104L507.0057890625,350.1409428152773L507.542303125,320.86599997348253L507.81056015625,343.531655602985L508.61533125,315.2528625064426L513.17570078125,296.72714879115426L513.4439578125,310.829418334696L513.7122148437501,347.24833842780856L513.980471875,340.4879215856393L515.0535,337.682903971937L515.85827109375,338.36402346690494L516.93129921875,294.57936280303534L517.19955625,351.5080567532116L517.4678132812501,318.43363187379305L518.54084140625,321.73923985825644L518.8090984375,349.0414266950554L519.07735546875,319.98425857888327L519.6138695312501,269.35318599144614L520.15038359375,317.7923358976841L520.68689765625,341.17540160814923L521.2234117187501,346.57802995708255L523.3694679687501,308.9860138628218L524.710753125,338.55020778046713L524.9790101562501,318.88763247264757L527.3933234375,314.6248992946413L527.66158046875,341.73186974392996L530.6124078125,329.0984888209237L531.95369296875,329.611044973135L532.7584640625,284.528805481063L533.0267210937501,320.9127395517296L533.8314921875,349.7915694614251L534.36800625,351.4475599593586L534.6362632812501,322.6091777616077L536.78231953125,324.4152492450343L537.0505765624999,352.6412356065379L537.31883359375,331.7060055004226L537.587090625,341.3413745496008L538.3918617187501,344.2140234841241L538.92837578125,338.7286833094226L539.1966328125,340.9959273702568L539.46488984375,320.1851176718871L541.61094609375,344.24574497673245L542.9522312500001,330.63026489482985L543.22048828125,321.3551613688469L544.025259375,352.64747753739357L545.9030585937501,347.3191219237116L546.43957265625,365.7205775214566L549.12214296875,338.3425137731764L550.4634281250001,352.29770469996663L550.73168515625,334.58695620298386L551.26819921875,349.7580128411452L551.53645625,332.97528341412544L553.1459984375,376.228786971834L553.4142554687501,328.4646644360489L555.02379765625,346.0989617639118L555.2920546875,338.0263537334071L557.7063679687501,345.39926004078654L558.77939609375,344.09825439254445L559.31591015625,311.9069878260295L560.38893828125,340.0489328304927L562.8032515625,339.0172290470865L563.339765625,300.2512181136343L564.14453671875,322.2178149388896L564.6810507812501,350.6705269548628L564.9493078125,271.29984448353446L566.29059296875,338.81389814946385L567.0953640625,344.2616369326909L568.4366492187501,362.6217022869322L568.97316328125,348.3613683283329L570.04619140625,330.6723542345895L570.58270546875,342.8220229678684L570.8509625,335.82562368777064L571.11921953125,365.62902087966603L571.6557335937499,313.58670390314524L572.1922476562501,333.59065665139093L573.5335328125,351.77381944325236L574.3383039062501,326.0912576152219L574.87481796875,337.203411327468L575.6795890625,322.3946238723066L576.48436015625,374.1494094249275L577.55738828125,330.0755257738961L578.362159375,282.07035859425866L579.4351875000001,332.42482001582783L579.70344453125,327.47955666648016L579.9717015625,336.49784843126935L581.8495007812501,336.09996279080707L582.38601484375,321.92243428693877L582.92252890625,360.3723226322068L583.7273,345.55566410223645L583.9955570312501,306.8075550264782L585.60509921875,330.02427952157126L585.87335625,351.2764311830203L586.9463843750001,331.4237890806463L588.0194125,346.6738186279933L588.82418359375,330.7099618679947L589.0924406250001,341.4326627883646L589.3606976562501,357.6189257866806L589.6289546875,325.8758360975319L590.1654687500001,340.09813172949686L590.9702398437499,360.29439836740494L592.8480390625,323.60748721493616L593.11629609375,300.8934378955099L594.4575812500001,337.92561521132785L594.9940953125,304.8166412446234L595.26235234375,344.3027587731679L595.530609375,317.17051474584474L597.94492265625,344.6490486131774L599.0179507812501,342.9898809724384L599.2862078125,344.03208368354376L599.55446484375,344.95284338792163L599.8227218750001,311.6092102726301L600.3592359375,346.6307118535042L601.70052109375,344.16029294331867L601.9687781250001,305.30481017298166L602.5052921875,325.62133385075464L602.77354921875,288.54883366160925L603.04180625,344.58337725864516L603.84657734375,324.35609446631537L604.3830914062501,230.7166701555252L604.6513484375,316.525186482403L604.91960546875,357.0958519809776L607.33391875,319.84880243738496L608.13868984375,361.01483578483266L610.5530031249999,303.8797773586379L612.1625453125,353.2153059873316L612.43080234375,338.3855331606335L614.0403445312501,341.21581186850864L614.3086015625,371.89302320281666L614.57685859375,288.0360091063711L615.11337265625,332.95240049560863L616.72291484375,349.3007789221075L618.3324570312501,341.9441827800539L618.6007140625001,354.6670854753918L620.7467703125001,333.80992319848804L621.01502734375,335.35143044259814L621.8197984375,339.3643490638998L622.62456953125,326.80036592814656L623.6975976562501,374.98207051720885L624.23411171875,339.13751729660567L625.3071398437501,343.4823131395711L626.91668203125,343.1244944532712L627.9897101562501,345.1914973722564L628.2579671875001,349.5714040762848L629.0627382812501,297.13760568035974L629.59925234375,340.30853473477896L630.4040234375001,347.4709444079134L631.4770515625,311.53621713320416L632.013565625,342.30912350946005L632.5500796875001,342.55973703331415L632.8183367187501,329.82577363650006L633.08659375,340.3019370138645L634.9643929687501,336.79494561420546L635.5009070312501,351.9687674277359L635.7691640625001,338.4252630505297L637.37870625,341.6105827854739L637.64696328125,321.58361603816354L637.9152203125001,341.98225231634245L638.451734375,335.3977642953396L638.9882484375,359.8471452958054L642.2073328125001,326.05275738570424L644.6216460937501,332.1141528752115L645.69467421875,329.7777981559436L647.0359593750001,331.55621788567964L647.30421640625,345.759169773923L648.6455015625,345.6239633096589L648.91375859375,337.058124144872L649.182015625,317.00950413942337L650.25504375,349.415430708064L650.52330078125,317.03362920218046L652.1328429687501,333.8603455159399L653.20587109375,343.12029987573624L653.474128125,329.33083845509424L653.74238515625,300.8171490165922L654.2788992187501,327.9739612837633L654.5471562500001,356.6516512135665L655.88844140625,341.359831939141L656.6932125,345.1844752000438L657.2297265625001,338.25093216366236L658.03449765625,330.624203979969L658.83926875,326.1390021443367L659.6440398437501,335.96144810318947L660.18055390625,319.59452490011853L661.7900960937501,336.27967422207195L662.058353125,332.6706834303008L662.5948671875001,313.0838414695528L663.13138125,324.33341128958597L665.54569453125,340.0209939479828L665.8139515625,345.3663213716613L666.08220859375,319.753843943278L666.350465625,363.08460387918683L670.1060640625001,343.21668153007823L671.1790921874999,321.5106978019079L672.2521203125,286.11504240168466L672.52037734375,317.9763043257925L673.3251484374999,304.9368608329031L673.59340546875,319.14392615358037L674.3981765625,328.3434086872472L674.934690625,328.7112456725703L675.4712046875,355.12115473548573L676.8124898437501,339.2187248170376L677.6172609375,340.56650125318106L678.153775,337.51753649777834L678.42203203125,346.864434712463L678.9585460937501,328.1642839974827L679.7633171875,330.52778487404186L680.56808828125,365.261177652412L681.1046023437501,315.1321997410721L681.9093734375,297.101315094365L682.71414453125,320.9189689987236L682.9824015625,319.9492351048523L683.78717265625,337.68548188938036L684.59194375,349.9070077306694L686.738,288.46881210803986L687.00625703125,301.51313679085837L687.54277109375,321.6232148475117L688.8840562500001,333.57032044066324L690.22534140625,301.3941655887498L690.4935984374999,354.23424502213794L690.7618554687501,353.23303307096165L691.29836953125,333.27542041738826L691.5666265625,339.22173966964084L692.103140625,351.8973472548856L692.6396546875,338.51706312762366L693.4444257812501,319.79022815823555L693.7126828125,329.9397949874401L694.7857109375,344.87149854501087L696.1269960937501,335.1764628787835L696.66351015625,341.20478237668675L698.2730523437501,312.2475725412369L698.5413093750001,348.03048357367516L698.80956640625,310.7432172695796L699.0778234375,339.093093474706L699.3460804687501,320.56357842352656L700.1508515625,320.3286883234978L700.6873656250001,303.15834747420416L701.4921367187501,336.79885930485193L701.76039375,331.35166356960934L702.56516484375,309.40233816703164L703.1016789062501,330.00069750679864L703.6381929687501,322.5911510652966L703.9064500000001,322.0880327125391L704.17470703125,163.0674474769168L705.2477351562501,289.551063047515L706.32076328125,335.6121059589916L706.5890203125,330.72333832581836L706.85727734375,343.8121492498451L707.93030546875,355.92233777046204L708.1985625000001,376.3586565852165L708.7350765625,347.6367737849553L709.00333359375,320.5174443125725L709.53984765625,333.0407113333543L709.8081046875,353.1461391515202L710.0763617187499,342.8505048983627L710.6128757812501,358.11053401894037L710.8811328125,340.53122185998495L711.4176468750001,329.77457731962204L712.2224179687499,336.219782895512L712.7589320312501,362.6201043526332L713.0271890625,343.69516922367944L714.63673125,372.32617575261327L714.90498828125,346.3494941426648L715.1732453125001,344.8353827330801L716.2462734375,345.343806727065L716.7827875,348.61440372135905L717.3193015625,308.3067419793871L718.3923296875,349.15149690376387L720.2701289062501,335.97946231563884L721.0749000000001,330.06962090730667L721.6114140625,350.6981974343459L722.147928125,347.14024691118135L722.4161851562501,339.61064941353266L723.48921328125,285.83743876881067L724.02572734375,319.6430808802446L724.293984375,331.7153122193283L724.56224140625,324.42087322473526L725.3670125000001,325.5256013572216L725.6352695312501,335.62057001723184L726.440040625,357.7648746139473L726.70829765625,356.73660389251177L727.5130687500001,342.8721893661552L728.31783984375,341.5998841159874L729.39086796875,323.14858045842914L731.00041015625,346.6644806994332L731.2686671875,325.693272103866L732.0734382812501,311.1831610401472L732.3416953125001,344.91877492931155L732.8782093750001,320.8368439144558L733.4147234375,343.77537803517447L733.68298046875,311.359845134947L734.21949453125,352.77519368463095L734.4877515625001,317.4382810956902L735.0242656250001,327.1771226326625L735.2925226562501,335.13300655616655L735.5607796875,353.3226859238413L735.82903671875,351.40876011715994L736.36555078125,353.7199161615637L736.90206484375,345.5033442378044L737.1703218750001,310.56394901540546L738.24335,355.11061835620137L738.51160703125,323.47443421681726L739.04812109375,327.1089232961337L739.8528921875001,321.53697633081015L740.38940625,351.52195753322707L741.19417734375,343.03991629017725L744.41326171875,317.8256428407298L745.48628984375,291.2799405720499L746.2910609375,337.11104323466617L747.63234609375,351.1974520319038L748.16886015625,336.2256253427929L748.9736312499999,321.44329119059773L750.5831734375,268.4265089366171L750.85143046875,340.41071514288586L751.3879445312501,314.12473337517844L752.192715625,358.2028646601571L752.99748671875,338.3795409070121L753.26574375,331.9051043689251L753.53400078125,349.8841310540835L755.9483140625,359.62048206064435L756.21657109375,357.1997489200698L756.484828125,321.68915460507077L756.7530851562501,336.7481248908573L757.28959921875,344.80807428558666L757.8261132812501,340.8381937775347L758.6308843749999,360.1480063630475L759.9721695312501,340.97137161427077L760.50868359375,332.3503912323051L760.776940625,335.54164704349307L761.0451976562501,370.1029529091385L761.3134546875001,341.4431367483404L763.4595109375,255.5970564815733L765.87382421875,352.65647215975656L767.215109375,306.5154825978809L769.361165625,316.43880440129175L769.6294226562501,327.0488010181321L770.43419375,341.96282118558884L771.507221875,341.6474039355914L772.31199296875,349.7948527170552L773.3850210937501,300.9323376086023L774.1897921875001,337.88255837228564L774.99456328125,360.9189597268899L775.2628203125,337.3496160738998L775.53107734375,348.53171686331433L776.06759140625,332.61383816599846L778.21364765625,325.139968627029L778.7501617187501,347.0467927224106L779.28667578125,327.6104374726614L779.82318984375,336.8459546731578L781.164475,340.75515737136203L782.50576015625,343.32449215981694L784.65181640625,316.66978081067407L784.9200734375,330.3910616205798L785.18833046875,350.812044011222L786.2613585937501,324.97086847821873L787.0661296875,256.89957267708246L787.87090078125,322.9913961556223L790.01695703125,323.09099240435495L790.5534710937501,349.04471619261636L791.62649921875,357.28680512971346L791.89475625,346.7299960056941L792.16301328125,311.0470869474941L792.4312703125,366.72437051104174L792.9677843750001,325.4794984559218L793.5042984375001,328.5958011613952L794.30906953125,340.34881391459044L795.1138406250001,344.50721946027545L795.38209765625,322.26660187045735L795.9186117187501,326.4295078482893L796.45512578125,352.54545317755804L798.332925,363.1606742905246L799.405953125,359.4612129529317L799.9424671875001,343.2353636291292L800.4789812500001,330.11541795399455L801.0154953125001,338.16606062981816L801.28375234375,352.1087676948971L801.82026640625,345.69588283697766L802.6250375000001,338.4905973407957L803.1615515625001,334.1399403247568L803.96632265625,338.0994217760033L804.50283671875,361.3191049463219L805.3076078125,334.4265760315789L805.5758648437501,350.97318569819134L805.844121875,315.03815881080095L808.5266921875,323.80596813228397L808.79494921875,378.42323763502964L809.33146328125,337.3761942154831L809.5997203124999,331.80866029527454L809.8679773437501,320.02808317542076L810.1362343750001,334.3576713568634L810.9410054687501,347.3729023999638L811.2092625,348.9156080947982L811.7457765624999,371.33812179168063L812.55054765625,346.00331041547986L813.0870617187501,328.64062446686955L813.62357578125,339.2404092848301L814.16008984375,337.7644860082203L816.574403125,362.38576978445053L816.84266015625,344.2408013674948L817.6474312500001,334.5457282496823L818.1839453125,341.2803159819709L818.720459375,357.22892994681996L819.2569734374999,351.2062094608943L819.7934875000001,304.2327335808012L820.06174453125,312.3100168175167L820.866515625,331.0563515788979L822.4760578125,358.3577893839942L822.7443148437501,345.6976805130641L823.81734296875,354.2694183025095L824.6221140625,334.54686428109807L825.42688515625,343.4912141329712L825.96339921875,331.3992895020379L826.23165625,202.515701452891L827.3046843750001,327.5459021495448L828.3777125,353.7109777165784L829.1824835937501,297.23516705963345L829.4507406250001,365.7541029320823L829.71899765625,336.7174083491166L829.9872546875,342.3137862318092L830.79202578125,322.1734285685751L831.8650539062501,355.5045778221554L832.4015679687501,341.8786986834473L833.47459609375,323.3381915920311L833.742853125,342.21642459432286L834.2793671875,346.47666099998685L834.5476242187501,324.0585977998045L835.888909375,331.41494426462384L836.6936804687501,306.15944286187494L836.9619375000001,334.0221238798565L837.4984515625,341.1905070808199L838.034965625,335.4700084030628L838.5714796875,290.99140107631683L838.83973671875,335.8670014474127L839.6445078125,318.0711317393515L839.91276484375,349.9509259561698L840.44927890625,324.2761727836397L841.2540500000001,345.6903212765853L841.5223070312501,351.2595904535717L842.05882109375,339.34631612565784L843.6683632812501,287.930033604304L844.4731343750001,305.046569009622L845.27790546875,332.6118969255024L845.5461625,322.1941205693616L846.6191906250001,324.5602555407418L848.2287328125,344.37969057096376L851.71607421875,334.8168964518441L852.78910234375,344.96145725250244L853.3256164062501,292.6874585284127L854.6669015625,336.84184748265477L855.47167265625,336.02193241318065L856.00818671875,303.7390343017048L857.08121484375,320.15672312842474L858.4225000000001,353.22340801358223L859.4955281250001,322.1383177075121L860.5685562500001,350.6941963566674L861.37332734375,325.9401779207918L863.7876406250001,359.2492057714197L865.3971828125,349.8104762699869L868.0797531250001,352.8852201998234L868.3480101562501,340.9315668212043L868.6162671875001,342.5819395813677L869.42103828125,338.4397568139765L869.6892953125,353.9004328019089L871.03058046875,331.80441578229266L871.5670945312501,358.370466745562L872.64012265625,342.25516201721297L872.9083796875001,326.1205010612806L873.17663671875,350.38763016462326L873.44489375,354.754335184892L873.7131507812501,330.74230131175784L873.9814078125,324.3638344605764L874.24966484375,353.9839061432415L876.39572109375,350.58404500285786L877.2004921875,344.1319670610958L878.810034375,347.757861001624L879.8830624999999,334.72782409853403L882.5656328125001,322.3110943535964L882.8338898437501,354.2598244547844L883.102146875,336.17994689279135L884.9799460937501,328.26626466380225L886.32123125,312.9435228639179L887.12600234375,310.6344703502125L887.6625164062501,343.3263148036268L887.9307734375001,334.78356454107495L888.19903046875,347.5435755153497L888.4672875,363.4022307727072L889.540315625,332.6567264729076L891.686371875,326.74401377638185L891.95462890625,341.0970029566023L892.7594,345.08022871282367L893.2959140625001,346.7665737205082L893.56417109375,354.5899976293246L894.10068515625,344.7047203944789L895.4419703125001,360.82968138986166L897.3197695312501,346.4829029308425L897.85628359375,354.95013831390276L898.6610546875,322.3611608809895L899.19756875,330.77487794889345L900.5388539062501,355.22161237067644L901.343625,341.0773596001996L902.1483960937501,336.0351777904564L904.562709375,329.3546139697234L904.8309664062501,342.5039965907733L905.6357375,341.7723673913214L906.44050859375,331.43649140993756L906.97702265625,333.6804717944728L907.2452796875001,302.2287866473198L908.854821875,332.89212216933566L909.6595929687501,345.1511994666523L909.92785,337.9566937850581L910.4643640625001,334.93753424949114L911.26913515625,341.50480702519417L911.8056492187501,336.96321558621196L912.34216328125,366.2121420602004L913.146934375,331.9712001747555L913.41519140625,335.4797895087136L913.6834484375,330.7614016201761L915.56124765625,264.06864249043997L916.9025328125001,284.28085101975336L917.439046875,307.2265259093708L917.70730390625,345.1252330342929L917.9755609375001,351.9384441276391L919.0485890625001,346.8610515859392L919.3168460937501,340.41986581352023L920.65813125,299.50688034296036L920.92638828125,361.5424225065443L921.99941640625,337.94786145289737L922.8041875,342.34012093808917L923.07244453125,365.84648350874585L923.60895859375,327.1961730056339L925.4867578125001,314.03574840890036L925.75501484375,341.2213172515233L927.0963,354.3103716108534L930.315384375,328.31592546568976L931.65666953125,321.451237168577L932.1931835937501,328.49116143253116L932.461440625,343.11952587631015L933.26621171875,345.99996474054126L933.5344687500001,349.9371999502182L935.9487820312501,350.7533324095938L937.55832421875,365.5601973500517L938.6313523437501,332.894831167327L938.8996093750001,357.5178751680586" style="fill: none;" fill="none"></path></g><g><path stroke="rgb(0, 119, 187)" stroke-width="2px" d="M195.8276328125,309.2827677395609L222.6533359375,313.634841673904L270.9396015625,316.4173384010792L407.7506875,317.9982135030958L472.132375,273.75978943374423L614.3086015625,317.10145402285787L643.816875,317.3292969829506L855.7399296875,317.4479373627239L938.8996093750001,317.01849876178636" style="fill: none;" fill="none"></path></g></g></g></g></g><g><g opacity="0.293957"><span fill="rgb(0, 0, 0)" stroke="none" stroke-width="1px">Alt + Scroll to Zoom</span></g></g></g><g transform="translate(41, 377)" clip-path="url(#clip_1)"><clipPath id="clip_1"><rect width="1073" height="23"></rect></clipPath><g><g><line x1="0" y1="0" x2="0" y2="5" style="visibility: inherit;" fill="rgb(0, 0, 0)" stroke="rgb(204, 204, 204)" stroke-width="1px"></line><line x1="134.128515625" y1="0" x2="134.128515625" y2="5" style="visibility: inherit;" fill="rgb(0, 0, 0)" stroke="rgb(204, 204, 204)" stroke-width="1px"></line><line x1="268.25703125" y1="0" x2="268.25703125" y2="5" style="visibility: inherit;" fill="rgb(0, 0, 0)" stroke="rgb(204, 204, 204)" stroke-width="1px"></line><line x1="402.38554687500005" y1="0" x2="402.38554687500005" y2="5" style="visibility: inherit;" fill="rgb(0, 0, 0)" stroke="rgb(204, 204, 204)" stroke-width="1px"></line><line x1="536.5140625" y1="0" x2="536.5140625" y2="5" style="visibility: inherit;" fill="rgb(0, 0, 0)" stroke="rgb(204, 204, 204)" stroke-width="1px"></line><line x1="670.642578125" y1="0" x2="670.642578125" y2="5" style="visibility: inherit;" fill="rgb(0, 0, 0)" stroke="rgb(204, 204, 204)" stroke-width="1px"></line><line x1="804.7710937500001" y1="0" x2="804.7710937500001" y2="5" style="visibility: inherit;" fill="rgb(0, 0, 0)" stroke="rgb(204, 204, 204)" stroke-width="1px"></line><line x1="938.8996093750001" y1="0" x2="938.8996093750001" y2="5" style="visibility: inherit;" fill="rgb(0, 0, 0)" stroke="rgb(204, 204, 204)" stroke-width="1px"></line><line x1="1073.028125" y1="0" x2="1073.028125" y2="5" style="visibility: inherit;" fill="rgb(0, 0, 0)" stroke="rgb(204, 204, 204)" stroke-width="1px"></line></g><g transform="translate(0, 8)"><text x="0" y="0" dx="0em" dy="0.95em" style="text-anchor: middle; visibility: hidden; font-family: Roboto, sans-serif; font-size: 12px; font-weight: 200;" fill="rgb(33, 33, 33)" stroke="none" stroke-width="1px">-50k</text><text x="134.128515625" y="0" dx="0em" dy="0.95em" style="text-anchor: middle; visibility: inherit; font-family: Roboto, sans-serif; font-size: 12px; font-weight: 200;" fill="rgb(33, 33, 33)" stroke="none" stroke-width="1px">0</text><text x="268.25703125" y="0" dx="0em" dy="0.95em" style="text-anchor: middle; visibility: inherit; font-family: Roboto, sans-serif; font-size: 12px; font-weight: 200;" fill="rgb(33, 33, 33)" stroke="none" stroke-width="1px">50k</text><text x="402.38554687500005" y="0" dx="0em" dy="0.95em" style="text-anchor: middle; visibility: inherit; font-family: Roboto, sans-serif; font-size: 12px; font-weight: 200;" fill="rgb(33, 33, 33)" stroke="none" stroke-width="1px">100k</text><text x="536.5140625" y="0" dx="0em" dy="0.95em" style="text-anchor: middle; visibility: inherit; font-family: Roboto, sans-serif; font-size: 12px; font-weight: 200;" fill="rgb(33, 33, 33)" stroke="none" stroke-width="1px">150k</text><text x="670.642578125" y="0" dx="0em" dy="0.95em" style="text-anchor: middle; visibility: inherit; font-family: Roboto, sans-serif; font-size: 12px; font-weight: 200;" fill="rgb(33, 33, 33)" stroke="none" stroke-width="1px">200k</text><text x="804.7710937500001" y="0" dx="0em" dy="0.95em" style="text-anchor: middle; visibility: inherit; font-family: Roboto, sans-serif; font-size: 12px; font-weight: 200;" fill="rgb(33, 33, 33)" stroke="none" stroke-width="1px">250k</text><text x="938.8996093750001" y="0" dx="0em" dy="0.95em" style="text-anchor: middle; visibility: inherit; font-family: Roboto, sans-serif; font-size: 12px; font-weight: 200;" fill="rgb(33, 33, 33)" stroke="none" stroke-width="1px">300k</text><text x="1073.028125" y="0" dx="0em" dy="0.95em" style="text-anchor: middle; visibility: hidden; font-family: Roboto, sans-serif; font-size: 12px; font-weight: 200;" fill="rgb(33, 33, 33)" stroke="none" stroke-width="1px">350k</text></g><line x1="0" y1="0" x2="1073.028125" y2="0" fill="rgb(0, 0, 0)" stroke="rgb(204, 204, 204)" stroke-width="1px"></line></g></g></g></g></svg>