<svg viewBox="0 0 1114.2000732421875 400" xmlns="http://www.w3.org/2000/svg"><g><g><g><g><g><line x1="72.34375" y1="377" x2="67.34375" y2="377" style="visibility: inherit;" fill="rgb(0, 0, 0)" stroke="rgb(204, 204, 204)" stroke-width="1px"></line><line x1="72.34375" y1="350.0714285714287" x2="67.34375" y2="350.0714285714287" style="visibility: inherit;" fill="rgb(0, 0, 0)" stroke="rgb(204, 204, 204)" stroke-width="1px"></line><line x1="72.34375" y1="323.1428571428574" x2="67.34375" y2="323.1428571428574" style="visibility: inherit;" fill="rgb(0, 0, 0)" stroke="rgb(204, 204, 204)" stroke-width="1px"></line><line x1="72.34375" y1="296.2142857142861" x2="67.34375" y2="296.2142857142861" style="visibility: inherit;" fill="rgb(0, 0, 0)" stroke="rgb(204, 204, 204)" stroke-width="1px"></line><line x1="72.34375" y1="269.28571428571485" x2="67.34375" y2="269.28571428571485" style="visibility: inherit;" fill="rgb(0, 0, 0)" stroke="rgb(204, 204, 204)" stroke-width="1px"></line><line x1="72.34375" y1="242.35714285714258" x2="67.34375" y2="242.35714285714258" style="visibility: inherit;" fill="rgb(0, 0, 0)" stroke="rgb(204, 204, 204)" stroke-width="1px"></line><line x1="72.34375" y1="215.4285714285713" x2="67.34375" y2="215.4285714285713" style="visibility: inherit;" fill="rgb(0, 0, 0)" stroke="rgb(204, 204, 204)" stroke-width="1px"></line><line x1="72.34375" y1="188.5" x2="67.34375" y2="188.5" style="visibility: inherit;" fill="rgb(0, 0, 0)" stroke="rgb(204, 204, 204)" stroke-width="1px"></line><line x1="72.34375" y1="161.5714285714287" x2="67.34375" y2="161.5714285714287" style="visibility: inherit;" fill="rgb(0, 0, 0)" stroke="rgb(204, 204, 204)" stroke-width="1px"></line><line x1="72.34375" y1="134.64285714285742" x2="67.34375" y2="134.64285714285742" style="visibility: inherit;" fill="rgb(0, 0, 0)" stroke="rgb(204, 204, 204)" stroke-width="1px"></line><line x1="72.34375" y1="107.71428571428612" x2="67.34375" y2="107.71428571428612" style="visibility: inherit;" fill="rgb(0, 0, 0)" stroke="rgb(204, 204, 204)" stroke-width="1px"></line><line x1="72.34375" y1="80.78571428571388" x2="67.34375" y2="80.78571428571388" style="visibility: inherit;" fill="rgb(0, 0, 0)" stroke="rgb(204, 204, 204)" stroke-width="1px"></line><line x1="72.34375" y1="53.857142857142584" x2="67.34375" y2="53.857142857142584" style="visibility: inherit;" fill="rgb(0, 0, 0)" stroke="rgb(204, 204, 204)" stroke-width="1px"></line><line x1="72.34375" y1="26.928571428571292" x2="67.34375" y2="26.928571428571292" style="visibility: inherit;" fill="rgb(0, 0, 0)" stroke="rgb(204, 204, 204)" stroke-width="1px"></line><line x1="72.34375" y1="0" x2="67.34375" y2="0" style="visibility: inherit;" fill="rgb(0, 0, 0)" stroke="rgb(204, 204, 204)" stroke-width="1px"></line></g><g transform="translate(62.34375, 0)"><text x="0" y="377" dx="0em" dy="0.3em" style="text-anchor: end; visibility: hidden; font-family: Roboto, sans-serif; font-size: 12px; font-weight: 200;" fill="rgb(33, 33, 33)" stroke="none" stroke-width="1px">0.0285</text><text x="0" y="350.0714285714287" dx="0em" dy="0.3em" style="text-anchor: end; visibility: inherit; font-family: Roboto, sans-serif; font-size: 12px; font-weight: 200;" fill="rgb(33, 33, 33)" stroke="none" stroke-width="1px">0.0286</text><text x="0" y="323.1428571428574" dx="0em" dy="0.3em" style="text-anchor: end; visibility: inherit; font-family: Roboto, sans-serif; font-size: 12px; font-weight: 200;" fill="rgb(33, 33, 33)" stroke="none" stroke-width="1px">0.0287</text><text x="0" y="296.2142857142861" dx="0em" dy="0.3em" style="text-anchor: end; visibility: inherit; font-family: Roboto, sans-serif; font-size: 12px; font-weight: 200;" fill="rgb(33, 33, 33)" stroke="none" stroke-width="1px">0.0288</text><text x="0" y="269.28571428571485" dx="0em" dy="0.3em" style="text-anchor: end; visibility: inherit; font-family: Roboto, sans-serif; font-size: 12px; font-weight: 200;" fill="rgb(33, 33, 33)" stroke="none" stroke-width="1px">0.0289</text><text x="0" y="242.35714285714258" dx="0em" dy="0.3em" style="text-anchor: end; visibility: inherit; font-family: Roboto, sans-serif; font-size: 12px; font-weight: 200;" fill="rgb(33, 33, 33)" stroke="none" stroke-width="1px">0.029</text><text x="0" y="215.4285714285713" dx="0em" dy="0.3em" style="text-anchor: end; visibility: inherit; font-family: Roboto, sans-serif; font-size: 12px; font-weight: 200;" fill="rgb(33, 33, 33)" stroke="none" stroke-width="1px">0.0291</text><text x="0" y="188.5" dx="0em" dy="0.3em" style="text-anchor: end; visibility: inherit; font-family: Roboto, sans-serif; font-size: 12px; font-weight: 200;" fill="rgb(33, 33, 33)" stroke="none" stroke-width="1px">0.0292</text><text x="0" y="161.5714285714287" dx="0em" dy="0.3em" style="text-anchor: end; visibility: inherit; font-family: Roboto, sans-serif; font-size: 12px; font-weight: 200;" fill="rgb(33, 33, 33)" stroke="none" stroke-width="1px">0.0293</text><text x="0" y="134.64285714285742" dx="0em" dy="0.3em" style="text-anchor: end; visibility: inherit; font-family: Roboto, sans-serif; font-size: 12px; font-weight: 200;" fill="rgb(33, 33, 33)" stroke="none" stroke-width="1px">0.0294</text><text x="0" y="107.71428571428612" dx="0em" dy="0.3em" style="text-anchor: end; visibility: inherit; font-family: Roboto, sans-serif; font-size: 12px; font-weight: 200;" fill="rgb(33, 33, 33)" stroke="none" stroke-width="1px">0.0295</text><text x="0" y="80.78571428571388" dx="0em" dy="0.3em" style="text-anchor: end; visibility: inherit; font-family: Roboto, sans-serif; font-size: 12px; font-weight: 200;" fill="rgb(33, 33, 33)" stroke="none" stroke-width="1px">0.0296</text><text x="0" y="53.857142857142584" dx="0em" dy="0.3em" style="text-anchor: end; visibility: inherit; font-family: Roboto, sans-serif; font-size: 12px; font-weight: 200;" fill="rgb(33, 33, 33)" stroke="none" stroke-width="1px">0.0297</text><text x="0" y="26.928571428571292" dx="0em" dy="0.3em" style="text-anchor: end; visibility: inherit; font-family: Roboto, sans-serif; font-size: 12px; font-weight: 200;" fill="rgb(33, 33, 33)" stroke="none" stroke-width="1px">0.0298</text><text x="0" y="0" dx="0em" dy="0.3em" style="text-anchor: end; visibility: hidden; font-family: Roboto, sans-serif; font-size: 12px; font-weight: 200;" fill="rgb(33, 33, 33)" stroke="none" stroke-width="1px">0.0299</text></g><line x1="72.34375" y1="0" x2="72.34375" y2="377" fill="rgb(0, 0, 0)" stroke="rgb(204, 204, 204)" stroke-width="1px"></line></g></g><g transform="translate(72, 0)" clip-path="url(#clip_0)"><clipPath id="clip_0"><rect width="1041" height="377"></rect></clipPath><g><g><g><line x1="0" y1="0" x2="0" y2="377" fill="rgb(0, 0, 0)" stroke="rgb(66, 66, 66)" stroke-width="1px" opacity="0.25"></line><line x1="130.23203125" y1="0" x2="130.23203125" y2="377" fill="rgb(0, 0, 0)" stroke="rgb(66, 66, 66)" stroke-width="1px" opacity="0.25"></line><line x1="260.4640625" y1="0" x2="260.4640625" y2="377" fill="rgb(0, 0, 0)" stroke="rgb(66, 66, 66)" stroke-width="1px" opacity="0.25"></line><line x1="390.69609375000005" y1="0" x2="390.69609375000005" y2="377" fill="rgb(0, 0, 0)" stroke="rgb(66, 66, 66)" stroke-width="1px" opacity="0.25"></line><line x1="520.928125" y1="0" x2="520.928125" y2="377" fill="rgb(0, 0, 0)" stroke="rgb(66, 66, 66)" stroke-width="1px" opacity="0.25"></line><line x1="651.16015625" y1="0" x2="651.16015625" y2="377" fill="rgb(0, 0, 0)" stroke="rgb(66, 66, 66)" stroke-width="1px" opacity="0.25"></line><line x1="781.3921875000001" y1="0" x2="781.3921875000001" y2="377" fill="rgb(0, 0, 0)" stroke="rgb(66, 66, 66)" stroke-width="1px" opacity="0.25"></line><line x1="911.6242187500001" y1="0" x2="911.6242187500001" y2="377" fill="rgb(0, 0, 0)" stroke="rgb(66, 66, 66)" stroke-width="1px" opacity="0.25"></line><line x1="1041.85625" y1="0" x2="1041.85625" y2="377" fill="rgb(0, 0, 0)" stroke="rgb(66, 66, 66)" stroke-width="1px" opacity="0.25"></line></g><g><line x1="0" y1="377" x2="1041.85625" y2="377" fill="rgb(0, 0, 0)" stroke="rgb(66, 66, 66)" stroke-width="1px" opacity="0.25"></line><line x1="0" y1="350.0714285714287" x2="1041.85625" y2="350.0714285714287" fill="rgb(0, 0, 0)" stroke="rgb(66, 66, 66)" stroke-width="1px" opacity="0.25"></line><line x1="0" y1="323.1428571428574" x2="1041.85625" y2="323.1428571428574" fill="rgb(0, 0, 0)" stroke="rgb(66, 66, 66)" stroke-width="1px" opacity="0.25"></line><line x1="0" y1="296.2142857142861" x2="1041.85625" y2="296.2142857142861" fill="rgb(0, 0, 0)" stroke="rgb(66, 66, 66)" stroke-width="1px" opacity="0.25"></line><line x1="0" y1="269.28571428571485" x2="1041.85625" y2="269.28571428571485" fill="rgb(0, 0, 0)" stroke="rgb(66, 66, 66)" stroke-width="1px" opacity="0.25"></line><line x1="0" y1="242.35714285714258" x2="1041.85625" y2="242.35714285714258" fill="rgb(0, 0, 0)" stroke="rgb(66, 66, 66)" stroke-width="1px" opacity="0.25"></line><line x1="0" y1="215.4285714285713" x2="1041.85625" y2="215.4285714285713" fill="rgb(0, 0, 0)" stroke="rgb(66, 66, 66)" stroke-width="1px" opacity="0.25"></line><line x1="0" y1="188.5" x2="1041.85625" y2="188.5" fill="rgb(0, 0, 0)" stroke="rgb(66, 66, 66)" stroke-width="1px" opacity="0.25"></line><line x1="0" y1="161.5714285714287" x2="1041.85625" y2="161.5714285714287" fill="rgb(0, 0, 0)" stroke="rgb(66, 66, 66)" stroke-width="1px" opacity="0.25"></line><line x1="0" y1="134.64285714285742" x2="1041.85625" y2="134.64285714285742" fill="rgb(0, 0, 0)" stroke="rgb(66, 66, 66)" stroke-width="1px" opacity="0.25"></line><line x1="0" y1="107.71428571428612" x2="1041.85625" y2="107.71428571428612" fill="rgb(0, 0, 0)" stroke="rgb(66, 66, 66)" stroke-width="1px" opacity="0.25"></line><line x1="0" y1="80.78571428571388" x2="1041.85625" y2="80.78571428571388" fill="rgb(0, 0, 0)" stroke="rgb(66, 66, 66)" stroke-width="1px" opacity="0.25"></line><line x1="0" y1="53.857142857142584" x2="1041.85625" y2="53.857142857142584" fill="rgb(0, 0, 0)" stroke="rgb(66, 66, 66)" stroke-width="1px" opacity="0.25"></line><line x1="0" y1="26.928571428571292" x2="1041.85625" y2="26.928571428571292" fill="rgb(0, 0, 0)" stroke="rgb(66, 66, 66)" stroke-width="1px" opacity="0.25"></line><line x1="0" y1="0" x2="1041.85625" y2="0" fill="rgb(0, 0, 0)" stroke="rgb(66, 66, 66)" stroke-width="1px" opacity="0.25"></line></g></g></g><g><g><line x1="0" y1="8051.642857142865" x2="1041.85625" y2="8051.642857142865" fill="rgb(0, 0, 0)" stroke="rgb(153, 153, 153)" stroke-width="1.5px"></line></g></g><g><g><line x1="130.23203125" y1="0" x2="130.23203125" y2="377" fill="rgb(0, 0, 0)" stroke="rgb(153, 153, 153)" stroke-width="1.5px"></line></g></g><g><g><g><g><g><path stroke="rgb(255, 112, 67)" stroke-width="2px" d="M131.794815625,97.42123784976344L132.05527968750002,97.26888179193645L133.35760000000002,95.37329195513625L134.1389921875,91.93549773907816L134.39945625000001,90.06931697487337L135.1808484375,88.66105713766913L135.70177656250002,87.68411916083633L136.7436328125,84.04484513900306L139.86920156250002,70.09978680316426L140.91105781250002,56.567163770988L141.4319859375,48.3817476062441L141.9529140625,42.21776988287424L142.21337812500002,38.613764306267086L142.73430625000003,36.615209317721806L144.297090625,35.71415638179217L144.55755468750002,35.27293675383102L144.81801875000002,33.67645473388492L145.07848281250003,31.91331385244182L145.33894687500003,30.795350216347458L147.422659375,27.860383897040798L148.20405156249998,26.444569959711163L148.98544375,25.79633951609813L149.2459078125,25.48585502535171L149.50637187499999,25.40951357465746L149.7668359375,25.383571707908676L151.06915625,25.74198810170021L153.15286875,26.655242812712487L153.4133328125,27.21222355378352L154.9761171875,28.049600762331004L157.0598296875,29.364191444303522L157.841221875,30.37544823939595L158.1016859375,31.059245497582122L159.924934375,28.205016116885087L160.7063265625,26.787008550081083L161.2272546875,26.089086759371042L163.3109671875,26.37656359100291L164.092359375,26.770950331375673L164.3528234375,27.11371749158858L166.697,28.222027868469084L167.21792812500001,29.081227313327485L167.47839218750002,29.675796575336815L167.73885625,30.088314242981244L169.5621046875,30.974641881479172L170.864425,32.063798304700114L171.38535312500002,32.91672184937058L171.64581718750003,33.50752557188657L172.68767343750002,34.27611533243923L173.98999375000002,35.178462237204215L174.25045781250003,35.84727264733887L175.03185000000002,36.132592735158575L176.59463437500003,36.95423856823142L176.85509843750003,37.55737385506482L177.37602656250002,38.1192866184768L178.15741875000003,38.737321165028014L178.67834687500002,39.240961264522205L178.93881093750002,39.56401120736422L179.4597390625,39.950248691694625L179.9806671875,40.38924557931071L180.24113125,40.729486339235L182.0643796875,41.52590086295083L184.1480921875,42.71579783953727L184.40855625,43.49775077920548L184.6690203125,44.04918227463955L185.7108765625,44.76164607328094L188.3155171875,45.37330589792901L188.57598125,45.857271118428756L189.096909375,46.31738618478381L190.138765625,46.99070953833654L190.9201578125,47.70428102829838L191.180621875,48.262635058446456L191.4410859375,48.681512276102715L192.222478125,49.10678784407797L195.34804687500002,50.56033703131543L196.91083125,51.24507486232865L197.69222343750002,51.81020471612092L198.2131515625,52.21067647688434L198.473615625,52.570537094448554L198.99454375000002,52.81855482367347L200.03640000000001,53.356594435277536L201.07825625,54.007654594806844L201.59918437500002,54.50081440482784L202.90150468750002,55.22887483215271L206.54800156250002,56.88255321624653L207.85032187500002,58.3153513946702L208.11078593750003,59.22518867467197L209.15264218750002,60.18118589988737L209.41310625000003,55.57964394782245L210.45496250000002,49.23961791656696L210.71542656250003,45.432994062420434L211.2363546875,43.33239876142712L212.017746875,41.6294440979451L213.3200671875,40.80770289117005L213.58053125,40.405143871900954L213.84099531249998,40.272753079872636L215.14331562499999,40.67905228827661L215.4037796875,41.02836502999903L215.66424375,41.2981427225683L216.4456359375,41.84703134377083L218.7898125,35.65958806970728L219.310740625,32.13892772341865L220.873525,30.02091377787579L222.436309375,29.380094574766044L222.6967734375,29.088295726106523L224.25955781250002,28.964578590808163L225.04095,28.97682134459056L226.08280625,29.432382217514956L227.1246625,30.146510522730097L227.645590625,30.791671676990465L228.687446875,31.566392275683L228.9479109375,32.10164699051632L229.20837500000002,32.51769946103138L229.729303125,33.01190316983069L231.0316234375,33.63726368815292L232.33394375,34.5365346796975L232.5944078125,35.17601275353572L232.85487187500001,35.65640494087982L236.76183281250002,37.38518872432814L238.58508125000003,39.07612291064476L240.147865625,40.683956657653795L240.40832968750001,41.76783319998108L240.92925781250003,42.646881306016624L241.4501859375,43.38818547188498L242.49204218750003,44.22079251103354L244.83621875,45.64307016325818L245.35714687499998,46.736595044263574L245.6176109375,47.508074230644866L246.399003125,48.355375512740586L247.96178749999999,49.33664942214335L250.0455,50.79796882357488L250.3059640625,51.79955449632669L251.08735625,52.78572220421132L251.3478203125,53.439619211396185L253.691996875,54.79720514470222L253.9524609375,55.72752222944784L256.817565625,54.98279858462028L257.59895781250003,54.92278576989159L257.859421875,55.03263862958396L258.38035,55.33670230015335L258.90127812500003,55.698908111137555L262.547775,57.21453092309208L263.8500953125,58.67263721030712L264.3710234375,59.790066874208044L265.152415625,60.71593110759523L265.67334375,61.45884132895905L266.9756640625,62.30043734107587L267.236128125,62.91995667215741L268.79891250000003,63.94713788847931L269.31984062500004,64.75123956658639L269.5803046875,65.28506274734812L270.1012328125,65.8728011003601L270.361696875,66.27540185162266L271.1430890625,66.33338265739252L271.6640171875,66.5690052661363L272.9663375,67.27957604758645L273.2268015625,67.79600295426886L275.570978125,68.86826636707492L276.09190625,69.70423256687582L277.13376250000005,70.25918079557215L277.3942265625,70.71152666040413L277.654690625,71.0972952696228L278.696546875,71.81288505084083L279.73840312500005,72.69185857466877L279.9988671875,73.32537780612171L280.780259375,74.05118085134593L281.3011875,74.70575445151361L281.5616515625,75.21586920431018L281.82211562500004,75.64893905629047L282.0825796875,76.00488441004504L282.34304375000005,76.31294999693075L282.6035078125,76.51725079776492L283.1244359375,76.75278793414333L283.3849,77.00887257327233L284.6872203125,77.73773957770784L284.94768437500005,78.30466901606547L285.989540625,77.35274699196097L286.7709328125,77.04121351587273L287.2918609375,77.085222579269L288.8546453125,77.71794242949207L289.3755734375,78.25426909671148L290.67789375000007,79.17194656765602L291.71975000000003,80.15812836089538L291.9802140625,80.86038649081469L292.5011421875,81.52731676271574L295.62671093750004,79.70646217175681L297.449959375,79.34846863061932L297.7104234375,79.21833983947234L298.23135156250004,79.34611252735831L298.491815625,79.5273061893116L298.7522796875,79.73553659841106L299.01274374999997,79.90381167809649L299.533671875,80.16247465045434L300.3150640625,80.11643704160439L301.3569203125,80.49048272685513L301.617384375,80.82907059483388L302.659240625,81.37129391674402L303.44063281250004,81.99356547773685L304.4824890625,82.7738131356796L305.26388125,83.60069441376345L305.52434531250003,84.19332789016411L305.784809375,84.59445177864048L306.04527343750004,84.88448195070649L306.3057375,85.17426557870849L306.826665625,85.58989911311363L307.0871296875,85.92575226871853L307.34759375,86.24583855572818L308.12898593750003,86.74506020386247L308.38945,87.16557518829137L308.64991406250005,87.52943640038373L309.1708421875,87.98249431303182L309.6917703125,88.38935540059454L309.952234375,88.75284898074624L311.77548281250006,89.77267656202372L312.556875,90.6676669677039L313.59873125,91.66150367191537L314.38012343750006,92.24436325049187L314.9010515625,92.84567339634103L315.4219796875,93.01625893363496L316.46383593750005,93.48637144645903L317.5056921875,94.20260983038455L318.287084375,94.96440128964963L318.54754843750004,95.48407381464745L318.8080125,95.92689099978298L319.06847656250005,96.27303534107187L320.63126093750003,97.17631826187686L322.19404531250007,98.30614414530056L322.7149734375,99.24165307881083L322.9754375,99.90628468718847L324.01729375,100.74264529780612L324.79868593750007,101.52213841681218L325.05915,102.09055230109274L325.8405421875,102.7590344902604L326.10100625,103.27669186249055L326.3614703125,103.68439289585359L326.8823984375,104.14569768700366L327.4033265625,104.63033685918667L328.9661109375,105.54167975259914L329.74750312500004,106.3172076692851L330.0079671875,106.89046523787887L330.789359375,107.56426123953561L331.0498234375,108.08651133370209L331.3102875,108.51683071591438L331.831215625,108.96582479593155L332.0916796875,109.35098676870406L333.6544640625,110.21307628404288L334.6963203125,111.16389896900172L334.95678437500004,111.83069665603588L335.4777125,112.45548477905889L335.998640625,113.02697847482585L336.51956875,113.58033922517208L336.7800328125,114.00544961556957L337.04049687500003,114.37206807124286L337.3009609375,114.71462620812952L337.56142500000004,115.01486009838644L338.3428171875,115.54289890730165L338.8637453125,116.09265767661657L339.3846734375,116.67270290246591L340.16606562500004,117.31465810344596L340.68699375000006,117.88882797329983L340.9474578125,118.31699406128813L341.207921875,118.6065969732425L342.77070625000005,119.4265991974658L343.0311703125,120.00447166648527L343.5520984375,120.5460102684237L344.333490625,121.17348873520355L345.37534687500005,122.00280560623911L346.1567390625,122.85812524471835L346.93813125,123.65842355455632L347.1985953125,124.21945783764932L347.7195234375,124.77336447911257L348.2404515625,125.12135787634946L348.7613796875,125.57372297372272L350.06370000000004,126.31321996849007L350.84509218750003,127.07291591491729L351.3660203125,127.750834758184L355.27298125000004,129.4079339849703L356.31483750000007,130.81369281270034L356.835765625,131.86781327571637L357.0962296875,132.61986311463255L358.1380859375,133.52552787688376L358.65901406250003,134.26374185475976L358.919478125,134.81120029070738L359.7008703125,135.42016097379644L360.2217984375,135.98135567163567L360.7427265625,136.51970914958716L361.52411875,137.16975382797304L362.04504687499997,137.7529906875978L362.3055109375,138.20866665354407L362.8264390625,138.69474373440812L363.86829531250004,139.37100438668602L364.9101515625,140.13208269201058L366.7334,141.26988037982755L366.99386406250005,142.06270677950914L367.254328125,142.6112325768381L367.5147921875,143.05049584222738L368.0357203125,143.53455000893624L368.8171125,144.07457057274584L369.07757656250004,144.4956895210578L369.338040625,144.85690360910266L370.1194328125,145.34970374663064L370.379896875,145.76114935390945L370.6403609375,146.13943165539808L370.900825,146.43762592587694L372.9845375,147.36490541253497L373.2450015625,148.02098794994853L374.02639375,148.73685486020952L375.8496421875,149.87721946777236L376.631034375,150.8535605963544L378.714746875,152.17769652328587L378.97521093750004,153.0977746453046L379.49613906250005,153.87513292979403L379.756603125,154.416785459909L380.01706718750006,154.84430069228137L380.798459375,155.4097854090598L381.0589234375,155.82752393441598L381.57985156250004,156.26194732810768L382.10077968750005,156.71420634898192L383.4031,157.51984875013892L383.66356406250003,158.08649708992505L384.70542031250005,158.83738348498028L384.96588437500003,159.38562383251394L385.22634843750006,159.81207591804372L385.4868125,160.03945721352727L386.26820468750003,160.40721640684927L386.52866875,160.70792468606723L386.78913281250004,160.97221445316507L387.57052500000003,161.42271004397637L387.83098906250007,161.78670323912863L389.91470156250006,162.74724244234577L390.95655781249997,163.71600507421473L391.4774859375,164.5215708971554L391.9984140625,165.19892297747992L392.258878125,165.6823774865209L393.0402703125,166.2641712890055L393.8216625,166.9356655918015L394.0821265625,167.43667195096333L394.342590625,167.82996843966657L394.6030546875,168.17208145004489L395.38444687500004,168.53805668319453L397.468159375,169.45845460990225L397.98908750000004,170.18584640425718L398.51001562500005,170.78078193938353L399.03094375,171.35743693396856L399.2914078125,171.79993464026973L400.07280000000003,172.37300440696157L400.59372812500004,172.868926453753L401.11465625000005,173.37834864915644L402.4169765625,174.13582858990637L404.240225,175.27467739484706L404.5006890625,176.0466666811824L405.28208125000003,176.80398895194605L405.80300937500004,177.38939598454198L407.36579375,178.24764103784972L407.6262578125,178.85568201002428L408.1471859375,179.41371664592046L408.6681140625,179.9343240408544L409.7099703125,180.61083826541167L410.7518265625,181.40738020865857L411.2727546875,182.06186284738106L412.575075,182.93747724534893L412.8355390625,183.57259240413785L413.09600312500004,184.05899408260038L414.9192515625,184.8363681398061L415.17971562500003,185.39729094876216L416.74250000000006,186.24786764009815L417.78435625000003,187.13620715342947L418.0448203125,187.75046742560187L418.30528437500004,188.21813653385001L420.6494609375,189.17487286612533L421.1703890625,189.9483443563295L421.95178125000007,190.69431730641443L423.514565625,191.66896525939472L423.7750296875,192.34604543740585L424.81688593750005,193.11965346767656L425.598278125,193.86390264037595L425.8587421875,194.39973404784158L426.11920625,194.8145274660025L426.90059843750004,195.30877827735696L429.765703125,192.65461200043467L430.5470953125,191.32634654296655L431.3284875,190.67444528304895L431.58895156250003,190.34409647510998L431.849415625,190.1942398618677L432.63080781250005,190.38140074608305L432.891271875,190.5763582752288L433.1517359375,190.79726094146295L437.058696875,192.0665919056765L437.84008906250006,193.05771519881222L438.3610171875,193.84499732681056L438.62148125,194.3781585516209L439.142409375,194.87882606260905L439.40287343750003,195.25025082529487L440.184265625,195.72048677828082L440.9656578125,196.2895342433302L441.226121875,196.6929584713233L441.74705,197.11056731343416L442.267978125,197.55614837271992L442.78890625,198.00587285232686L443.309834375,198.416552251326L444.0912265625,198.96611709681846L444.61215468750004,199.47361727783843L445.13308281250005,199.9312007406853L445.65401093750006,200.38892919639642L446.1749390625,200.86961686588936L446.6958671875,201.2499196068247L449.30050781250003,202.34624237035516L450.34236406250005,203.30940020297567L451.3842203125,204.23358830937508L451.644684375,204.8888191860922L451.90514843750003,205.37585418628072L452.42607656250004,205.82296424205404L453.20746875000003,206.32536956043512L453.9888609375,206.87339131287214L454.50978906250003,207.3699339634696L455.29118125,207.90360390667948L456.853965625,208.73441810920735L457.37489375,209.36071016499326L457.895821875,209.8913744541256L458.1562859375,210.3054752031889L458.93767812500005,209.5413384195693L459.19814218749997,209.14766096724455L459.45860625,209.0143794771383L460.2399984375,209.1930271539895L462.3237109375,209.9831721661484L463.62603125000004,210.89062751570694L464.14695937500005,211.60283032457784L465.70974375000003,212.53314017381365L466.75160000000005,213.39307885500634L467.0120640625,213.99892586804287L467.272528125,214.45352168113638L467.5329921875,214.7940932892178L469.0957765625,215.46591228993353L469.87716875,216.10755691210014L471.7004171875,217.07458144507848L472.22134531250003,217.77136422359445L473.0027375,218.4332035832269L473.2632015625,218.9165796004756L474.04459375000005,219.42128304703817L474.3050578125,219.8047597786751L475.607378125,220.3855531613037L475.8678421875,220.82210729377627L476.12830625000004,221.1255709060608L476.9096984375,221.57429098401795L477.691090625,222.13404032690198L477.9515546875,222.54051292174196L478.21201875,222.86003530505047L478.4724828125,223.1303970638165L478.73294687500004,223.38129412244774L480.29573125,223.9529620568895L481.85851562500005,224.6342308847101L483.42130000000003,225.50705744790986L484.46315625000005,226.06907438276167L484.98408437500007,226.54833305585873L486.2864046875,227.24999578676807L487.32826093750003,227.98378103901285L489.151509375,228.78780071097276L489.6724375,229.40323251920364L490.45382968750005,229.9913827436839L490.9747578125,230.49073532737734L491.235221875,230.8539476944913L492.0166140625,231.32066064457666L492.277078125,231.67873484293435L492.79800625,232.0552899563309L493.05847031250005,232.358466918706L493.8398625,232.79999283450624L498.26775156250005,234.3878856288401L498.52821562500003,235.43070574325398L498.7886796875,236.13324043925635L499.04914375,236.63802415595043L500.091,237.2171667041603L500.87239218750005,237.7855497075451L501.9142484375,238.38519608049165L502.1747125,238.81159422353394L502.43517656250003,239.15149854241807L503.47703281250006,239.6519774346118L503.73749687500003,240.03051183172565L503.9979609375,240.32845609259587L504.5188890625,240.65870093541878L505.03981718750003,241.01675273406818L505.56074531250005,241.36921838862355L506.08167343750006,241.73037036623157L508.16538593750005,242.54615315927768L509.46770625,243.2966470079214L509.7281703125,243.80673209766132L512.072346875,244.72230769955908L512.3328109375001,245.33264564220107L515.1979156250001,246.47349431958276L516.5002359375001,247.5036950323626L517.281628125,248.18581754391124L517.5420921875001,248.6600963021801L518.323484375,249.17238257032093L518.8444125,249.63484402035914L519.1048765625001,249.98515084790074L521.1885890625,250.77877713854656L521.449053125,251.32397083410913L521.7095171875001,251.740569588784L521.96998125,252.06195436466643L522.7513734375001,252.42893510106842L523.2723015625,252.81083413729078L523.5327656249999,253.120628222724L523.7932296875,253.37833146404424L525.8769421875,254.09713478774552L527.1792625,254.9007925427265L527.4397265625,255.4389639399235L528.2211187500001,255.96871990827597L530.0443671875,256.7530463576959L530.5652953125,257.3550571644694L533.1699359375001,258.1042888216528L534.47225625,258.87484140282385L534.7327203125,259.4053883387348L535.2536484375,259.86957704881246L535.5141125,260.1966435798711L537.076896875,260.80097202080464L537.3373609375001,261.2269692687698L538.9001453125001,261.87139532463556L539.160609375,262.3364986534436L541.5047859375001,263.21244528879913L542.5466421875001,264.0176963575672L543.0675703125,264.61922075898264L544.1094265625001,265.2527963151731L546.453603125,266.1586013973733L546.97453125,266.8387158546016L547.7559234375001,267.4644718675295L548.2768515625,267.94626122593263L548.537315625,268.30034009231457L549.8396359375001,268.74652543007824L550.621028125,269.2419556459164L551.9233484375001,269.8666476340172L552.4442765625,270.3618429219518L553.4861328125,270.90714372405444L554.0070609375,271.375168916552L554.2675250000001,271.72319625179995L554.5279890625001,272.0096578142701L555.0489171875,272.2844597330398L555.5698453125,272.56490577557213L556.872165625,273.04736544923276L557.6535578125,273.53486650982404L558.1744859375,273.9439352049082L558.955878125,274.386197877404L559.7372703125001,274.8226958493962L560.7791265625,275.3215427863932L561.56051875,275.8182743045126L562.602375,276.3430290611056L562.8628390625,276.71686816164663L563.123303125,277.0013616695076L564.9465515625001,277.56710511955583L565.4674796875,278.03094395449364L565.9884078125,278.4356463552835L566.7698,278.87528925120245L567.0302640625,279.1908384296349L568.5930484375,279.754750665864L568.8535125000001,280.1663292321036L569.8953687500001,280.64841882422354L570.9372250000001,281.1575668864969L571.7186171875,281.65245374010794L571.97908125,282.00716829791014L572.2395453125,282.2779801117186L572.500009375,282.50647561880197L573.0209375000001,282.764956185585L573.8023296875,283.0865703238378L575.6255781250001,283.676191220056L575.8860421875,284.0967747105532L577.1883625,284.6336230962077L577.709290625,285.0584564753955L577.9697546875,285.3615085409378L578.2302187500001,285.60112222589845L580.5743953125001,286.2855976972455L581.6162515625,286.92961973100347L581.876715625,287.3718090619747L582.1371796875,287.6816632957351L582.39764375,287.9305747524137L582.918571875,288.18164280675717L584.2208921875,288.5425475387569L584.4813562500001,288.7572846765312L585.002284375,288.97701393097634L585.2627484375,289.15559908723026L585.5232125000001,289.32534783042024L586.3046046875,289.59994251276345L586.8255328125,289.8254912701826L587.085996875,290.0184023367778L587.3464609375,290.1999567620405L589.6906375,290.7990370376374L590.4720296875,291.037302573956L592.8162062499999,291.63369358718944L594.378990625,292.31033481358133L594.6394546875,292.7749045290191L596.2022390625001,293.35238962755466L596.4627031250001,293.75485743088456L596.7231671875,294.05191359010803L597.2440953125001,294.3388906381909L598.8068796875,294.8403164270659L600.3696640625001,295.4346986988776L600.630128125,295.850715575535L602.713840625,296.5025958525648L602.9743046875,296.94167542332053L603.755696875,297.329114663699L604.5370890625001,297.70884319089885L605.5789453125001,298.1497530754992L606.0998734375,298.50297900962954L607.1417296875001,298.8958859797013L608.7045140625,299.4040904435921L609.7463703125001,299.91004788069995L610.006834375,300.2565579102064L610.7882265625001,300.59046176075356L611.3091546875,300.8742676036664L612.0905468750001,301.2022490339596L613.132403125,301.58542640600757L613.65333125,301.9162514756063L614.174259375,302.1964043485235L614.4347234375,302.4058265715821L614.6951875,302.58424651375805L616.5184359375,303.0393975873166L617.0393640625001,303.40317456974003L617.2998281250001,303.6722010326162L618.8626125,304.1357709489754L619.1230765624999,304.45945670142686L619.383540625,304.691186615863L619.90446875,304.926929907566L620.425396875,305.1725046648261L623.5509656250001,305.8916549707792L625.8951421875,306.71337729588L626.9369984375,307.3863789330755L628.23931875,308.0064628195413L628.4997828125,308.4306778592847L629.802103125,308.89787838442703L630.0625671875,309.22454503611596L630.32303125,309.44963688343825L631.3648875,309.7606475641312L631.6253515625,309.9907914402647L633.1881359375001,310.37284809195955L634.2299921875,310.7756300533738L634.49045625,311.0602347974658L634.7509203124999,311.27473574513056L635.2718484375,311.49010998218137L635.5323125,311.6616681911792L636.8346328125,311.9933252972169L637.616025,312.3143047238472L638.1369531250001,312.595171116212L638.9183453125,312.8824659787695L639.6997375,313.18184389660735L640.4811296875,313.4926849509392L641.0020578125,313.7630543831057L642.5648421875001,314.1632273636673L642.82530625,314.43743884560797L643.3462343750001,314.6804134300619L643.8671625000001,314.90645157745024L646.2113390625,315.39639321238093L646.4718031250001,315.7353000955006L646.7322671875,315.96853861564847L646.99273125,316.1536242633898L650.639228125,316.79494997083117L651.681084375,317.332828749532L652.722940625,317.80482733464294L652.9834046875001,318.12393988073916L653.764796875,318.4269596298312L654.0252609375001,318.645688041776L654.806653125,318.88787540990165L655.32758125,319.10381081988623L655.8485093749999,319.30319252101907L657.1508296875,319.6168341282594L657.932221875,319.9059377389737L658.45315,320.15784760069175L658.7136140625,320.33627967260514L659.2345421875001,320.5187771086658L660.015934375,320.742034760146L660.7973265625,320.9777105313709L661.3182546875,321.194554187019L662.099646875,321.44102780564515L662.8810390625,321.69003125668195L663.141503125,321.87093278551504L663.9228953125,322.0827999510864L664.7042875000001,322.318663602979L666.788,322.742874384043L667.0484640625,323.0341167816791L667.5693921875001,323.2638357970108L668.8717125000001,323.5679923709033L670.1740328125001,323.9228304846845L670.434496875,324.16301950783645L670.6949609375001,324.3444507512001L671.2158890625,324.52112361744395L671.476353125,324.66946100395637L671.99728125,324.83089212640044L672.518209375,324.9919535172384L673.2996015625,325.1931204009635L673.560065625,325.34832949178656L674.601921875,325.5714654489594L675.9042421875001,325.8626436808246L676.4251703125,326.0963368665301L677.9879546875001,326.4323710659386L678.24841875,326.65846887158233L678.5088828125,326.821012442868L678.769346875,326.955655781621L679.0298109375001,327.07416088132885L679.811203125,327.2265205053281L680.3321312500001,327.38414533201717L681.1135234375001,327.5714129012373L681.3739875000001,327.7164767019309L682.1553796875,327.89199435222565L682.6763078125,328.06612223008676L683.1972359375001,328.2267763345044L683.4577,328.35486888885725L683.7181640625,328.4594118433357L684.7600203125,328.64332024506274L685.8018765625001,328.87223967974603L686.062340625,329.03788066289843L686.3228046875,329.15853240291904L687.3646609374999,329.35772381374125L687.625125,329.50512671559375L688.146053125,329.6549623051925L688.4065171875,329.7785700855727L688.9274453125,329.9022912262729L689.187909375,330.0068195679522L689.4483734375,330.099430963237L689.9693015625,330.2192005177803L690.229765625,330.3209566407825L690.7506937500001,330.4409965611692L691.5320859375,330.5986910143958L692.0530140625,330.75911547163753L692.313478125,330.8912835410131L693.8762625,331.0713023955163L694.1367265625,331.2037909942157L694.397190625,331.3161880460898L695.439046875,331.5009968699094L695.9599750000001,331.66705637444346L696.480903125,331.814242214718L697.522759375,332.0213287460219L699.3460078125,332.34079705231414L700.1274000000001,332.61513903470643L700.648328125,332.83491843438384L701.1692562500001,333.01754634761227L701.4297203125001,333.1544092504333L702.4715765625001,333.3561045532323L702.9925046875,333.53490418054605L703.25296875,333.6680656773748L703.5134328125,333.76862782512706L704.2948250000001,333.90119317082195L704.5552890625,333.99939129297485L705.3366812500001,334.12813062140975L705.5971453125001,334.23105530541886L706.3785375000001,334.3718597115889L707.1599296875,334.5036918593535L708.2017859375,334.6957478038895L709.7645703125,334.96887992864873L710.025034375,335.15643395553496L710.8064265625001,335.33798429284246L711.066890625,335.46858291233946L711.5878187500001,335.5920846196904L712.1087468750001,335.71353514816366L712.3692109375,335.80947831680317L712.8901390625001,335.9117854866547L713.150603125,335.9986502420239L713.67153125,336.109755341831L713.9319953125,336.20290202263106L714.192459375,336.2768470453721L714.4529234375,336.34809894691637L714.9738515625,336.4422122617405L715.4947796875,336.5492398905655L715.7552437500001,336.63632868592475L716.7971,336.7921088449036L717.0575640625001,336.91025485978054L717.5784921875,337.0290938732449L718.359884375,337.16620506662906L718.8808124999999,337.2922098838708L719.6622046875,337.4276015547679L722.7877734375,337.778688603762L723.8296296875,338.08143160588924L724.611021875,338.3300889934228L725.9133421875,338.5880267784925L726.4342703125001,338.77990664551584L727.2156625,338.9610429845277L728.7784468750001,339.18107637587747L729.0389109375,339.33416292732494L729.5598390625,339.46714472401067L730.34123125,339.6043149806738L731.1226234375,339.75984835917376L731.3830875,339.86982096609256L731.6435515625001,339.9602818162419L733.9877281250001,340.1939246679903L734.2481921875,340.35939019900485L734.50865625,340.47712779885836L734.7691203125,340.5636204046216L735.2900484375,340.65484013247004L735.8109765625001,340.7450840972256L736.59236875,340.8558091207634L737.8946890625001,341.0201532788786L738.4156171875001,341.15567633623806L738.67608125,341.2562509858644L738.9365453125001,341.33766229227854L739.1970093750001,341.40556925784676L741.280721875,341.59217398571855L743.6248984375001,341.86685058428236L744.92721875,342.1207378137742L747.01093125,342.4076952244591L747.2713953125001,342.5993311195734L748.0527875,342.76386912911425L749.09464375,342.9306066885545L749.8760359375,343.0804063301821L750.9178921875,343.2419122717279L751.699284375,343.38716850817684L752.4806765625,343.51264324697763L752.7411406250001,343.60759017245334L753.0016046875,343.68121090755767L753.5225328125,343.76089547666624L755.6062453124999,343.9322964490728L756.1271734375,344.06121938644975L756.6481015625,344.17288147597145L757.1690296875,344.2709769209113L758.47135,344.4026641453945L759.7736703125,344.54888869983375L761.8573828125,344.7441629840966L762.117846875,344.8777795009815L762.3783109375,344.9731975564871L763.4201671875,345.08843146891803L764.2015593750001,345.20472068694625L764.9829515625,345.3102069793022L767.0666640625,345.49106998090394L767.5875921875,345.6304853396003L768.6294484375001,345.76710179665025L768.8899125,345.8585014449937L769.1503765625,345.9259811439832L769.4108406250001,345.97730317193316L769.9317687500001,346.0293635388327L770.4526968750001,346.08527767846243L771.2340890625,346.1583509601228L772.01548125,346.24111782652545L772.2759453125,346.3016121549249L772.7968734375,346.3609816035201L773.3178015625,346.4208799251831L775.1410500000001,346.5438938536179L776.18290625,346.66786058362567L776.703834375,346.7635077717594L777.2247625,346.84457083666996L777.7456906250001,346.91688342764826L778.0061546875,346.97130582428326L778.5270828125,347.0258283128694L779.308475,347.0910444316908L779.8294031250001,347.1534475880302L780.6107953125,347.2183762702091L781.1317234375001,347.277196195205L781.9131156249999,347.34338570793705L782.1735796875,347.3945355246078L782.43404375,347.4384672250689L785.038684375,347.5755759328118L785.2991484375001,347.66486332967173L785.8200765625,347.73789721649047L786.080540625,347.79235112364614L786.3410046875001,347.835055142529L786.6014687500001,347.8691041605136L787.3828609375,347.9168197261885L787.643325,347.95046490288826L788.164253125,347.9919191590378L788.9456453125,348.04668610300314L789.4665734375001,348.10161595347927L789.9875015625,348.15222961104234L790.5084296875001,348.2014573538081L792.85260625,348.3164638669695L793.1130703125,348.3940950150137L793.8944625,348.4673579582482L794.415390625,348.52857020448295L794.93631875,348.5841571004517L795.457246875,348.6349643518186L795.9781750000001,348.6796936805546L796.2386390625,348.71194838207487L797.0200312500001,348.7569822899356L798.582815625,348.8355654420428L798.8432796875001,348.8895368720283L799.8851359375001,348.95763249155783L800.666528125,349.0209608143558L801.4479203125001,349.0820306595907L801.9688484375001,349.1353251465495L802.2293125000001,349.17492591141206L803.27116875,349.2299851950493L804.313025,349.29572402439396L805.0944171875001,349.35723700609657L805.3548812500001,349.39815746495316L805.6153453125,349.4285281115293L805.875809375,349.4539733051802L806.6572015625001,349.49271453990923L807.6990578125,349.5446498700724L808.2199859375,349.59065794656306L809.2618421875001,349.64514768035696L809.52230625,349.6838605253877L810.043234375,349.71832370794607L810.3036984375001,349.7454218892176L811.6060187500001,349.79478532412566L812.3874109375001,349.84045406441413L812.6478750000001,349.8736736798487L813.168803125,349.9074491600423L813.68973125,349.9413575256012L814.210659375,349.9721354865092L814.4711234375,349.99581873384045L815.252515625,350.0288882304677L815.5129796875,350.05314386526254L816.0339078125,350.07772892072916L816.8153000000001,350.1101357012875L817.0757640625001,350.13539814088364L817.5966921875,350.15978474526287L819.1594765625,350.2065180665769L819.94086875,350.25161190616774L820.7222609375,350.2935150883148L820.9827250000001,350.32527790283206L822.0245812500001,350.36500084119683L823.587365625,350.41672265957374L826.9733984375,350.5129616354319L828.0152546875,350.58695633378187L828.5361828125001,350.64018102643024L829.838503125,350.6945867930988L830.6198953125,350.7424783984764L831.1408234375,350.78044250232546L832.1826796875,350.81806784302705L833.4850000000001,350.8619101975776L834.52685625,350.9016580542577L835.5687125000001,350.9395511126905L836.3501046875,350.9735224232914L838.6942812500001,351.0240002334203L840.257065625,351.07555406962587L842.8617062500001,351.13738392908465L843.1221703125001,351.1782938811052L843.3826343750001,351.20504682072686L844.1640265625001,351.2303277251212L844.4244906250001,351.24890703711856L845.7268109375,351.2734970682674L846.2477390625,351.29386882472636L847.2895953125001,351.3167254536667L847.550059375,351.3334489334078L847.8105234375,351.34548935617L848.0709875,351.3543186777608L848.3314515625001,351.3628264065856L848.5919156250001,351.3699373787984L848.8523796875,351.3766115640266L850.9360921875,351.39967625688325L851.717484375,351.4197347108432L853.28026875,351.44501159367746L854.322125,351.4690055970163L856.926765625,351.50426788216527L857.1872296875,351.52703032118933L857.44769375,351.5424934860302L859.2709421875,351.5640100279342L860.5732624999999,351.5849452927467L861.3546546875,351.6027229224216L861.8755828125,351.6163990026027L862.136046875,351.62600908515475L862.3965109375,351.6331795691281L862.656975,351.6388862939543L863.69883125,351.64893123407904L865.78254375,351.6661936736946L866.0430078125,351.6777549384148L866.8244,351.68910563406615L867.345328125,351.6983236533582L867.6057921875,351.7050582658846L868.1267203125001,351.7111053683175L869.4290406250001,351.72055200103915L871.2522890625,351.7340446868515L871.7732171875,351.7443472667492L872.554609375,351.7533376835739L873.0755375,351.7605376350943L874.3778578125001,351.7698734433001L875.15925,351.7778825301253L875.9406421875001,351.78509558412236L878.28481875,351.79544242127446L878.5452828125001,351.8024530575331L879.326675,351.808465140714L880.1080671875001,351.81387809204864L880.6289953125,351.8187309307843L880.8894593750001,351.82224453449993L882.45224375,351.8279640995824L883.2336359375,351.8323990060905L883.4941,351.8356618504709L884.0150281250001,351.83862272455826L884.7964203125,351.8420043169448L885.3173484375001,351.84443453935995L885.8382765625,351.84669520677653L886.61966875,351.84885414119424L886.8801328124999,351.85075140231925L887.140596875,351.85229102597896L888.9638453125,351.8558230355673L890.2661656250001,351.8593466757632L890.78709375,351.8618621268639L891.0475578125,351.8637726645076L891.3080218750001,351.8651196205854L892.349878125,351.8667303281992L892.6103421875,351.86789738625964L893.9126625,351.8694001550639L894.1731265625,351.87030181634566L895.2149828125,351.8714447135904L895.9963750000001,351.87253171892087L896.2568390625,351.87318392211836L896.7777671875001,351.8735752440369L898.6010156250001,351.8744119376636L898.8614796875,351.87531522082276L900.1638,351.87585719071956L903.28936875,351.876383006148L904.5916890625,351.8766984954062L905.1126171875001,351.876887788961L905.37308125,351.8770013650944L906.1544734375001,351.8770695107736L906.4149375000001,351.87711039818186L908.7591140625,351.8771349306268L910.3218984375001,351.8771496500938L911.3637546875001,351.8771584817737L911.6242187500001,351.8771637807804" style="fill: none;" fill="none"></path></g><g><path stroke="rgb(0, 119, 187)" stroke-width="2px" d="M190.138765625,48.0011961523975L216.185171875,44.47098716641101L263.068703125,52.39194751976125L395.90537500000005,106.22696250987815L458.41675000000004,150.357924147931L596.4627031250001,210.77751588204086L625.11375,250.6346404110094L830.880359375,291.39595940872226L911.6242187500001,315.83452817011175" style="fill: none;" fill="none"></path></g></g></g></g><g opacity="0.2"><g><g><g><path stroke="rgb(255, 112, 67)" stroke-width="2px" d="M131.794815625,97.42123784976344L132.05527968750002,97.1774681572403L133.35760000000002,93.55352571180883L134.1389921875,87.89265174099374L134.39945625000001,87.63283136912752L135.1808484375,86.71292680927682L135.70177656250002,86.28708222295552L136.7436328125,78.73874867813922L139.86920156250002,49.53353444593283L140.91105781250002,36.47279571422497L141.4319859375,36.17786448129574L141.9529140625,33.00534739238864L142.21337812500002,33.219523644872964L142.73430625000003,33.621292212179625L144.297090625,34.36363613179742L144.55755468750002,34.611418494156325L144.81801875000002,31.28240728165413L145.07848281250003,29.269050191555607L145.33894687500003,29.118575072714155L147.422659375,23.45820268562852L148.20405156249998,24.32092670031945L148.98544375,24.82401518097936L149.2459078125,25.02013441920268L149.50637187499999,25.29500230295307L149.7668359375,25.344659092170733L151.06915625,26.27961116390559L153.15286875,28.025122542466324L153.4133328125,28.047693810292547L154.9761171875,29.30566580380703L157.0598296875,31.336076740707558L157.841221875,31.892333096691434L158.1016859375,32.08494124880849L159.924934375,23.92367238657805L160.7063265625,24.659997301442164L161.2272546875,25.042204103299444L163.3109671875,26.80777883103906L164.092359375,27.362530435834515L164.3528234375,27.627868228724925L166.697,29.88449342761709L167.21792812500001,30.3700264777455L167.47839218750002,30.56765046715728L167.73885625,30.707090743950335L169.5621046875,32.30413333858753L170.864425,33.69753293905927L171.38535312500002,34.196107166153965L171.64581718750003,34.3937311555657L172.68767343750002,35.42899997319485L173.98999375000002,36.53198259430262L174.25045781250003,36.85048826251703L175.03185000000002,36.56057286688248L176.59463437500003,38.18670731782905L176.85509843750003,38.462076785308895L177.37602656250002,38.96215576359192L178.15741875000003,39.66437298485204L178.67834687500002,39.99642141376215L178.93881093750002,40.04858612162715L179.4597390625,40.5296049181903L179.9806671875,41.047740910734376L180.24113125,41.239847479121934L182.0643796875,42.72052264852172L184.1480921875,44.500643304416L184.40855625,44.67068018870684L184.6690203125,44.87632951779014L185.7108765625,45.83034177124492L188.3155171875,46.29079563489972L188.57598125,46.583218949181614L189.096909375,47.0075587843145L190.138765625,48.000694568667996L190.9201578125,48.774638263242494L191.180621875,49.10016610366951L191.4410859375,49.30982810258857L192.222478125,49.74470119604035L195.34804687500002,52.74066081217347L196.91083125,52.27218160884715L197.69222343750002,52.657899496810685L198.2131515625,52.81138411802898L198.473615625,53.11032802079397L198.99454375000002,53.19058141750942L200.03640000000001,54.16365385268408L201.07825625,54.9842448340994L201.59918437500002,55.240554119859326L202.90150468750002,56.320965473140916L206.54800156250002,59.36307079238544L207.85032187500002,60.46454866230479L208.11078593750003,60.58994459467269L209.15264218750002,61.61518173771239L209.41310625000003,48.677331019725045L210.45496250000002,39.72957886968332L210.71542656250003,39.72305828120018L211.2363546875,40.18150580993711L212.017746875,39.075012102723036L213.3200671875,39.57509108100611L213.58053125,39.80130534299775L213.84099531249998,40.07416689183022L215.14331562499999,41.28850110088068L215.4037796875,41.552334142582666L215.66424375,41.70280926142412L216.4456359375,42.6703642755746L218.7898125,26.378423158611458L219.310740625,26.857937203986186L220.873525,26.843892859560984L222.436309375,28.418865770101423L222.6967734375,28.650597453117246L224.25955781250002,28.779002887861978L225.04095,28.99518547526418L226.08280625,30.115723526903455L227.1246625,31.217702980552303L227.645590625,31.75941340838148L228.687446875,32.728473173720374L228.9479109375,32.904529062764894L229.20837500000002,33.1417781668049L229.729303125,33.75320873303062L231.0316234375,34.5753044656344L232.33394375,35.885441167013894L232.5944078125,36.13522986429068L232.85487187500001,36.376993221895944L236.76183281250002,39.978364399501146L238.58508125000003,41.61252419011923L240.147865625,43.0957072781664L240.40832968750001,43.39364801347247L240.92925781250003,43.96545346506997L241.4501859375,44.50014172068654L242.49204218750003,45.46970306975494L244.83621875,47.776486641594275L245.35714687499998,48.376882365771635L245.6176109375,48.665293010217724L246.399003125,49.62632743588506L247.96178749999999,50.80856028624936L250.0455,52.9899479257208L250.3059640625,53.30193300545207L251.08735625,54.26497376603733L251.3478203125,54.42046472217346L253.691996875,56.83358404466077L253.9524609375,57.12299785656582L256.817565625,53.86571311737801L257.59895781250003,54.832766547799025L257.859421875,55.1974179191248L258.38035,55.79279780600744L258.90127812500003,56.24221682761389L262.547775,59.487965141023835L263.8500953125,60.85979664112831L264.3710234375,61.466211370059355L265.152415625,62.10472745767656L265.67334375,62.57320666100293L266.9756640625,63.562831359250126L267.236128125,63.849235668778334L268.79891250000003,65.48790971296168L269.31984062500004,65.95739208374697L269.5803046875,66.08579751849166L270.1012328125,66.75440862987715L270.361696875,66.87930297851554L271.1430890625,66.42035386604915L271.6640171875,66.9224391792501L272.9663375,68.34543221976071L273.2268015625,68.57064331429339L275.570978125,70.47666148628502L276.09190625,70.95818186657763L277.13376250000005,71.09160313861705L277.3942265625,71.39004545765258L277.654690625,71.67594818345133L278.696546875,72.88626972266599L279.73840312500005,74.0103188604116L279.9988671875,74.27565665330201L280.780259375,75.13988541918135L281.3011875,75.68761485176421L281.5616515625,75.98104133350502L281.82211562500004,76.29854383426047L282.0825796875,76.53880244067732L282.34304375000005,76.7750483772584L282.6035078125,76.8237019990171L283.1244359375,77.10609363870955L283.3849,77.39299953196726L284.6872203125,78.83104008436199L284.94768437500005,79.15506317360054L285.989540625,75.92486395580421L286.7709328125,76.57391330174032L287.2918609375,77.151236174362L288.8546453125,78.66702220482479L289.3755734375,79.05875909754205L290.67789375000007,80.54846277407232L291.71975000000003,81.63740105075489L291.9802140625,81.9137736856937L292.5011421875,82.5277121705668L295.62671093750004,76.97518028531752L297.449959375,78.8114783189126L297.7104234375,79.02314665274955L298.23135156250004,79.53777155918728L298.491815625,79.79909668224192L298.7522796875,80.04788221205979L299.01274374999997,80.15622429762564L299.533671875,80.5504691089902L300.3150640625,80.04738062833033L301.3569203125,81.05155125473223L301.617384375,81.33695239680148L302.659240625,82.18462889960828L303.44063281250004,82.92697281922608L304.4824890625,83.94418462259426L305.26388125,84.84101633088923L305.52434531250003,85.08227810476504L305.784809375,85.19613761135507L306.04527343750004,85.31952720880504L306.3057375,85.60894102071009L306.826665625,86.21334941472321L307.0871296875,86.42953200212541L307.34759375,86.72596798624306L308.12898593750003,87.49389267606392L308.38945,87.79634766493521L308.64991406250005,88.07522821852136L309.1708421875,88.66208118200298L309.6917703125,88.99964703193727L309.952234375,89.2980893509728L311.77548281250006,91.30241793394084L312.556875,92.0101525762251L313.59873125,93.15225872823167L314.38012343750006,93.11865261835709L314.9010515625,93.74763861511431L315.4219796875,93.27213723957534L316.46383593750005,94.19154021569658L317.5056921875,95.27696740627285L318.287084375,96.10708847854815L318.54754843750004,96.26358260214325L318.8080125,96.59111677748814L319.06847656250005,96.79225185300618L320.63126093750003,98.53124264308381L322.19404531250007,100.00088297043524L322.7149734375,100.64491647907663L322.9754375,100.90323209975443L324.01729375,101.99718621373172L324.79868593750007,102.69137809532027L325.05915,102.94317312751494L325.8405421875,103.76175777401242L326.10100625,104.05317792083535L326.3614703125,104.29594444589954L326.8823984375,104.83765487372871L327.4033265625,105.3572956174612L328.9661109375,106.90869409271646L329.74750312500004,107.48049954431396L330.0079671875,107.75035159076963L330.789359375,108.5749552420207L331.0498234375,108.86988647494994L331.3102875,109.16230978923183L331.831215625,109.63931591595922L332.0916796875,109.92872972786427L333.6544640625,111.50621055705204L334.6963203125,112.59013299643993L334.95678437500004,112.83089318658624L335.4777125,113.3926669635943L335.998640625,113.88421901847634L336.51956875,114.41038035069194L336.7800328125,114.64311520116668L337.04049687500003,114.92199575475283L337.3009609375,115.22846341345992L337.56142500000004,115.46521093377042L338.3428171875,116.33495712067399L338.8637453125,116.91729583059039L339.3846734375,117.54277074124131L340.16606562500004,118.27759090491705L340.68699375000006,118.75008277807918L340.9474578125,118.95924319326878L341.207921875,119.0410013411726L342.77070625000005,120.65660253380027L343.0311703125,120.87128037001405L343.5520984375,121.35831817133084L344.333490625,122.11470643537383L345.37534687500005,123.24678091279097L346.1567390625,124.14110470243864L346.93813125,124.85887101931233L347.1985953125,125.06100926228933L347.7195234375,125.60422444130693L348.2404515625,125.64334797220569L348.7613796875,126.25227061978407L350.06370000000004,127.42246546064105L350.84509218750003,128.21245983455862L351.3660203125,128.76771302308356L355.27298125000004,131.89358282514982L356.31483750000007,132.92233105429582L356.835765625,133.44899397024088L357.0962296875,133.74793787300587L358.1380859375,134.88402502025878L358.65901406250003,135.37106282157558L358.919478125,135.63238794463024L359.7008703125,136.33360199843133L360.2217984375,136.82314771839552L360.7427265625,137.32723936651433L361.52411875,138.14482084555286L362.04504687499997,138.6278459770339L362.3055109375,138.89218060246537L362.8264390625,139.42385935570516L363.86829531250004,140.38539536510194L364.9101515625,141.27370014999593L366.7334,142.9765769115516L366.99386406250005,143.25194637903147L367.254328125,143.43402127282963L367.5147921875,143.70939074030946L368.0357203125,144.26063125899861L368.8171125,144.88460141846113L369.07757656250004,145.12736794352534L369.338040625,145.3987247411694L370.1194328125,146.08890395292215L370.379896875,146.3783177648272L370.6403609375,146.70685510763101L370.900825,146.8849173315934L372.9845375,148.755824642522L373.2450015625,149.00511175606937L374.02639375,149.81065522560053L375.8496421875,151.587766379118L376.631034375,152.31807228922847L378.714746875,154.1639004136835L378.97521093750004,154.47789182833264L379.49613906250005,155.04117035652914L379.756603125,155.22926425508092L380.01706718750006,155.48557354084085L380.798459375,156.25801248422692L381.0589234375,156.45413172245028L381.57985156250004,156.91358241864617L382.10077968750005,157.3925948802914L383.4031,158.72831235187397L383.66356406250003,158.93646959960464L384.70542031250005,159.96371307756223L384.96588437500003,160.20798435381482L385.22634843750006,160.45175404633798L385.4868125,160.38052915675306L386.26820468750003,160.95885519683364L386.52866875,161.15898710489276L386.78913281250004,161.36864910381183L387.57052500000003,162.09845343019285L387.83098906250007,162.33269303185605L389.91470156250006,164.18805124717102L390.95655781249997,165.16914902201722L391.4774859375,165.72991963156636L391.9984140625,166.21495109796527L392.258878125,166.40755925008233L393.0402703125,167.13686199273386L393.8216625,167.9429070459945L394.0821265625,168.18818148970607L394.342590625,168.4199131727219L394.6030546875,168.6852509656123L395.38444687500004,169.08701953291896L397.468159375,170.83905149996284L397.98908750000004,171.27693409579146L398.51001562500005,171.6731852420739L399.03094375,172.22241942584517L399.2914078125,172.46368119972098L400.07280000000003,173.23260905700076L400.59372812500004,173.61280952394011L401.11465625000005,174.142481942262L402.4169765625,175.27204850103178L404.240225,176.982950602259L404.5006890625,177.20465061068538L405.28208125000003,177.93997235809059L405.80300937500004,178.26750653343547L407.36579375,179.5350086178099L407.6262578125,179.76774346828464L408.1471859375,180.2507685997657L408.6681140625,180.71523513325627L409.7099703125,181.62560960224704L410.7518265625,182.602193123528L411.2727546875,183.04358680546292L412.575075,184.25089884230073L412.8355390625,184.52526514232167L413.09600312500004,184.7885966002942L414.9192515625,186.00242922561515L415.17971562500003,186.23867516219624L416.74250000000006,187.52373267710217L417.78435625000003,188.46871642342643L418.0448203125,188.6718578338624L418.30528437500004,188.91964019622128L420.6494609375,190.60997736454019L421.1703890625,191.10855159163484L421.95178125000007,191.81327673154223L423.514565625,193.13093718886384L423.7750296875,193.3616657044207L424.81688593750005,194.28006551308297L425.598278125,194.9802763994252L425.8587421875,195.20348115903997L426.11920625,195.43671759324425L426.90059843750004,196.0501544943878L429.765703125,188.67336258505077L430.5470953125,189.33394835676472L431.3284875,189.69659339317263L431.58895156250003,189.84857326320247L431.849415625,189.9694549420051L432.63080781250005,190.66214207240523L432.891271875,190.86879456894744L433.1517359375,191.12861494081366L437.058696875,193.97058835199908L437.84008906250006,194.54440013851445L438.3610171875,195.0259205188071L438.62148125,195.17790038883695L439.142409375,195.62982732909077L439.40287343750003,195.80738796932363L440.184265625,196.42584070776195L440.9656578125,197.14310544090623L441.226121875,197.2980948133129L441.74705,197.73698057660044L442.267978125,198.22451996164673L442.78890625,198.68045957173626L443.309834375,199.03257134982528L444.0912265625,199.7904643650567L444.61215468750004,200.23486754936837L445.13308281250005,200.6175759349551L445.65401093750006,201.07552187996262L446.1749390625,201.5906483701298L446.6958671875,201.82037371822776L449.30050781250003,203.99072651565083L450.34236406250005,204.75413695190642L451.3842203125,205.6198704689742L451.644684375,205.8716655011689L451.90514843750003,206.10640668656157L452.42607656250004,206.49362932571353L453.20746875000003,207.07897753800677L453.9888609375,207.69542394152717L454.50978906250003,208.11474793936537L455.29118125,208.70410882149432L456.853965625,209.98063941299924L457.37489375,210.30014824867257L457.895821875,210.68737088782456L458.1562859375,210.92662632678244L458.93767812500005,208.39513324413988L459.19814218749997,208.55714478875922L459.45860625,208.81445724197806L460.2399984375,209.4609986692668L462.3237109375,211.1683896843877L463.62603125000004,212.2518105400461L464.14695937500005,212.67113453788426L465.70974375000003,213.92860494766924L466.75160000000005,214.68298687679436L467.0120640625,214.90769638759758L467.272528125,215.13541540077762L467.5329921875,215.30495070133898L469.0957765625,216.47364079100754L469.87716875,217.0700238453491L471.7004171875,218.52511824454592L472.22134531250003,218.81653839136885L473.0027375,219.42596262267668L473.2632015625,219.64164362634943L474.04459375000005,220.17833821688393L474.3050578125,220.37997487613143L475.607378125,221.2567432352476L475.8678421875,221.47693849248554L476.12830625000004,221.58076632448615L476.9096984375,222.24737110095376L477.691090625,222.97366434122847L477.9515546875,223.1502218140024L478.21201875,223.33931888001317L478.4724828125,223.535939701966L478.73294687500004,223.75763971039237L480.29573125,224.81046395855302L481.85851562500005,225.65613412644194L483.42130000000003,226.81629729270944L484.46315625000005,226.91209978503855L484.98408437500007,227.26722106550434L486.2864046875,228.3024898831335L487.32826093750003,229.08445891737946L489.151509375,229.99383021891128L489.6724375,230.32638023155087L490.45382968750005,230.87360808040427L490.9747578125,231.23976420291842L491.235221875,231.39876624516089L492.0166140625,232.02073006970556L492.277078125,232.21584614046992L492.79800625,232.62012262642395L493.05847031250005,232.81323236227047L493.8398625,233.46228170820655L498.26775156250005,236.76972482034148L498.52821562500003,236.9949359148742L498.7886796875,237.18704248326176L499.04914375,237.39519973099243L500.091,238.08588052647465L500.87239218750005,238.63812421262276L501.9142484375,239.28466563991154L502.1747125,239.45119143809603L502.43517656250003,239.6613550207446L503.47703281250006,240.40269577290343L503.73749687500003,240.59831342739733L503.9979609375,240.77537248390072L504.5188890625,241.1540681996517L505.03981718750003,241.55383043204048L505.56074531250005,241.89791687045792L506.08167343750006,242.27209833264362L508.16538593750005,243.76982734884547L509.46770625,244.42238778088787L509.7281703125,244.57185973227035L512.072346875,246.0956711024047L512.3328109375001,246.24815255616406L515.1979156250001,248.18476733565342L516.5002359375001,249.04899610153282L517.281628125,249.20900131123418L517.5420921875001,249.371514439583L518.323484375,249.9408119725331L518.8444125,250.32853619541453L519.1048765625001,250.5106110892127L521.1885890625,251.96921657451574L521.449053125,252.14176137745397L521.7095171875001,252.36546772079822L521.96998125,252.54403152849005L522.7513734375001,252.9794062056713L523.2723015625,253.38368269162532L523.5327656249999,253.58531935087288L523.7932296875,253.76488632602366L525.8769421875,255.17533977329748L527.1792625,256.1062791751965L527.4397265625,256.2462210357191L528.2211187500001,256.76335386080416L530.0443671875,257.9295360318253L530.5652953125,258.2580733746292L533.1699359375001,259.228136307427L534.47225625,260.0306702745814L534.7327203125,260.20120874260164L535.2536484375,260.56586011392744L535.5141125,260.68724337645955L537.076896875,261.7074646822045L537.3373609375001,261.8659651407175L538.9001453125001,262.8380344084332L539.160609375,263.0341536466566L541.5047859375001,264.52636524183424L542.5466421875001,265.22557296071744L543.0675703125,265.52150736110565L544.1094265625001,266.2031596494574L546.453603125,267.51730902067266L546.97453125,267.8588875404427L547.7559234375001,268.40310588691926L548.2768515625,268.6689452635392L548.537315625,268.8314583918879L549.8396359375001,269.41580343672223L550.621028125,269.9851009696724L551.9233484375001,270.8036856161698L552.4442765625,271.1046358538527L553.4861328125,271.72509492720894L554.0070609375,272.0772067052979L554.2675250000001,272.2452372546709L554.5279890625001,272.4393501579763L555.0489171875,272.69666261119517L555.5698453125,272.98557483937077L556.872165625,273.7710549597231L557.6535578125,274.2661181007114L558.1744859375,274.55753824753435L558.955878125,275.0495918861459L559.7372703125001,275.47744280738505L560.7791265625,276.0698131918909L561.56051875,276.56337158169083L562.602375,277.1301611959936L562.8628390625,277.2776268124582L563.123303125,277.42810193129964L564.9465515625001,278.41572029462895L565.4674796875,278.72670220690134L565.9884078125,279.04269995646837L566.7698,279.53475359507985L567.0302640625,279.66416219728353L568.5930484375,280.60061902020675L568.8535125000001,280.78369708146386L569.8953687500001,281.3715532124044L570.9372250000001,281.92128897990517L571.7186171875,282.39478402052623L571.97908125,282.53924013461403L572.2395453125,282.68419783243127L572.500009375,282.8492188794274L573.0209375000001,283.1526770357577L573.8023296875,283.56899153121896L575.6255781250001,284.5606225643841L575.8860421875,284.7276499462981L577.1883625,285.43889567468864L577.709290625,285.69570654417805L577.9697546875,285.8160866392512L578.2302187500001,285.960542753339L580.5743953125001,287.3123109042646L581.6162515625,287.8956527816399L581.876715625,288.035093058433L582.1371796875,288.1464446463757L582.39764375,288.3039419374297L582.918571875,288.55824488827176L584.2208921875,289.0839046367579L584.4813562500001,289.0793903831927L585.002284375,289.3066078126432L585.2627484375,289.4234768216101L585.5232125000001,289.57997094520516L586.3046046875,290.0118345362801L586.8255328125,290.16381440630994L587.085996875,290.3077689366683L587.3464609375,290.47228839993494L589.6906375,291.69765745103376L590.4720296875,291.394700878433L592.8162062499999,292.52828010703854L594.378990625,293.3252966531687L594.6394546875,293.4717591021744L596.2022390625001,294.2186172753574L596.4627031250001,294.35855913587994L596.7231671875,294.49749782894355L597.2440953125001,294.7693562103171L598.8068796875,295.59245511037983L600.3696640625001,296.3262721065966L600.630128125,296.47474089052014L602.713840625,297.48041626811045L602.9743046875,297.60029477945415L603.755696875,297.91027352426755L604.5370890625001,298.2784359816996L605.5789453125001,298.8111179023983L606.0998734375,299.0328179108247L607.1417296875001,299.48524643480795L608.7045140625,300.1663971394302L609.7463703125001,300.66898403636065L610.006834375,300.77632295446756L610.7882265625001,301.0913175365757L611.3091546875,301.29997636803574L612.0905468750001,301.69422117940036L613.132403125,302.16019246407933L613.65333125,302.4124890800035L614.174259375,302.6166336578984L614.4347234375,302.71995990616955L614.6951875,302.8518764270205L616.5184359375,303.72212419765356L617.0393640625001,303.9488400433747L617.2998281250001,304.075740726931L618.8626125,304.831125823515L619.1230765624999,304.94498533010506L619.383540625,305.0387814875162L619.90446875,305.2805448451214L620.425396875,305.54086680071714L623.5509656250001,306.9703804297108L625.8951421875,307.9459607835329L626.9369984375,308.39588138886876L628.23931875,308.936588649239L628.4997828125,309.06700041890167L629.802103125,309.59867917214143L630.0625671875,309.71454501364934L630.32303125,309.7872746544227L631.3648875,310.2271635851692L631.6253515625,310.3360072544645L633.1881359375001,310.9459330695018L634.2299921875,311.37980299549463L634.49045625,311.48714191360153L634.7509203124999,311.59648716662633L635.2718484375,311.813171337758L635.5323125,311.9190055046765L636.8346328125,312.49081095627395L637.616025,312.79577386379265L638.1369531250001,313.0164707047601L638.9183453125,313.3134082726072L639.6997375,313.63091077336264L640.4811296875,313.958946532437L641.0020578125,314.1686085313561L642.5648421875001,314.76348683450925L642.82530625,314.8487560685194L643.3462343750001,315.0448753067427L643.8671625000001,315.2455087985313L646.2113390625,316.131305664778L646.4718031250001,316.2436604201796L646.7322671875,316.3183963958708L646.99273125,316.4312527350019L650.639228125,317.75693853199505L651.681084375,318.1396469175818L652.722940625,318.51282521230854L652.9834046875001,318.60260869988394L653.764796875,318.8814892534701L654.0252609375001,318.9737806596928L654.806653125,319.25115646209053L655.32758125,319.4277139348645L655.8485093749999,319.60226507272057L657.1508296875,320.0872965391195L657.932221875,320.33959315504364L658.45315,320.53571239326703L658.7136140625,320.60392778047515L659.2345421875001,320.7925232627564L660.015934375,321.0769212373667L660.7973265625,321.3312241882088L661.3182546875,321.51981967049005L662.099646875,321.8107382335835L662.8810390625,322.0635364332371L663.141503125,322.1422850787642L663.9228953125,322.40060069944195L664.7042875000001,322.67245908081554L666.788,323.37919055564083L667.0484640625,323.47098037813413L667.5693921875001,323.6084143200093L668.8717125000001,324.0242272317412L670.1740328125001,324.4550876553572L670.434496875,324.5233030425653L670.6949609375001,324.616597616247L671.2158890625,324.78613291680836L671.476353125,324.89196708372685L671.99728125,325.07303881006607L672.518209375,325.2335456034969L673.2996015625,325.49487072655154L673.560065625,325.58114312802064L674.601921875,325.90616938471817L675.9042421875001,326.2994110286238L676.4251703125,326.4468766450884L677.9879546875001,326.9364223650526L678.24841875,326.9976155800481L678.5088828125,327.0648277997973L678.769346875,327.1576207897495L679.0298109375001,327.2519185308901L679.811203125,327.4550599413261L680.3321312500001,327.62058257205166L681.1135234375001,327.8523142550675L681.3739875000001,327.9340724029713L682.1553796875,328.15527082766823L682.6763078125,328.32731404687695L683.1972359375001,328.46775749112896L683.4577,328.5470077203855L683.7181640625,328.61622627505255L684.7600203125,328.91918284765336L685.8018765625001,329.21561883177094L686.062340625,329.2863421376265L686.3228046875,329.3395100129504L687.3646609374999,329.65651092997643L687.625125,329.72623106837295L688.146053125,329.87971568959125L688.4065171875,329.96398175614246L688.9274453125,330.0878729373219L689.187909375,330.16361208047203L689.4483734375,330.2383480561633L689.9693015625,330.39885484959416L690.229765625,330.47359082528544L690.7506937500001,330.62105644175006L691.5320859375,330.8352326942344L692.0530140625,330.99975215750106L692.313478125,331.0895356450764L693.8762625,331.3413306772711L694.1367265625,331.40252389226663L694.397190625,331.48478362389994L695.439046875,331.77821010564077L695.9599750000001,331.91614563124546L696.480903125,332.0350209751302L697.522759375,332.3319585429773L699.3460078125,332.81999951175305L700.1274000000001,333.0266520082953L700.648328125,333.1645875338999L701.1692562500001,333.2914882174562L701.4297203125001,333.35970360466433L702.4715765625001,333.65864750742935L702.9925046875,333.80310362151715L703.25296875,333.86780792261897L703.5134328125,333.9194710467545L704.2948250000001,334.1000411893643L704.5552890625,334.1466884762051L705.3366812500001,334.3212396140612L705.5971453125001,334.3854423314335L706.3785375000001,334.58306632084526L707.1599296875,334.70144008100056L708.2017859375,334.983831720693L709.7645703125,335.37857811578704L710.025034375,335.4377649958647L710.8064265625001,335.61030979880286L711.066890625,335.66448084158577L711.5878187500001,335.77733718071687L712.1087468750001,335.89571094087216L712.3692109375,335.9533930697614L712.8901390625001,336.0652462414335L713.150603125,336.1289473750764L713.67153125,336.276412991541L713.9319953125,336.3426220438312L714.192459375,336.38776457948364L714.4529234375,336.45497679923284L714.9738515625,336.58338223397755L715.4947796875,336.70978133380436L715.7552437500001,336.7669618789641L716.7971,337.0257790833714L717.0575640625001,337.0874738820964L717.5784921875,337.2073523934401L718.359884375,337.3718718567067L718.8808124999999,337.4812171097315L719.6622046875,337.63068906111397L722.7877734375,338.3053191772531L723.8296296875,338.53554610908054L724.611021875,338.70307507472404L725.9133421875,338.9749334560976L726.4342703125001,339.0677264460498L727.2156625,339.2327474930459L728.7784468750001,339.51112646290255L729.0389109375,339.56379275449706L729.5598390625,339.66661741903874L730.34123125,339.81007036566757L731.1226234375,339.9931484269247L731.3830875,340.0347798764708L731.6435515625001,340.0959730914663L733.9877281250001,340.54438894561383L734.2481921875,340.60758849552724L734.50865625,340.6537341986386L734.7691203125,340.69335931326685L735.2900484375,340.79166972424326L735.8109765625001,340.8804500443597L736.59236875,341.0218966560707L737.8946890625001,341.26666951605273L738.4156171875001,341.3589609222755L738.67608125,341.40711296030474L738.9365453125001,341.45977925189925L739.1970093750001,341.50742970619905L741.280721875,341.8720810775248L743.6248984375001,342.2788654821262L744.92721875,342.50156865801154L747.01093125,342.83813134048694L747.2713953125001,342.8867849622456L748.0527875,343.0106761434251L749.09464375,343.1807130277159L749.8760359375,343.3051057926249L750.9178921875,343.4841711840462L751.699284375,343.6050528628488L752.4806765625,343.70085535517785L752.7411406250001,343.75001056066606L753.0016046875,343.7916420102122L753.5225328125,343.8804223303286L755.6062453124999,344.18939790768303L756.1271734375,344.2546037925144L756.6481015625,344.34037461025395L757.1690296875,344.4181200883221L758.47135,344.6001949821202L759.7736703125,344.76822553149316L761.8573828125,345.0370744104899L762.117846875,345.07820427630656L762.3783109375,345.1163246397463L763.4201671875,345.2612823375636L764.2015593750001,345.3791545139894L764.9829515625,345.46843641783533L767.0666640625,345.7623644833056L767.5875921875,345.8396083776442L768.6294484375001,345.9720264822247L768.8899125,345.9956009175099L769.1503765625,346.0272006924666L769.4108406250001,346.05428621385806L769.9317687500001,346.107454089182L770.4526968750001,346.169148887907L771.2340890625,346.26796088261284L772.01548125,346.36526812613033L772.2759453125,346.3923536475218L772.7968734375,346.450035776411L773.3178015625,346.5107274076771L775.1410500000001,346.72841474626773L776.18290625,346.85381067863557L776.703834375,346.9069785539595L777.2247625,346.9661654340372L777.7456906250001,347.0253523141148L778.0061546875,347.05293941923577L778.5270828125,347.10761204574817L779.308475,347.1888686099225L779.8294031250001,347.2470523225412L780.6107953125,347.3157692934788L781.1317234375001,347.3654260826965L781.9131156249999,347.4426699770351L782.1735796875,347.47126024961494L782.43404375,347.5043647757601L785.038684375,347.7812389944283L785.2991484375001,347.7987944249598L785.8200765625,347.84744804671857L786.080540625,347.87403198438057L786.3410046875001,347.89911117085416L786.6014687500001,347.92017768749196L787.3828609375,347.9883930747L787.643325,348.00093266793687L788.164253125,348.0541005432608L788.9456453125,348.128836518952L789.4665734375001,348.1840107291939L789.9875015625,348.2281500973874L790.5084296875001,348.2752989679577L792.85260625,348.4889736367126L793.1130703125,348.51054173707985L793.8944625,348.57725237309955L794.415390625,348.6203885738341L794.93631875,348.66753744440445L795.457246875,348.71117522886846L795.9781750000001,348.7467876736609L796.2386390625,348.76033043435666L797.0200312500001,348.82453315172904L798.582815625,348.9534401702032L798.8432796875001,348.9704940170052L799.8851359375001,349.05977592085117L800.666528125,349.115953298552L801.4479203125001,349.1736354274412L801.9688484375001,349.2152668769873L802.2293125000001,349.2343270587072L803.27116875,349.3125741205048L804.313025,349.3943322684086L805.0944171875001,349.4495064786505L805.3548812500001,349.45953815323986L805.6153453125,349.4740840813946L805.875809375,349.49214109565554L806.6572015625001,349.55082639200367L807.6990578125,349.62255286531814L808.2199859375,349.659670061299L809.2618421875001,349.72688228104823L809.52230625,349.74192979293235L810.043234375,349.77001848178276L810.3036984375001,349.7860691611258L811.6060187500001,349.86883047648865L812.3874109375001,349.9089571748463L812.6478750000001,349.92350310300105L813.168803125,349.9581123803345L813.68973125,349.9922200739386L814.210659375,350.01830242787116L814.4711234375,350.0313436048374L815.252515625,350.0784924754077L815.5129796875,350.0895273174561L816.0339078125,350.1146065039297L816.8153000000001,350.1587458721232L817.0757640625001,350.1732918002778L817.5966921875,350.1963646518335L819.1594765625,350.2766180485489L819.94086875,350.319252665554L820.7222609375,350.3563698615349L820.9827250000001,350.3729221246075L822.0245812500001,350.424585248743L823.587365625,350.49430538713955L826.9733984375,350.6573200992178L828.0152546875,350.69794838130497L828.5361828125001,350.7200180654017L829.838503125,350.7761954431025L830.6198953125,350.81431580654237L831.1408234375,350.83738865809806L832.1826796875,350.8745058540789L833.4850000000001,350.92767372940295L834.52685625,350.9612798392775L835.5687125000001,350.9963907003405L836.3501046875,351.0244793891909L838.6942812500001,351.0997169486117L840.257065625,351.1528848239356L842.8617062500001,351.2301287182742L843.1221703125001,351.23965880913414L843.3826343750001,351.2451762301584L844.1640265625001,351.2682490817141L844.4244906250001,351.2767760051151L845.7268109375,351.3103821149897L846.2477390625,351.3244264594149L847.2895953125001,351.35101039707683L847.550059375,351.3585341530189L847.8105234375,351.36354999031363L848.0709875,351.3675626601494L848.3314515625001,351.37558799982094L848.5919156250001,351.3806038371157L848.8523796875,351.3866228418693L850.9360921875,351.4342732961691L851.717484375,351.44982239178273L853.28026875,351.48292691792784L854.322125,351.5049966020246L856.926765625,351.55716130988964L857.1872296875,351.5611739797254L857.44769375,351.56568823329064L859.2709421875,351.5962848407884L860.5732624999999,351.61634818996725L861.3546546875,351.6293893669335L861.8755828125,351.6369131228756L862.136046875,351.6404242089819L862.3965109375,351.6439352950882L862.656975,351.6474463811945L863.69883125,351.66399864426705L865.78254375,351.69208733311746L866.0430078125,351.69509683549427L866.8244,351.70613167754266L867.345328125,351.71215068229634L867.6057921875,351.71516018467315L868.1267203125001,351.72017602196786L869.4290406250001,351.7347219501225L871.2522890625,351.75428371557194L871.7732171875,351.75980113659614L872.554609375,351.76682330880874L873.0755375,351.77133756237396L874.3778578125001,351.7838771556107L875.15925,351.7898961603644L875.9406421875001,351.79591516511806L878.28481875,351.8109626770022L878.5452828125001,351.8129690119201L879.326675,351.81748326548535L880.1080671875001,351.82199751905057L880.6289953125,351.8260101888863L880.8894593750001,351.82751494007476L882.45224375,351.8365434472052L883.2336359375,351.8390513658526L883.4941,351.84055611704105L884.0150281250001,351.84306403568837L884.7964203125,351.8470767055241L885.3173484375001,351.8480798729831L885.8382765625,351.850086207901L886.61966875,351.85209254281887L886.8801328124999,351.8535972940073L887.140596875,351.85460046146625L888.9638453125,351.8611210499493L890.2661656250001,351.8646321360556L890.78709375,351.8656353035146L891.0475578125,351.86663847097356L891.3080218750001,351.867140054703L892.349878125,351.8691463896209L892.6103421875,351.86964797335037L893.9126625,351.8716543082682L894.1731265625,351.8716543082682L895.2149828125,351.87315905945667L895.9963750000001,351.8741622269156L896.2568390625,351.8741622269156L896.7777671875001,351.8741622269156L898.6010156250001,351.87566697810405L898.8614796875,351.87667014556297L900.1638,351.87667014556297L903.28936875,351.87717172929246L904.5916890625,351.87717172929246L905.1126171875001,351.87717172929246L905.37308125,351.87717172929246L906.1544734375001,351.87717172929246L906.4149375000001,351.87717172929246L908.7591140625,351.87717172929246L910.3218984375001,351.87717172929246L911.3637546875001,351.87717172929246L911.6242187500001,351.87717172929246" style="fill: none;" fill="none"></path></g><g><path stroke="rgb(0, 119, 187)" stroke-width="2px" d="M190.138765625,48.0011961523975L216.185171875,42.35286177481915L263.068703125,59.996069458978425L395.90537500000005,169.53694013825486L458.41675000000004,207.97530766257228L596.4627031250001,294.3595623033389L625.11375,307.6309662014248L830.880359375,350.8263538160497L911.6242187500001,351.87667014556297" style="fill: none;" fill="none"></path></g></g></g></g></g></g><g transform="translate(72, 377)" clip-path="url(#clip_1)"><clipPath id="clip_1"><rect width="1041" height="23"></rect></clipPath><g><g><line x1="0" y1="0" x2="0" y2="5" style="visibility: inherit;" fill="rgb(0, 0, 0)" stroke="rgb(204, 204, 204)" stroke-width="1px"></line><line x1="130.23203125" y1="0" x2="130.23203125" y2="5" style="visibility: inherit;" fill="rgb(0, 0, 0)" stroke="rgb(204, 204, 204)" stroke-width="1px"></line><line x1="260.4640625" y1="0" x2="260.4640625" y2="5" style="visibility: inherit;" fill="rgb(0, 0, 0)" stroke="rgb(204, 204, 204)" stroke-width="1px"></line><line x1="390.69609375000005" y1="0" x2="390.69609375000005" y2="5" style="visibility: inherit;" fill="rgb(0, 0, 0)" stroke="rgb(204, 204, 204)" stroke-width="1px"></line><line x1="520.928125" y1="0" x2="520.928125" y2="5" style="visibility: inherit;" fill="rgb(0, 0, 0)" stroke="rgb(204, 204, 204)" stroke-width="1px"></line><line x1="651.16015625" y1="0" x2="651.16015625" y2="5" style="visibility: inherit;" fill="rgb(0, 0, 0)" stroke="rgb(204, 204, 204)" stroke-width="1px"></line><line x1="781.3921875000001" y1="0" x2="781.3921875000001" y2="5" style="visibility: inherit;" fill="rgb(0, 0, 0)" stroke="rgb(204, 204, 204)" stroke-width="1px"></line><line x1="911.6242187500001" y1="0" x2="911.6242187500001" y2="5" style="visibility: inherit;" fill="rgb(0, 0, 0)" stroke="rgb(204, 204, 204)" stroke-width="1px"></line><line x1="1041.85625" y1="0" x2="1041.85625" y2="5" style="visibility: inherit;" fill="rgb(0, 0, 0)" stroke="rgb(204, 204, 204)" stroke-width="1px"></line></g><g transform="translate(0, 8)"><text x="0" y="0" dx="0em" dy="0.95em" style="text-anchor: middle; visibility: hidden; font-family: Roboto, sans-serif; font-size: 12px; font-weight: 200;" fill="rgb(33, 33, 33)" stroke="none" stroke-width="1px">-50k</text><text x="130.23203125" y="0" dx="0em" dy="0.95em" style="text-anchor: middle; visibility: inherit; font-family: Roboto, sans-serif; font-size: 12px; font-weight: 200;" fill="rgb(33, 33, 33)" stroke="none" stroke-width="1px">0</text><text x="260.4640625" y="0" dx="0em" dy="0.95em" style="text-anchor: middle; visibility: inherit; font-family: Roboto, sans-serif; font-size: 12px; font-weight: 200;" fill="rgb(33, 33, 33)" stroke="none" stroke-width="1px">50k</text><text x="390.69609375000005" y="0" dx="0em" dy="0.95em" style="text-anchor: middle; visibility: inherit; font-family: Roboto, sans-serif; font-size: 12px; font-weight: 200;" fill="rgb(33, 33, 33)" stroke="none" stroke-width="1px">100k</text><text x="520.928125" y="0" dx="0em" dy="0.95em" style="text-anchor: middle; visibility: inherit; font-family: Roboto, sans-serif; font-size: 12px; font-weight: 200;" fill="rgb(33, 33, 33)" stroke="none" stroke-width="1px">150k</text><text x="651.16015625" y="0" dx="0em" dy="0.95em" style="text-anchor: middle; visibility: inherit; font-family: Roboto, sans-serif; font-size: 12px; font-weight: 200;" fill="rgb(33, 33, 33)" stroke="none" stroke-width="1px">200k</text><text x="781.3921875000001" y="0" dx="0em" dy="0.95em" style="text-anchor: middle; visibility: inherit; font-family: Roboto, sans-serif; font-size: 12px; font-weight: 200;" fill="rgb(33, 33, 33)" stroke="none" stroke-width="1px">250k</text><text x="911.6242187500001" y="0" dx="0em" dy="0.95em" style="text-anchor: middle; visibility: inherit; font-family: Roboto, sans-serif; font-size: 12px; font-weight: 200;" fill="rgb(33, 33, 33)" stroke="none" stroke-width="1px">300k</text><text x="1041.85625" y="0" dx="0em" dy="0.95em" style="text-anchor: middle; visibility: hidden; font-family: Roboto, sans-serif; font-size: 12px; font-weight: 200;" fill="rgb(33, 33, 33)" stroke="none" stroke-width="1px">350k</text></g><line x1="0" y1="0" x2="1041.85625" y2="0" fill="rgb(0, 0, 0)" stroke="rgb(204, 204, 204)" stroke-width="1px"></line></g></g></g></g></svg>