<svg viewBox="0 0 1114.2000732421875 400" xmlns="http://www.w3.org/2000/svg"><g><g><g><g><g><line x1="41.171875" y1="377" x2="36.171875" y2="377" style="visibility: inherit;" fill="rgb(0, 0, 0)" stroke="rgb(204, 204, 204)" stroke-width="1px"></line><line x1="41.171875" y1="335.1111111111111" x2="36.171875" y2="335.1111111111111" style="visibility: inherit;" fill="rgb(0, 0, 0)" stroke="rgb(204, 204, 204)" stroke-width="1px"></line><line x1="41.171875" y1="293.22222222222223" x2="36.171875" y2="293.22222222222223" style="visibility: inherit;" fill="rgb(0, 0, 0)" stroke="rgb(204, 204, 204)" stroke-width="1px"></line><line x1="41.171875" y1="251.33333333333337" x2="36.171875" y2="251.33333333333337" style="visibility: inherit;" fill="rgb(0, 0, 0)" stroke="rgb(204, 204, 204)" stroke-width="1px"></line><line x1="41.171875" y1="209.44444444444446" x2="36.171875" y2="209.44444444444446" style="visibility: inherit;" fill="rgb(0, 0, 0)" stroke="rgb(204, 204, 204)" stroke-width="1px"></line><line x1="41.171875" y1="167.55555555555554" x2="36.171875" y2="167.55555555555554" style="visibility: inherit;" fill="rgb(0, 0, 0)" stroke="rgb(204, 204, 204)" stroke-width="1px"></line><line x1="41.171875" y1="125.66666666666669" x2="36.171875" y2="125.66666666666669" style="visibility: inherit;" fill="rgb(0, 0, 0)" stroke="rgb(204, 204, 204)" stroke-width="1px"></line><line x1="41.171875" y1="83.77777777777781" x2="36.171875" y2="83.77777777777781" style="visibility: inherit;" fill="rgb(0, 0, 0)" stroke="rgb(204, 204, 204)" stroke-width="1px"></line><line x1="41.171875" y1="41.888888888888864" x2="36.171875" y2="41.888888888888864" style="visibility: inherit;" fill="rgb(0, 0, 0)" stroke="rgb(204, 204, 204)" stroke-width="1px"></line><line x1="41.171875" y1="0" x2="36.171875" y2="0" style="visibility: inherit;" fill="rgb(0, 0, 0)" stroke="rgb(204, 204, 204)" stroke-width="1px"></line></g><g transform="translate(31.171875, 0)"><text x="0" y="377" dx="0em" dy="0.3em" style="text-anchor: end; visibility: hidden; font-family: Roboto, sans-serif; font-size: 12px; font-weight: 200;" fill="rgb(33, 33, 33)" stroke="none" stroke-width="1px">0</text><text x="0" y="335.1111111111111" dx="0em" dy="0.3em" style="text-anchor: end; visibility: inherit; font-family: Roboto, sans-serif; font-size: 12px; font-weight: 200;" fill="rgb(33, 33, 33)" stroke="none" stroke-width="1px">0.1</text><text x="0" y="293.22222222222223" dx="0em" dy="0.3em" style="text-anchor: end; visibility: inherit; font-family: Roboto, sans-serif; font-size: 12px; font-weight: 200;" fill="rgb(33, 33, 33)" stroke="none" stroke-width="1px">0.2</text><text x="0" y="251.33333333333337" dx="0em" dy="0.3em" style="text-anchor: end; visibility: inherit; font-family: Roboto, sans-serif; font-size: 12px; font-weight: 200;" fill="rgb(33, 33, 33)" stroke="none" stroke-width="1px">0.3</text><text x="0" y="209.44444444444446" dx="0em" dy="0.3em" style="text-anchor: end; visibility: inherit; font-family: Roboto, sans-serif; font-size: 12px; font-weight: 200;" fill="rgb(33, 33, 33)" stroke="none" stroke-width="1px">0.4</text><text x="0" y="167.55555555555554" dx="0em" dy="0.3em" style="text-anchor: end; visibility: inherit; font-family: Roboto, sans-serif; font-size: 12px; font-weight: 200;" fill="rgb(33, 33, 33)" stroke="none" stroke-width="1px">0.5</text><text x="0" y="125.66666666666669" dx="0em" dy="0.3em" style="text-anchor: end; visibility: inherit; font-family: Roboto, sans-serif; font-size: 12px; font-weight: 200;" fill="rgb(33, 33, 33)" stroke="none" stroke-width="1px">0.6</text><text x="0" y="83.77777777777781" dx="0em" dy="0.3em" style="text-anchor: end; visibility: inherit; font-family: Roboto, sans-serif; font-size: 12px; font-weight: 200;" fill="rgb(33, 33, 33)" stroke="none" stroke-width="1px">0.7</text><text x="0" y="41.888888888888864" dx="0em" dy="0.3em" style="text-anchor: end; visibility: inherit; font-family: Roboto, sans-serif; font-size: 12px; font-weight: 200;" fill="rgb(33, 33, 33)" stroke="none" stroke-width="1px">0.8</text><text x="0" y="0" dx="0em" dy="0.3em" style="text-anchor: end; visibility: hidden; font-family: Roboto, sans-serif; font-size: 12px; font-weight: 200;" fill="rgb(33, 33, 33)" stroke="none" stroke-width="1px">0.9</text></g><line x1="41.171875" y1="0" x2="41.171875" y2="377" fill="rgb(0, 0, 0)" stroke="rgb(204, 204, 204)" stroke-width="1px"></line></g></g><g transform="translate(41, 0)" clip-path="url(#clip_0)"><clipPath id="clip_0"><rect width="1073" height="377"></rect></clipPath><g><g><g><line x1="0" y1="0" x2="0" y2="377" fill="rgb(0, 0, 0)" stroke="rgb(66, 66, 66)" stroke-width="1px" opacity="0.25"></line><line x1="134.128515625" y1="0" x2="134.128515625" y2="377" fill="rgb(0, 0, 0)" stroke="rgb(66, 66, 66)" stroke-width="1px" opacity="0.25"></line><line x1="268.25703125" y1="0" x2="268.25703125" y2="377" fill="rgb(0, 0, 0)" stroke="rgb(66, 66, 66)" stroke-width="1px" opacity="0.25"></line><line x1="402.38554687500005" y1="0" x2="402.38554687500005" y2="377" fill="rgb(0, 0, 0)" stroke="rgb(66, 66, 66)" stroke-width="1px" opacity="0.25"></line><line x1="536.5140625" y1="0" x2="536.5140625" y2="377" fill="rgb(0, 0, 0)" stroke="rgb(66, 66, 66)" stroke-width="1px" opacity="0.25"></line><line x1="670.642578125" y1="0" x2="670.642578125" y2="377" fill="rgb(0, 0, 0)" stroke="rgb(66, 66, 66)" stroke-width="1px" opacity="0.25"></line><line x1="804.7710937500001" y1="0" x2="804.7710937500001" y2="377" fill="rgb(0, 0, 0)" stroke="rgb(66, 66, 66)" stroke-width="1px" opacity="0.25"></line><line x1="938.8996093750001" y1="0" x2="938.8996093750001" y2="377" fill="rgb(0, 0, 0)" stroke="rgb(66, 66, 66)" stroke-width="1px" opacity="0.25"></line><line x1="1073.028125" y1="0" x2="1073.028125" y2="377" fill="rgb(0, 0, 0)" stroke="rgb(66, 66, 66)" stroke-width="1px" opacity="0.25"></line></g><g><line x1="0" y1="377" x2="1073.028125" y2="377" fill="rgb(0, 0, 0)" stroke="rgb(66, 66, 66)" stroke-width="1px" opacity="0.25"></line><line x1="0" y1="335.1111111111111" x2="1073.028125" y2="335.1111111111111" fill="rgb(0, 0, 0)" stroke="rgb(66, 66, 66)" stroke-width="1px" opacity="0.25"></line><line x1="0" y1="293.22222222222223" x2="1073.028125" y2="293.22222222222223" fill="rgb(0, 0, 0)" stroke="rgb(66, 66, 66)" stroke-width="1px" opacity="0.25"></line><line x1="0" y1="251.33333333333337" x2="1073.028125" y2="251.33333333333337" fill="rgb(0, 0, 0)" stroke="rgb(66, 66, 66)" stroke-width="1px" opacity="0.25"></line><line x1="0" y1="209.44444444444446" x2="1073.028125" y2="209.44444444444446" fill="rgb(0, 0, 0)" stroke="rgb(66, 66, 66)" stroke-width="1px" opacity="0.25"></line><line x1="0" y1="167.55555555555554" x2="1073.028125" y2="167.55555555555554" fill="rgb(0, 0, 0)" stroke="rgb(66, 66, 66)" stroke-width="1px" opacity="0.25"></line><line x1="0" y1="125.66666666666669" x2="1073.028125" y2="125.66666666666669" fill="rgb(0, 0, 0)" stroke="rgb(66, 66, 66)" stroke-width="1px" opacity="0.25"></line><line x1="0" y1="83.77777777777781" x2="1073.028125" y2="83.77777777777781" fill="rgb(0, 0, 0)" stroke="rgb(66, 66, 66)" stroke-width="1px" opacity="0.25"></line><line x1="0" y1="41.888888888888864" x2="1073.028125" y2="41.888888888888864" fill="rgb(0, 0, 0)" stroke="rgb(66, 66, 66)" stroke-width="1px" opacity="0.25"></line><line x1="0" y1="0" x2="1073.028125" y2="0" fill="rgb(0, 0, 0)" stroke="rgb(66, 66, 66)" stroke-width="1px" opacity="0.25"></line></g></g></g><g><g><line x1="0" y1="377" x2="1073.028125" y2="377" fill="rgb(0, 0, 0)" stroke="rgb(153, 153, 153)" stroke-width="1.5px"></line></g></g><g><g><line x1="134.128515625" y1="0" x2="134.128515625" y2="377" fill="rgb(0, 0, 0)" stroke="rgb(153, 153, 153)" stroke-width="1.5px"></line></g></g><g><g><g><g><g><path stroke="rgb(255, 112, 67)" stroke-width="2px" d="M135.73805781250002,32.63849217361872L136.00631484375,28.577133047911847L137.3476,66.67798567683245L138.15237109375002,88.14116442237605L138.420628125,132.65991269049846L139.22539921875,168.7194944798772L139.76191328125,208.73793226289402L140.83494140625,220.77343941146117L144.05402578125,214.900936046835L145.12705390625,151.95487148147274L145.66356796875002,179.8758201354551L146.20008203125002,168.6008141833666L146.4683390625,165.76302759675056L147.004853125,201.267486669826L148.61439531250002,234.34294350854273L148.88265234375,236.59247044834328L149.15090937500003,192.33220119766503L149.41916640625,227.97024974320857L149.68742343750003,211.70540075911094L151.8334796875,239.47483128169793L152.63825078124998,251.19781986430834L153.443021875,251.4751634491716L153.71127890625,260.3495964737786L153.9795359375,243.35774726339523L154.24779296875,261.85966345839455L155.589078125,280.1753353451302L157.735134375,257.2679481865367L158.00339140625,270.1855129906561L159.61293359375,275.42490710069944L161.75898984375002,267.978342777829L162.5637609375,277.80549241830886L162.83201796875,277.54161931664396L164.7098171875,202.31823089816814L165.51458828125,240.21533551440373L166.05110234375002,256.9234004148672L168.19715859375,256.08938914312625L169.0019296875,276.614452216202L169.27018671875,284.6604811476128L171.6845,295.2959380197255L172.22101406250002,269.15393596724L172.48927109375,252.87158171653687L172.75752812500002,271.1774803321766L174.63532734375002,265.10779973550797L175.97661250000002,275.5433930720801L176.51312656250002,291.0831545812364L176.78138359375,282.8706812615192L177.85441171875001,285.78100758136253L179.195696875,295.5779584039586L179.46395390625003,292.0383260932024L180.26872500000002,295.6575300679109L181.87826718750003,295.0412563262321L182.14652421875002,287.03609510393886L182.68303828125002,296.6385608376482L183.487809375,270.4188159329932L184.02432343750002,255.7330267178203L184.29258046875003,275.8027375547476L184.82909453125,290.8699929878182L185.36560859374998,299.1672718437895L185.633865625,288.69989386804457L187.51166484375,269.1426679269914L189.65772109374998,272.22222946212037L189.925978125,279.3879316787774L190.19423515625,279.3094624484095L191.26726328125,287.6196197393247L193.94983359375001,296.64155435366354L194.218090625,298.2642376940954L194.7546046875,289.94039930829456L195.8276328125,286.5530289433807L196.63240390625,291.54951273204017L196.9006609375,297.75514625258586L197.16891796875,281.46324076700614L197.9736890625,287.08664128385357L201.19277343750002,283.76641798338716L202.802315625,262.32077467898057L203.60708671875,267.75043301988694L204.14360078125,270.41346938800905L204.41185781250002,286.204338401244L204.94837187500002,294.19026915809667L206.0214,289.8981403862307L207.094428125,301.0986447280899L207.6309421875,300.80673474547797L208.97222734375,293.11994679656146L212.72782578125003,297.3883489522528L214.06911093750003,283.1887572538768L214.33736796875002,292.4710339770531L215.41039609375002,303.10372199212406L215.678653125,133.0677154344678L216.75168125000002,200.4287076813727L217.01993828125003,228.48061475889384L217.55645234375,255.44931386287243L218.3612234375,257.27240953271723L219.70250859375,243.90927595087308L219.97076562499998,237.31666830625517L220.23902265625,250.54897940093772L221.5803078125,260.68964039975435L221.84856484375,271.0348314333269L222.116821875,277.2108862055327L222.92159296875,280.35525213663357L225.33590625,285.6275798816556L225.8724203125,291.0360467543315L227.4819625,297.62184072991874L229.0915046875,293.43912744333085L229.35976171875,281.85854079080127L230.96930390625002,294.2386397903314L231.774075,301.38777975815105L232.84710312500002,245.4510975368805L233.92013125,270.9387952525873L234.4566453125,285.50996152662657L235.5296734375,256.30036594134623L235.79793046875002,266.20812690056596L236.0661875,271.5992515445915L236.60270156250002,268.2607436951697L237.94398671875,283.2227076966915L239.285271875,291.49340938272866L239.55352890625002,272.25486076453336L239.8217859375,280.61287724389706L243.84564140625002,296.9428072126221L245.72344062500002,304.4333430724912L247.33298281250003,295.58856846609484L247.60123984375002,295.5961760133299L248.13775390625003,301.7766117946846L248.67426796875003,303.9171099614361L249.74729609375004,306.6331305289357L252.16160937499998,286.2955555575212L252.6981234375,295.45394161352897L252.96638046875,298.2084584985074L253.7711515625,306.99513382371975L255.38069375,304.72207276815203L257.52675,306.17874247573894L257.79500703125,303.5534229852675L258.599778125,279.23115466701495L258.86803515625,286.2458777123078L261.2823484375,300.6420045987795L261.55060546875,295.20940482791445L264.5014328125,292.22432513606924L265.30620390625,289.2291589234613L265.5744609375,299.17513604355577L266.110975,292.15138413544133L266.64748906250003,273.98854477824153L270.4030875,287.2049131291392L271.74437265625,292.38845184694094L272.28088671874997,298.6071989597568L273.0856578125,294.12057074013813L273.622171875,292.3003069168536L274.96345703125,297.61441703409537L275.23171406250003,294.3560421426662L276.84125625,301.29887715866903L277.37777031250005,277.99035248161465L277.64602734375,290.5852892895606L278.18254140625,278.23616211480964L278.4507984375,287.0533940234473L279.25556953125,291.32824592158676L279.79208359374996,278.3132776706015L281.13336875000005,301.19314925536423L281.40162578125,302.5199859883945L283.81593906250004,307.25238694826135L284.352453125,308.9772134216059L285.42548125,312.09036517754436L285.69373828125,319.77952214382566L285.96199531250005,315.2880853101428L287.0350234375,312.98582318334667L288.1080515625,314.2330478550196L288.37630859375,289.5646896328582L289.1810796875,293.7118922306066L289.71759375000005,291.89146634536775L289.98585078125,290.79476655945524L290.2541078125,301.637199683208L290.52236484375,297.54327172630155L290.79062187500006,309.1394038487395L291.05887890625,307.2639070524129L291.59539296875,313.69538259082486L291.86365,294.6678414319363L293.20493515625003,290.6555150917481L293.47319218750005,291.07693738369017L294.54622031250005,288.41614731924454L295.35099140625,291.6301271524631L295.88750546875,304.63591244524997L297.49704765625,306.30383024769134L298.03356171875004,305.4504253555761L299.37484687500006,289.51119314302895L300.44787500000007,295.8644801232742L300.71613203125,298.0357857537385L301.25264609375,299.47073827272686L304.47173046875,273.64943281993226L306.34952968749997,290.96146670822606L306.61778671875004,288.76600557737794L307.15430078125,291.0108340512112L307.4225578125,295.5435552184685L307.69081484375,302.51978777557036L307.959071875,304.9347015131744L308.4955859375,296.2914937097701L309.30035703125003,300.78272156205344L310.37338515625004,301.8408789320648L310.6416421875,288.6195831958105L311.7146703125,274.7658249959207L312.51944140625,278.5105336521977L313.59246953125,276.7974679240533L314.397240625,292.9817553183803L314.66549765625,291.7431745767085L314.93375468749997,297.68230773180983L315.20201171875004,296.2166364699816L315.47026875,299.49163069057425L316.0067828125,302.0788054132141L316.27503984375005,305.3293074327912L316.543296875,311.6079058158653L317.34806796875,290.51713698688025L317.616325,298.4638613755477L317.88458203125003,294.0473466704604L318.42109609375,304.5650881033L318.95761015625004,289.13660832714845L319.2258671875,292.3110123728688L321.10366640625006,305.7190926869364L321.9084375,305.5640848424492L322.981465625,312.69506396001L323.78623671875005,309.852919129735L324.32275078125,311.4208433465065L324.85926484375005,302.4882414812718L325.93229296875006,304.54329025794317L327.00532109375,273.33333710858767L327.8100921875,276.408010325343L328.07834921875,285.70039652676024L328.34660625,291.6768273631836L328.61486328125005,302.7101233236058L330.22440546875004,307.4782373632892L331.83394765625,302.0164447581314L332.37046171875005,312.2698229432099L332.63871875,311.7660115700293L333.711746875,301.6841820748115L334.51651796875007,291.01161628327884L334.784775,298.9685700378544L335.58954609374996,303.92153366125655L335.85780312500003,302.18127573559894L336.12606015625,296.56748080072924L336.66257421874997,297.75512675203424L337.19908828125,300.76240789878227L338.80863046875,296.00225275747687L339.61340156250003,295.2095173040592L339.88165859375,301.3144640946128L340.68642968750004,292.4732242598377L340.95468671875,288.81878695466906L341.22294375,287.3050444101023L341.75945781250005,273.57085689023165L342.02771484375,286.0912311136956L343.63725703125,288.2055511921122L344.71028515625,284.65072862204755L344.9785421875,296.8216515773347L345.51505625000004,299.21844468477235L346.0515703125,301.20074201667694L346.58808437500005,311.00738809731234L346.85634140625,305.12965300218247L347.1245984375,280.36820536111713L347.39285546875,283.51077832069285L347.6611125,291.7318993923244L348.46588359375,301.8984460383958L349.00239765625,299.16871840525175L349.53891171875,302.2717681294789L350.34368281250005,286.1818972037567L350.880196875,296.5284119411111L351.14845390625,273.0553028879841L351.41671093750006,297.3528618069789L353.02625312500004,306.32555276334756L353.29451015625,298.78406852723776L353.83102421875,301.65696462934187L354.6357953125,307.67786221405186L355.70882343750003,235.76242070880392L356.51359453125,260.78140002845504L357.318365625,275.0335291380545L357.58662265625003,275.88516268063745L358.12313671875,285.40951093591747L358.65965078125,298.84993747672604L359.19616484375,295.7557432878087L360.53745000000004,303.63034454618975L361.34222109375,303.32513021145644L361.87873515625,292.43778179912397L365.902590625,259.1733975340642L366.97561875,279.26803133466154L367.51213281250006,291.7893485931587L367.78038984375,296.3091855351944L368.85341796875,289.32363640694734L369.38993203125,295.0719800954794L369.6581890625,303.84132853144814L370.46296015625,304.2030842906566L370.99947421875004,288.72001380030963L371.53598828125,301.78636343925655L372.340759375,306.04497275540905L372.8772734375,307.84554882718925L373.14553046875,312.64436248730567L373.68204453125,313.1449107568255L374.75507265625004,307.317671023257L375.82810078125004,313.02402555955956L377.7059,284.4744238403914L377.97415703125,290.1967961227052L378.2424140625,298.5860304562011L378.51067109375003,304.7449562347586L379.04718515625,308.0720702394505L379.85195625,284.3855046660498L380.12021328125,287.833370924507L380.3884703125,289.31093738242186L381.19324140625,281.49741161126417L381.4614984375,294.7793931274458L381.72975546875,296.0593194615814L381.9980125,293.8768219078101L384.14406875,303.06988138172795L384.41232578125005,305.23810213534296L385.217096875,307.95960067613544L387.09489609375004,295.83478983384543L387.89966718750003,292.33091591946254L390.0457234375,296.10718712168784L390.31398046875006,287.0263404691356L390.85049453125004,292.79015295106336L391.1187515625,303.3655773888584L391.38700859375,306.0623086148832L392.1917796875,259.0206587916547L392.46003671875,284.27006083497344L392.99655078125005,291.97245186032217L393.53306484375,287.06674751384537L394.87435,290.1269712995763L395.14260703125007,299.8065785617396L396.21563515625,298.0550450659917L396.48389218750003,283.2267029841352L396.75214921875005,288.1327840423351L397.02040625,292.7602709255079L397.82517734375006,275.61394292442753L398.093434375,293.88553398646167L398.36169140625003,298.1046840562922L399.1664625,293.8415452330014L399.43471953125004,292.98334969810844L401.58077578125005,290.5321279999878L402.65380390625,290.95579353130785L403.19031796875,297.9690127481436L403.72683203125,300.36807016786435L403.9950890625,289.43077691284054L404.79986015624996,301.32878912355176L405.60463125,306.6777127900329L405.87288828124997,304.5628198151288L406.14114531250004,309.23658171415644L406.40940234375,311.58459864992756L407.2141734375,308.8075200441478L409.3602296875,305.88385838076135L409.89674375000004,308.8451654992116L410.4332578125,304.22913896199407L410.96977187500005,291.0588982611279L411.23802890625,294.38897109286273L412.0428,307.69190309995184L412.57931406250003,310.6698009563711L413.115828125,315.59238336443264L414.45711328125,297.3550893926847L416.33491250000003,300.71507638545864L416.60316953125,292.70017583811835L417.40794062500004,301.31412081506585L417.9444546875,299.47969803232655L419.55399687500005,304.89728552312874L419.82225390625,298.6391976422078L420.35876796875,306.0826310297785L420.89528203125,295.9043847271365L421.96831015625,302.61240562423774L423.04133828125003,307.5181393673833L423.57785234375,297.32418274784976L424.91913750000003,290.62694717456503L425.18739453125,279.7379876991685L425.45565156250007,290.3898560973352L427.33345078125,297.5706712732786L427.6017078125,303.43894899004476L429.21125000000006,294.526044284651L430.28427812500007,300.25685985340965L430.55253515625003,294.3448344052425L430.82079218750005,289.957999539543L433.23510546875,299.9006777994844L433.77161953125,316.15365219538154L434.57639062500004,315.2989519263789L436.18593281249997,314.10201863997094L436.45418984375004,304.66805836291854L437.52721796875,303.2793350938861L438.3319890625,309.9153853490296L438.60024609375,310.1040038500169L438.868503125,309.99683229463267L439.67327421875,311.82899024554933L442.6241015625,311.69907405655886L443.42887265625,314.034254811957L444.23364375,317.6438108341423L444.50190078125,301.2240854667872L444.7701578125,303.88309207959475L445.57492890625,276.4479797274745L445.8431859375,289.74974195108075L446.11144296875005,284.69691360758895L450.1352984375,295.48362060712736L450.94006953125006,284.97399503055055L451.47658359375004,294.4527919614087L451.744840625,296.9266816703077L452.2813546875,288.52096568046915L452.54961171875004,299.36163220570495L453.3543828125,306.21689105424224L454.15915390625,311.1452749911523L454.4274109375,279.03004938425084L454.963925,290.525388796166L455.5004390625,299.8553974781645L456.036953125,298.3062420513094L456.5734671875,287.2929294720805L457.37823828125005,298.9323828719699L457.91475234375,299.189106054596L458.45126640625006,306.55353635333825L458.98778046875003,309.51730032102637L459.52429453125006,310.9300062630093L460.06080859375004,310.58933847057585L462.74337890625003,289.6663014413051L463.81640703125004,299.26391335388155L464.88943515625004,302.0020001732913L465.1576921875,305.4539485880565L465.42594921875,308.7575144779648L465.96246328125005,313.4703090065565L466.76723437500004,313.40087091700644L467.57200546875004,312.0767759044884L468.10851953125007,308.85063990645455L468.913290625,311.46235224553976L470.52283281250004,289.1871712370325L471.059346875,273.85508041297385L471.59586093750005,283.8806933154232L471.86411796875,300.60748155982026L472.6688890625,285.9311335461912L472.93714609375,286.0880982730004L473.20540312500003,298.2035443311196L474.01017421874997,305.18760815810725L476.15623046875,279.20284989937414L477.497515625,285.08406980380647L478.03402968750004,288.78381816804875L479.643571875,278.033214507066L480.7166,289.4679366878712L480.98485703125,299.039385896182L481.2531140625,300.41264166112103L481.52137109375,308.204732185654L483.13091328125,313.85005745851123L483.93568437500005,300.39122751955733L485.81348359375,298.5498832241965L486.34999765625,295.73575134665737L487.15476875,296.4415046190677L487.42302578125003,299.92171501278295L488.227796875,305.47927370232657L488.49605390625,302.1595585790348L489.83733906250006,305.83617921818393L490.10559609375,310.3531915461632L490.37385312500004,311.10571470419904L491.17862421875003,288.1119370798555L491.9833953125,293.41887517944036L492.25165234375004,297.2902696328531L492.51990937500005,287.3564084316263L492.78816640625,299.4053181059143L493.05642343750003,305.524421656283L494.66596562500007,299.5968802264909L496.27550781250005,308.69521602408236L497.88505000000004,309.11551119999444L498.95807812500004,319.81027508844744L499.4945921875001,307.48202457535814L500.83587734375004,318.36469985880916L501.90890546875,317.82318983643995L503.7867046875,312.7396005256492L504.32321874999997,311.70326611049745L505.12798984375,304.58742801204653L505.66450390625005,297.0013251282758L505.9327609375,297.6398388915716L506.73753203125,294.5200654371654L507.0057890625,305.29220855061664L507.542303125,300.27204943658245L507.81056015625,305.9978107602411L508.61533125,298.3181738927571L513.17570078125,286.32264714685726L513.4439578125,285.3804074613444L513.7122148437501,298.6697382674862L513.980471875,303.90113917798624L515.0535,306.1197393485555L515.85827109375,307.68163617013454L516.93129921875,291.45706475577555L517.19955625,303.85965426710993L517.4678132812501,298.2701111909613L518.54084140625,296.41288826791305L518.8090984375,305.85033389022L519.07735546875,300.149458521479L519.6138695312501,276.77983963389283L520.15038359375,281.665226411218L520.68689765625,294.15797050413494L521.2234117187501,303.8451139414L523.3694679687501,295.39620341031537L524.710753125,301.1987351659398L524.9790101562501,297.8437395013117L527.3933234375,293.9008918818546L527.66158046875,303.116511755191L530.6124078125,302.0859414270868L531.95369296875,301.4907168453412L532.7584640625,283.51984693705566L533.0267210937501,288.0948268565176L533.8314921875,301.3121119335873L534.36800625,309.8446220752944L534.6362632812501,303.65990149694113L536.78231953125,301.6186383442461L537.0505765624999,310.45872680271606L537.31883359375,307.3343081337376L537.587090625,309.5347763946286L538.3918617187501,312.2224771437094L538.92837578125,311.4424930897912L539.1966328125,312.0559346555872L539.46488984375,303.8640028775588L541.61094609375,309.02797669217125L542.9522312500001,306.2498127834043L543.22048828125,301.39899039893925L544.025259375,310.3789532937383L545.9030585937501,313.7757326167158L546.43957265625,322.90941248477816L549.12214296875,317.6232659176137L550.4634281250001,320.1550698902628L550.73168515625,314.7757875113871L551.26819921875,317.1223122735995L551.53645625,312.0817707574474L553.1459984375,325.9577270618079L553.4142554687501,315.6565390072861L555.02379765625,316.3397529561214L555.2920546875,313.576935335994L557.7063679687501,315.1867931991817L558.77939609375,315.33870770129903L559.31591015625,303.03502709623183L560.38893828125,306.2604783711195L562.8032515625,307.91749883914156L563.339765625,293.61376226942906L564.14453671875,293.87153755360873L564.6810507812501,304.9874927127403L564.9493078125,280.2752640705399L566.29059296875,292.34476647741155L567.0953640625,301.5750172599812L568.4366492187501,314.23450674601355L568.97316328125,316.3239410558619L570.04619140625,311.09190091526176L570.58270546875,312.2666275483509L570.8509625,310.60208150439297L571.11921953125,320.90503882715143L571.6557335937499,306.79617607867806L572.1922476562501,306.2036784824297L573.5335328125,313.7333927070372L574.3383039062501,307.3760986118678L574.87481796875,307.9287192973989L575.6795890625,302.7469639644456L576.48436015625,319.5514653734955L577.55738828125,312.4811829309552L578.362159375,289.4799514070352L579.4351875000001,295.1455602201939L579.70344453125,296.6751376428742L579.9717015625,301.5264415604992L581.8495007812501,303.98337811210496L582.38601484375,299.62507485800893L582.92252890625,312.6348080847563L583.7273,314.179673034119L583.9955570312501,300.6668237556025L585.60509921875,300.794720256203L585.87335625,311.28500622874253L586.9463843750001,307.8501024003107L588.0194125,312.22629860770377L588.82418359375,308.07757387133773L589.0924406250001,309.9162342204988L589.3606976562501,317.3351134438585L589.6289546875,309.3557380465232L590.1654687500001,310.12403049500824L590.9702398437499,318.5363083103553L592.8480390625,309.41139221438635L593.11629609375,294.6461823743183L594.4575812500001,300.53901114499826L594.9940953125,291.2002141793081L595.26235234375,301.00818837931143L595.530609375,295.94220181256765L597.94492265625,303.8116898546961L599.0179507812501,308.0285278220516L599.2862078125,310.8331607085855L599.55446484375,312.87114126100494L599.8227218750001,301.80624677441466L600.3592359375,308.93193860538634L601.70052109375,311.4911622797055L601.9687781250001,297.70951499641893L602.5052921875,298.4001142799249L602.77354921875,283.18681372784584L603.04180625,296.2778576508145L603.84657734375,296.2226318243797L604.3830914062501,303.16167816528275L604.6513484375,297.4295732425831L604.91960546875,309.95767126894424L607.33391875,303.2305537301619L608.13868984375,314.7631193726915L610.5530031249999,299.27706818426265L612.1625453125,309.28118324134186L612.43080234375,309.63409563877906L614.0403445312501,310.5992765895582L614.3086015625,325.2226172304717L614.57685859375,300.1870433419884L615.11337265625,302.3870264461932L616.72291484375,309.69232890302396L618.3324570312501,311.2073156844576L618.6007140625001,317.0344599001872L620.7467703125001,312.3667827475031L621.01502734375,310.06982287600067L621.8197984375,310.5339328709641L622.62456953125,307.09181109117526L623.6975976562501,323.36545321903196L624.23411171875,318.0329269992339L625.3071398437501,316.7486553698331L626.91668203125,315.85102415737805L627.9897101562501,315.89789110549003L628.2579671875001,317.95531792451897L629.0627382812501,298.3793638011413L629.59925234375,303.6230437751967L630.4040234375001,309.6170353383967L631.4770515625,298.89579913762105L632.013565625,304.89388518712394L632.5500796875001,308.4834837785252L632.8183367187501,305.467925475955L633.08659375,307.8727377310249L634.9643929687501,308.6294171670654L635.5009070312501,314.5005818958826L635.7691640625001,313.0287997590285L637.37870625,313.0823996146588L637.64696328125,305.8338265652168L637.9152203125001,308.83162760411614L638.451734375,308.04266585580126L638.9882484375,317.262780219346L642.2073328125001,309.5967529396393L644.6216460937501,307.6088553191662L645.69467421875,305.0343005650107L647.0359593750001,304.25514802227934L647.30421640625,309.33788403935876L648.6455015625,312.3699134175041L648.91375859375,310.7522340314688L649.182015625,302.88247016055L650.25504375,309.89484262124927L650.52330078125,301.38862143417606L652.1328429687501,303.0348378460564L653.20587109375,307.73448917315153L653.474128125,304.94121116360805L653.74238515625,292.1259669592957L654.2788992187501,295.0176048171442L654.5471562500001,308.09835049991665L655.88844140625,309.8359101503185L656.6932125,312.3265164733054L657.2297265625001,311.2738329169558L658.03449765625,307.50532545100754L658.83926875,303.55933407880195L659.6440398437501,305.10021664131745L660.18055390625,300.0096945291503L661.7900960937501,303.2317351177778L662.058353125,303.66186506932985L662.5948671875001,296.76559919017825L663.13138125,296.32508261805407L665.54569453125,302.26791849815226L665.8139515625,308.65769425481585L666.08220859375,302.04884434213255L666.350465625,314.71985184300615L670.1060640625001,315.1703433595353L671.1790921874999,306.339915565784L672.2521203125,288.15943964780814L672.52037734375,289.9584594555385L673.3251484374999,284.75514072768675L673.59340546875,287.09849426437427L674.3981765625,292.080845637852L674.934690625,295.2937225801154L675.4712046875,307.7053908170703L676.8124898437501,309.4993770927388L677.6172609375,311.0365881422612L678.153775,312.2571167766722L678.42203203125,314.4358890783591L678.9585460937501,308.4248255953936L679.7633171875,305.553951360065L680.56808828125,317.8000628647211L681.1046023437501,306.0404665898815L681.9093734375,291.36174327720414L682.71414453125,291.8063965779562L682.9824015625,291.5581543596465L683.78717265625,298.39548764206904L684.59194375,307.3799838689972L686.738,288.71573320900126L687.00625703125,282.50144449795124L687.54277109375,287.23089481282466L688.8840562500001,294.24774494170754L690.22534140625,286.05144068903155L690.4935984374999,301.6457327702031L690.7618554687501,310.710099516216L691.29836953125,308.52698242804263L691.5666265625,309.38923170650514L692.103140625,314.79818773690903L692.6396546875,312.63895306575057L693.4444257812501,303.9682089251212L693.7126828125,302.92268864881584L694.7857109375,308.10382271815956L696.1269960937501,308.23568638635123L696.66351015625,309.8400878046963L698.2730523437501,299.62332812557696L698.5413093750001,307.36153936418606L698.80956640625,297.3086488619741L699.0778234375,302.4441258481984L699.3460804687501,298.6311319970197L700.1508515625,296.8405379370051L700.6873656250001,290.2709853174738L701.4921367187501,298.0746675723266L701.76039375,300.20076129794944L702.56516484375,292.41795519831936L703.1016789062501,295.99926771096955L703.6381929687501,295.580254696709L703.9064500000001,294.53633139836245L704.17470703125,230.59510908177634L705.2477351562501,246.71683929155952L706.32076328125,271.4038608591531L706.5890203125,283.5304480942552L706.85727734375,296.07502451586845L707.93030546875,308.7314191072736L708.1985625000001,324.6535758255984L708.7350765625,322.25123903427914L709.00333359375,309.9603424492608L709.53984765625,307.98716448683325L709.8081046875,314.68140212923225L710.0763617187499,314.3829590850866L710.6128757812501,320.24254564884086L710.8811328125,316.86520226265657L711.4176468750001,311.0894156755282L712.2224179687499,309.6224377059371L712.7589320312501,319.1295004932806L713.0271890625,317.42612172920525L714.63673125,327.56247217776456L714.90498828125,323.53410969171176L715.1732453125001,320.58404878241436L716.2462734375,318.9645326542613L716.7827875,319.2048087045207L717.3193015625,303.44853434378496L718.3923296875,310.28872101355347L720.2701289062501,309.50710894772664L721.0749000000001,306.8632207982959L721.6114140625,313.12383141291804L722.147928125,315.29394588043556L722.4161851562501,313.5752645813971L723.48921328125,291.58558199373846L724.02572734375,291.6523725377928L724.293984375,296.72938545205L724.56224140625,297.8816640436121L725.3670125000001,297.7693801041127L725.6352695312501,301.2593660317602L726.440040625,312.1171683289255L726.70829765625,318.293568264503L727.5130687500001,316.52323869596114L728.31783984375,315.0011180119857L729.39086796875,306.77378322478336L731.00041015625,311.1209312108926L731.2686671875,305.6567430526015L732.0734382812501,296.4623278344338L732.3416953125001,304.2293439830805L732.8782093750001,299.5588932165119L733.4147234375,305.8549835136037L733.68298046875,296.6562776489689L734.21949453125,307.8991864337703L734.4877515625001,300.82072644848046L735.0242656250001,299.8377907983235L735.2925226562501,302.4087659226917L735.5607796875,311.13044535162425L735.82903671875,315.79633114561864L736.36555078125,319.41017243758097L736.90206484375,318.1645230408889L737.1703218750001,304.3372821463971L738.24335,313.1796106469927L738.51160703125,306.0255956792214L739.04812109375,303.48602824403446L739.8528921875001,299.17746031876567L740.38940625,308.4999986246993L741.19417734375,311.12566575078125L744.41326171875,302.57101147308055L745.48628984375,287.99576047553415L746.2910609375,296.27946113443653L747.63234609375,306.6173450788303L748.16886015625,306.9752087921831L748.9736312499999,301.5534010382387L750.5831734375,278.51213969698904L750.85143046875,292.23750796132765L751.3879445312501,290.06090112389546L752.192715625,305.55313644988854L752.99748671875,307.07546357025814L753.26574375,305.61210984348656L753.53400078125,312.1008368871176L755.9483140625,319.33141507422977L756.21657109375,323.07718552910256L756.484828125,311.82911266344564L756.7530851562501,310.4272317536142L757.28959921875,312.6587735681216L757.8261132812501,312.4271514536031L758.6308843749999,319.7669863395545L759.9721695312501,316.5394888747657L760.50868359375,312.01420949604994L760.776940625,310.12025775668485L761.0451976562501,322.4033264725852L761.3134546875001,318.68048007544564L763.4595109375,282.5136686492696L765.87382421875,298.9262573146728L767.215109375,290.7999234346229L769.361165625,289.6444661996702L769.6294226562501,294.2426189610525L770.43419375,303.243376557446L771.507221875,307.0353679272697L772.31199296875,312.6058128735654L773.3850210937501,296.42351986667245L774.1897921875001,301.7239803653999L774.99456328125,314.6647264920234L775.2628203125,312.52781147733685L775.53107734375,315.2660377004267L776.06759140625,310.58717083140675L778.21364765625,305.0829071355132L778.7501617187501,310.60398482064676L779.28667578125,305.9428369118256L779.82318984375,306.7548081359688L781.164475,309.0633887909042L782.50576015625,311.21788512309183L784.65181640625,302.16330917527813L784.9200734375,302.4217389415733L785.18833046875,310.1706724545644L786.2613585937501,304.5859474925967L787.0661296875,275.5294705238537L787.87090078125,283.24502035948547L790.01695703125,288.0803489597348L790.5534710937501,300.78193933702426L791.62649921875,312.4671520659872L791.89475625,314.55506659895804L792.16301328125,302.5749793305368L792.4312703125,316.5391265921416L792.9677843750001,309.04154720143214L793.5042984375001,307.6138697545539L794.30906953125,309.13135172610345L795.1138406250001,312.8569617120185L795.38209765625,305.9056611023335L795.9186117187501,307.5047068970594L796.45512578125,313.85000438686706L798.332925,322.12084131622873L799.405953125,325.37986436596253L799.9424671875001,320.93787332640534L800.4789812500001,313.58176280021536L801.0154953125001,311.8554449628716L801.28375234375,316.4933546858253L801.82026640625,316.91432366434066L802.6250375000001,314.0131295382778L803.1615515625001,312.7359713060207L803.96632265625,311.5825393311376L804.50283671875,320.8507891350968L805.3076078125,315.0261075886478L805.5758648437501,317.7936855722236L805.844121875,305.33547413427897L808.5266921875,301.17163691965305L808.79494921875,320.76270769929096L809.33146328125,316.0210517115439L809.5997203124999,310.97026212217685L809.8679773437501,303.02104198986984L810.1362343750001,304.1936458206788L810.9410054687501,309.81831894125895L811.2092625,313.8917921213688L811.7457765624999,325.59229620798055L812.55054765625,322.30702475609553L813.0870617187501,313.4021478196777L813.62357578125,312.37489514819237L814.16008984375,310.97568057738613L816.574403125,320.1805583582095L816.84266015625,318.49658536720244L817.6474312500001,313.4153740619763L818.1839453125,313.0897819951925L818.720459375,320.20870759951924L819.2569734374999,320.9522222650122L819.7934875000001,303.00883875124083L820.06174453125,295.80830191538854L820.866515625,298.5316916814745L822.4760578125,310.7571361846507L822.7443148437501,313.8560119051471L823.81734296875,318.3095187558639L824.6221140625,313.33993651949805L825.42688515625,313.89818341092996L825.96339921875,309.41154955957376L826.23165625,255.09766254438713L827.3046843750001,273.3477523754198L828.3777125,293.8512687065298L829.1824835937501,283.72033841611847L829.4507406250001,304.84303006319016L829.71899765625,306.18263813594336L829.9872546875,309.0873070734436L830.79202578125,302.861037809314L831.8650539062501,312.5551075768441L832.4015679687501,312.74918265135904L833.47459609375,305.6954917609204L833.742853125,308.56071963505997L834.2793671875,312.3983152597305L834.5476242187501,305.5890967197048L835.888909375,305.3481480805175L836.6936804687501,295.22990967931264L836.9619375000001,299.31046347281483L837.4984515625,304.4995901360448L838.034965625,305.2507774403957L838.5714796875,288.36396260090277L838.83973671875,296.1515483586315L839.6445078125,295.07562105625806L839.91276484375,305.34137427471046L840.44927890625,301.72261431413074L841.2540500000001,307.7688153673375L841.5223070312501,313.75425559946217L842.05882109375,312.3450290335648L843.6683632812501,291.24291442341865L844.4731343750001,285.38045911296564L845.27790546875,292.6375647827912L845.5461625,293.668157300713L846.6191906250001,294.6224260656212L848.2287328125,303.03987099166426L851.71607421875,304.20163999194665L852.78910234375,309.0820209806183L853.3256164062501,292.6341501793939L854.6669015625,298.75486014614575L855.47167265625,302.0886713643674L856.00818671875,291.63967917772294L857.08121484375,291.91803687526743L858.4225000000001,304.7464986346998L859.4955281250001,300.3447262613346L860.5685562500001,308.8737578969222L861.37332734375,303.9977881526231L863.7876406250001,314.45524936674383L865.3971828125,316.9326784106262L868.0797531250001,319.72009404652323L868.3480101562501,319.6768638421277L868.6162671875001,317.63369845392054L869.42103828125,314.4801311793431L869.6892953125,318.5844240329169L871.03058046875,312.39139162748074L871.5670945312501,320.28536383393157L872.64012265625,317.41295578661544L872.9083796875001,310.24338134477324L873.17663671875,314.6402017653969L873.44489375,318.9741155248807L873.7131507812501,312.2438470183302L873.9814078125,305.70256927362016L874.24966484375,313.30667388489405L876.39572109375,316.98344161805517L877.2004921875,316.1934054085103L878.810034375,317.3482754621001L879.8830624999999,312.6831939573939L882.5656328125001,304.94953917796545L882.8338898437501,312.9703290515583L883.102146875,310.7849967644014L884.9799460937501,306.15213141632466L886.32123125,297.37625363411604L887.12600234375,291.5112544221871L887.6625164062501,300.6579041037873L887.9307734375001,302.8240756338519L888.19903046875,309.68978070226734L888.4672875,319.39690409373367L889.540315625,313.4033167073727L891.686371875,307.30244720370507L891.95462890625,309.8482773512724L892.7594,312.59507670992684L893.2959140625001,314.702664803761L893.56417109375,319.08331313343047L894.10068515625,318.12840312686285L895.4419703125001,324.3269209343198L897.3197695312501,321.6452111648323L897.85628359375,323.2740184023726L898.6610546875,311.2906711193769L899.19756875,307.91247509741544L900.5388539062501,316.3289594633141L901.343625,314.6874078250251L902.1483960937501,311.7715754802154L904.562709375,307.328021264448L904.8309664062501,309.9319010209619L905.6357375,311.1997770222307L906.44050859375,308.32862017400083L906.97702265625,307.189541606521L907.2452796875001,293.84725145868055L908.854821875,298.50162920246146L909.6595929687501,305.681264621686L909.92785,306.98092207140655L910.4643640625001,307.1415444648547L911.26913515625,309.8329781832069L911.8056492187501,309.20439109057804L912.34216328125,321.753959298568L913.146934375,315.07540898746475L913.41519140625,311.7912541873164L913.6834484375,307.8345614315547L915.56124765625,279.06449380168186L916.9025328125001,269.866213941468L917.439046875,273.46592301892167L917.70730390625,290.57434643301855L917.9755609375001,303.4374968389282L919.0485890625001,309.1572726091841L919.3168460937501,310.1246789567331L920.65813125,295.85154945621184L920.92638828125,310.4787968441669L921.99941640625,310.47583956720706L922.8041875,311.6670230261621L923.07244453125,321.7925174785272L923.60895859375,312.5905710324548L925.4867578125001,301.75838388988785L925.75501484375,306.16382967359806L927.0963,313.73776436205895L930.315384375,308.40879499594746L931.65666953125,302.20807588704656L932.1931835937501,301.27841170726487L932.461440625,306.6174077238536L933.26621171875,310.8380128569938L933.5344687500001,314.8226710084269L935.9487820312501,317.646236442915L937.55832421875,325.8344605916422L938.6313523437501,317.25171637788833L938.8996093750001,321.7244943826058" style="fill: none;" fill="none"></path></g><g><path stroke="rgb(0, 119, 187)" stroke-width="2px" d="M195.8276328125,281.3706294066376L222.6533359375,283.9989192320241L270.9396015625,286.1776142426494L407.7506875,287.77237067391087L472.132375,269.4376741667759L614.3086015625,277.4837089249121L643.816875,282.1050608624963L855.7399296875,284.8156152495188L938.8996093750001,286.24381734499207" style="fill: none;" fill="none"></path></g></g></g></g><g opacity="0.2"><g><g><g><path stroke="rgb(255, 112, 67)" stroke-width="2px" d="M135.73805781250002,32.638492173618765L136.00631484375,26.14031757248773L137.3476,103.2548042005963L138.15237109375002,113.38186262713538L138.420628125,190.78359042935904L139.22539921875,218.6028775440322L139.76191328125,265.96493858761255L140.83494140625,238.32132437494067L144.05402578125,206.24013425906503L145.12705390625,58.48730158805847L145.66356796875002,221.50400216711893L146.20008203125002,151.74966333972083L146.4683390625,161.51561358239917L147.004853125,254.45461834801569L148.61439531250002,283.91724980870885L148.88265234375,239.96517431735992L149.15090937500003,125.96052678426105L149.41916640625,281.4182740648588L149.68742343750003,187.3106050690015L151.8334796875,281.1264388296339L152.63825078124998,268.7816598216692L153.443021875,251.89116970035764L153.71127890625,273.6610708004898L153.9795359375,217.87017473247317L154.24779296875,289.612406247192L155.589078125,307.6487650672595L157.735134375,222.906926062372L158.00339140625,289.5618403653304L159.61293359375,283.2839934395419L161.75898984375002,256.8085004091263L162.5637609375,292.54621362023886L162.83201796875,277.1458097166485L164.7098171875,89.48315725061627L165.51458828125,297.0609897242652L166.05110234375002,281.9854970475038L168.19715859375,254.83837225702075L169.0019296875,307.4020465082592L169.27018671875,296.72952447003786L171.6845,311.2491232686573L172.22101406250002,229.940932975875L172.48927109375,228.4480503731304L172.75752812500002,298.6363282336129L174.63532734375002,256.0032788448864L175.97661250000002,291.1967830724186L176.51312656250002,314.39279684093265L176.78138359375,270.5519712832239L177.85441171875001,290.14649706085527L179.195696875,310.2733846373028L179.46395390625003,286.72887762718733L180.26872500000002,301.08633602990045L181.87826718750003,294.1168457137214L182.14652421875002,275.0283532705572L182.68303828125002,311.04225943817033L183.487809375,231.08919857607947L184.02432343750002,233.70434289508398L184.29258046875003,305.90730381011963L184.82909453125,313.4708761374156L185.36560859374998,311.6131901277436L185.633865625,272.99882690442934L187.51166484375,239.80682901541388L189.65772109374998,276.8415717648135L189.925978125,290.1364850037628L190.19423515625,279.1917586028576L191.26726328125,300.0848556756973L193.94983359375001,310.1744562751717L194.218090625,300.6982627047433L194.7546046875,277.4546417295933L195.8276328125,281.47197339600984L196.63240390625,299.0442384150293L196.9006609375,307.06359653340445L197.16891796875,257.02538253863656L197.9736890625,295.52174205912485L201.19277343750002,278.78608303268754L202.802315625,230.15230972237055L203.60708671875,275.8949205312464L204.14360078125,274.4080239401923L204.41185781250002,309.8906419210964L204.94837187500002,306.16916529337567L206.0214,283.4599472284317L207.094428125,317.89940124087866L207.6309421875,300.36886977156007L208.97222734375,281.5897648731867L212.72782578125003,303.79095218578976L214.06911093750003,261.8893697063128L214.33736796875002,306.39444906181757L215.41039609375002,319.05275401473045L215.678653125,-121.9862944020165L216.75168125000002,301.47019605173006L217.01993828125003,270.5584753751755L217.55645234375,295.9023625188404L218.3612234375,260.0070530374845L219.70250859375,223.86457557810678L219.97076562499998,227.42775683932837L220.23902265625,270.3974460429615L221.5803078125,275.90063189797934L221.84856484375,286.5526179836856L222.116821875,286.4749683638414L222.92159296875,285.07180103328494L225.33590625,293.5360714991888L225.8724203125,299.14874706334535L227.4819625,307.5005316932996L229.0915046875,287.1650575134489L229.35976171875,264.48766081200705L230.96930390625002,312.8087882896264L231.774075,312.11148970988063L232.84710312500002,161.54607420497473L233.92013125,309.1703418261475L234.4566453125,307.3667109376854L235.5296734375,212.48597256342572L235.79793046875002,281.0697683393955L236.0661875,279.68593851062985L236.60270156250002,263.2529819210371L237.94398671875,305.6656536989742L239.285271875,303.8994619117843L239.55352890625002,243.39703783724042L239.8217859375,293.1499019629425L243.84564140625002,321.4377021657096L245.72344062500002,315.66914686229495L247.33298281250003,282.32140655650034L247.60123984375002,295.60758733418254L248.13775390625003,311.04726546671657L248.67426796875003,307.1278572115633L249.74729609375004,310.707161380185L252.16160937499998,255.78919310039942L252.6981234375,309.1915206975407L252.96638046875,302.340233825975L253.7711515625,320.1751468115383L255.38069375,301.3124811848005L257.52675,308.3637470371193L257.79500703125,299.61544374956026L258.599778125,242.74775218963623L258.86803515625,296.76796228024693L261.2823484375,322.2361949284871L261.55060546875,287.0605051716169L264.5014328125,287.74670559830133L265.30620390625,284.7364096045494L265.5744609375,314.09410172369746L266.110975,281.61575627326965L266.64748906250003,246.74428574244178L270.4030875,307.0294656554858L271.74437265625,300.1637599236435L272.28088671874997,307.93531962898044L273.0856578125,287.39062841071024L273.622171875,289.5699111819267L274.96345703125,305.585582209958L275.23171406250003,289.4684798055225L276.84125625,311.71312968267335L277.37777031250005,243.02756546603308L277.64602734375,309.47769450147945L278.18254140625,259.71247135268317L278.4507984375,300.27924188640384L279.25556953125,297.74052376879587L279.79208359374996,258.79082529412375L281.13336875000005,335.5129566325082L281.40162578125,304.51024108794L283.81593906250004,314.3509883880615L284.352453125,311.5644531316227L285.42548125,316.760092811452L285.69373828125,331.3132575932476L285.96199531250005,308.5509300596184L287.0350234375,309.5324299931526L288.1080515625,316.1038848625289L288.37630859375,252.56215229961606L289.1810796875,299.9326961272293L289.71759375000005,289.16082751750946L289.98585078125,289.1497168805864L290.2541078125,317.90084936883716L290.52236484375,291.4023797909419L290.79062187500006,326.5336020323965L291.05887890625,304.4506618579229L291.59539296875,323.3425958984428L291.86365,266.1265296936035L293.20493515625003,284.6370255814658L293.47319218750005,291.7090708216032L294.54622031250005,284.42496222257614L295.35099140625,296.451096902291L295.88750546875,324.14459038443033L297.49704765625,308.8057069513533L298.03356171875004,304.1703180174033L299.37484687500006,265.60234482420816L300.44787500000007,305.39441059364214L300.71613203125,301.29274419943494L301.25264609375,301.62316705120935L304.47173046875,234.9174746407403L306.34952968749997,316.9295175406668L306.61778671875004,285.4728138811058L307.15430078125,294.378076761961L307.4225578125,302.34263696935443L307.69081484375,312.9841366112232L307.959071875,308.55707211958037L308.4955859375,283.32668200466367L309.30035703125003,307.5195633404785L310.37338515625004,303.4281149870819L310.6416421875,268.78763959142896L311.7146703125,253.98518769608603L312.51944140625,284.12759663661325L313.59246953125,274.2278693318367L314.397240625,317.2581864098708L314.66549765625,289.8853034642008L314.93375468749997,306.5910074644619L315.20201171875004,294.0181295772394L315.47026875,304.4041220214632L316.0067828125,305.95956749717396L316.27503984375005,310.20506046215695L316.543296875,321.0258033904764L317.34806796875,258.8809837434027L317.616325,310.38394795854884L317.88458203125003,287.4225746128294L318.42109609375,320.34170025255946L318.95761015625004,265.99388866292105L319.2258671875,297.07261844144926L321.10366640625006,325.83121315803794L321.9084375,305.3315730757183L322.981465625,323.39153263635103L323.78623671875005,305.5897018843227L324.32275078125,313.7727296716637L324.85926484375005,289.0893386834198L325.93229296875006,307.6258634229501L327.00532109375,226.51840738455456L327.8100921875,281.02002015047606L328.07834921875,299.63897582888603L328.34660625,300.64147361781863L328.61486328125005,319.260067264239L330.22440546875004,314.63040842281447L331.83394765625,293.8237558503946L332.37046171875005,327.6498902208275L332.63871875,311.0102945102586L333.711746875,286.5614378319846L334.51651796875007,275.0027675959799L334.784775,310.9040006697178L335.58954609374996,311.35097909635965L335.85780312500003,299.57088884711266L336.12606015625,288.1467883984248L336.66257421874997,299.5365956789917L337.19908828125,305.2733296189043L338.80863046875,288.8620200455189L339.61340156250003,294.02041412393254L339.88165859375,310.4718842804432L340.68642968750004,279.21136450767517L340.95468671875,283.337130996916L341.22294375,285.0344305932522L341.75945781250005,252.96957561042575L342.02771484375,304.87179244889154L343.63725703125,291.3770313097371L344.71028515625,279.3184947669506L344.9785421875,315.07803601026535L345.51505625000004,302.81363434592885L346.0515703125,304.1741880145338L346.58808437500005,325.71735721826553L346.85634140625,296.31305035948753L347.1245984375,243.22603389951917L347.39285546875,288.2246377600564L347.6611125,304.0635809997718L348.46588359375,317.14826600750285L349.00239765625,295.0741269555357L349.53891171875,306.92634271581966L350.34368281250005,262.04709081517325L350.880196875,312.0481840471427L351.14845390625,237.8456393082937L351.41671093750006,333.79920018547114L353.02625312500004,319.7845891979006L353.29451015625,287.471842173073L353.83102421875,305.96630878249806L354.6357953125,316.7092085911168L355.70882343750003,127.88925845093199L356.51359453125,298.3098690079318L357.318365625,296.4117228024536L357.58662265625003,277.16261299451196L358.12313671875,299.6960333188375L358.65965078125,319.0105772879389L359.19616484375,291.1144520044327L360.53745000000004,315.4422464337614L361.34222109375,302.8673087093565L361.87873515625,276.1067591806253L365.902590625,209.2768211364746L366.97561875,309.40998203555745L367.51213281250006,310.5713244809045L367.78038984375,303.0889409482479L368.85341796875,278.8453127145767L369.38993203125,303.6944956282775L369.6581890625,316.99535118540126L370.46296015625,304.7457179294692L370.99947421875004,265.4954080647892L371.53598828125,321.38588789767687L372.340759375,312.4328867296378L372.8772734375,310.5464129348596L373.14553046875,319.84258297748033L373.68204453125,313.89573316110506L374.75507265625004,298.57681142290437L375.82810078125004,321.5835573640135L377.7059,241.65002126163904L377.97415703125,298.78035454617606L378.2424140625,311.16988195644484L378.51067109375003,313.98334490259487L379.04718515625,313.0627412464884L379.85195625,248.85565630594886L380.12021328125,293.0051703121927L380.3884703125,291.5272870692942L381.19324140625,269.7771229545275L381.4614984375,314.70236540171834L381.72975546875,297.97920896278487L381.9980125,290.6030755771531L384.14406875,316.85947059260474L384.41232578125005,308.4904332657655L385.217096875,312.04184848732416L387.09489609375004,277.6475735704104L387.89966718750003,287.0751050478882L390.0457234375,301.77159392502574L390.31398046875006,273.40507049030725L390.85049453125004,301.43587167395486L391.1187515625,319.2287140455511L391.38700859375,310.10740545392036L392.1917796875,188.4581840568119L392.46003671875,322.14416389995154L392.99655078125005,303.52603839834535L393.53306484375,279.70819099413023L394.87435,294.7173069781727L395.14260703125007,314.32598945498466L396.21563515625,295.4277448223697L396.48389218750003,260.9841898613506L396.75214921875005,295.49190562963486L397.02040625,299.70150125026703L397.82517734375006,249.8944509228071L398.093434375,321.2929205795129L398.36169140625003,304.43340916103784L399.1664625,287.44683699806535L399.43471953125004,291.6960563957691L401.58077578125005,286.8552954528067L402.65380390625,291.591291828288L403.19031796875,308.48884157339734L403.72683203125,303.9666562974453L403.9950890625,273.0248370303048L404.79986015624996,319.17580743961867L405.60463125,314.70109828975467L405.87288828124997,301.3904803527726L406.14114531250004,316.24722456269797L406.40940234375,315.1066240535842L407.2141734375,304.6419021354781L409.3602296875,301.49836588568155L409.89674375000004,313.2871261768871L410.4332578125,297.3050991561678L410.96977187500005,271.30353720982873L411.23802890625,299.38408034046495L412.0428,327.6463011105855L412.57931406250003,315.1366477409999L413.115828125,322.976256976525L414.45711328125,269.9991484350628L416.33491250000003,305.7550568746196L416.60316953125,280.67782501710786L417.40794062500004,314.23503828048706L417.9444546875,296.72806385821764L419.55399687500005,313.023666759332L419.82225390625,289.25206582082643L420.35876796875,317.24778111113443L420.89528203125,280.6370152731737L421.96831015625,312.67443696988954L423.04133828125003,314.87673998210164L423.57785234375,282.0332478185495L424.91913750000003,280.58109381463794L425.18739453125,263.40454848607385L425.45565156250007,306.36765869458515L427.33345078125,308.3418940371937L427.6017078125,312.24136556519403L429.21125000000006,281.1566872265604L430.28427812500007,308.85308320654764L430.55253515625003,285.4767962329918L430.82079218750005,283.3777472409937L433.23510546875,314.81469518939656L433.77161953125,340.5331137892273L434.57639062500004,314.01690152287483L436.18593281249997,312.3066187103589L436.45418984375004,290.51711794734L437.52721796875,301.19625019033754L438.3319890625,319.86946073174477L438.60024609375,310.38693160149785L438.868503125,309.83607496155633L439.67327421875,314.5772271719244L442.6241015625,311.5041997730732L443.42887265625,317.53702594505415L444.23364375,323.0581448674202L444.50190078125,276.5944974157545L444.7701578125,307.871601998806L445.57492890625,235.2953111992942L445.8431859375,309.70238528649014L446.11144296875005,277.1176710923513L450.1352984375,311.6636811064349L450.94006953125006,269.20955666568545L451.47658359375004,308.6709873576959L451.744840625,300.63751623365613L452.2813546875,275.91239169571134L452.54961171875004,315.6226319935587L453.3543828125,316.4997793270482L454.15915390625,318.53785089651745L454.4274109375,230.8572109738986L454.963925,307.76839791403876L455.5004390625,313.85041050116223L456.036953125,295.98250891102686L456.5734671875,270.77296060323715L457.37823828125005,316.39156297180386L457.91475234375,299.5741908285353L458.45126640625006,317.6001818014516L458.98778046875003,313.9629462725586L459.52429453125006,313.0490651759836L460.06080859375004,310.0783367819256L462.74337890625003,258.28174589739905L463.81640703125004,313.6603312227461L464.88943515625004,306.1091304024061L465.1576921875,310.6318712102042L465.42594921875,313.7128633128272L465.96246328125005,320.539500799444L466.76723437500004,313.29671378268137L467.57200546875004,310.09063338571127L468.10851953125007,304.0114359094037L468.913290625,315.37992075416776L470.52283281250004,255.77439972427157L471.059346875,250.8569441768858L471.59586093750005,298.91911266909705L471.86411796875,325.697663926416L472.6688890625,263.9166115257475L472.93714609375,286.3235453632143L473.20540312500003,316.3767134182983L474.01017421874997,315.66370389858884L476.15623046875,240.22571251127454L477.497515625,293.90589966045485L478.03402968750004,294.3334407144123L479.643571875,261.907309015592L480.7166,306.6200199590789L480.98485703125,313.3965597086483L481.2531140625,302.47252530852955L481.52137109375,319.8928679724534L483.13091328125,322.3180453677972L483.93568437500005,280.20298261112634L485.81348359375,295.7878667811553L486.34999765625,291.5145535303487L487.15476875,297.50013452768326L487.42302578125003,305.1420306033558L488.227796875,313.815611736642L488.49605390625,297.17998589409723L489.83733906250006,311.35111017690764L490.10559609375,317.1287100381321L490.37385312500004,312.2344994412528L491.17862421875003,253.6212706433402L491.9833953125,301.37928232881757L492.25165234375004,303.09736131297217L492.51990937500005,272.45561662978594L492.78816640625,317.47868261734646L493.05642343750003,314.7030769818359L494.66596562500007,290.70556808180277L496.27550781250005,322.3427197204696L497.88505000000004,309.7459539638625L498.95807812500004,335.852420921127L499.4945921875001,288.98964880572424L500.83587734375004,334.6887127839857L501.90890546875,317.0109248028861L503.7867046875,305.1142165594631L504.32321874999997,310.1487644877699L505.12798984375,293.91367086437015L505.66450390625005,285.62217080261973L505.9327609375,298.59760953651534L506.73753203125,289.8404052555561L507.0057890625,321.4504232207934L507.542303125,292.74181076553134L507.81056015625,314.58645274572905L508.61533125,286.79871859153116L513.17570078125,268.3293570280075L513.4439578125,283.96704793307515L513.7122148437501,318.6037344766988L513.980471875,311.74824054373636L515.0535,309.4476396044095L515.85827109375,310.0244814025031L516.93129921875,267.1202076342371L517.19955625,322.4635385341114L517.4678132812501,289.88579657673836L518.54084140625,293.62705388334064L518.8090984375,320.0065023236805L519.07735546875,291.5981454683675L519.6138695312501,241.72541130251352L520.15038359375,288.99330657720566L520.68689765625,312.8970866435104L521.2234117187501,318.37582909729747L523.3694679687501,282.72283761368857L524.710753125,309.9025327993764L524.9790101562501,292.81124600436954L527.3933234375,287.98662045266894L527.66158046875,316.93994156519574L530.6124078125,300.5400859349304L531.95369296875,300.5978799727228L532.7584640625,256.5635420746273L533.0267210937501,294.95729673571054L533.8314921875,321.1380395491918L534.36800625,322.64338728785515L534.6362632812501,294.3828206294113L536.78231953125,298.55674361520346L537.0505765624999,323.7188594904211L537.31883359375,302.6476801302698L537.587090625,312.83547878596517L538.3918617187501,316.25402826733057L538.92837578125,310.2725170089139L539.1966328125,312.97609700428114L539.46488984375,291.5761052105162L541.61094609375,316.77393741408986L542.9522312500001,302.08256692025395L543.22048828125,294.1227568222417L544.025259375,323.84889763593674L545.9030585937501,318.8709016011821L546.43957265625,336.6099322868718L549.12214296875,309.694046066867L550.4634281250001,323.9527758492364L550.73168515625,306.7068639430735L551.26819921875,320.6420994169182L551.53645625,304.52095848321915L553.1459984375,346.7716615183486L553.4142554687501,300.20475692550343L555.02379765625,317.3645738793744L555.2920546875,309.4327089058028L557.7063679687501,317.60157999396324L558.77939609375,315.566579454475L559.31591015625,284.57950618863106L560.38893828125,311.0986552834511L562.8032515625,310.4030295411746L563.339765625,272.15815741486017L564.14453671875,294.2582004798783L564.6810507812501,321.66142545143765L564.9493078125,243.20692110723917L566.29059296875,310.44902008771896L567.0953640625,315.4203934338358L568.4366492187501,333.22374097506207L568.97316328125,319.45809252063435L570.04619140625,303.2438407043616L570.58270546875,314.0287174979846L570.8509625,308.10526243845624L571.11921953125,336.35947481128903L571.6557335937499,285.632881955968L572.1922476562501,305.3149320880572L573.5335328125,325.0279640439484L574.3383039062501,297.8401574691137L574.87481796875,308.7576503256957L575.6795890625,294.9743309650156L576.48436015625,344.7582174870703L577.55738828125,301.87575926714476L578.362159375,254.97810412115518L579.4351875000001,303.64397343993187L579.70344453125,298.96950377689467L579.9717015625,308.8033974369367L581.8495007812501,307.6687829395135L582.38601484375,293.0876199768649L582.92252890625,332.14940792487727L583.7273,316.49697045816316L583.9955570312501,280.3975498378277L585.60509921875,300.9865650071038L585.87335625,327.0204351875517L586.9463843750001,302.69774665766295L588.0194125,318.7905929187934L588.82418359375,301.8544867667887L589.0924406250001,312.67422474424046L589.3606976562501,328.46343227889804L589.6289546875,297.3866749505202L590.1654687500001,311.27646916773585L590.9702398437499,331.15472503337594L592.8480390625,295.72401807043286L593.11629609375,272.49836761421625L594.4575812500001,309.37825430101816L594.9940953125,277.1920187307729L595.26235234375,315.7201496793164L595.530609375,288.34322196245193L597.94492265625,315.61592191788884L599.0179507812501,314.35378477308484L599.2862078125,315.04011003838644L599.55446484375,315.92811208963394L599.8227218750001,285.20890504452916L600.3592359375,319.62047635184393L601.70052109375,315.3299977911843L601.9687781250001,277.03704407148894L602.5052921875,299.4360132051839L602.77354921875,260.36686289972727L603.04180625,315.91442353526753L603.84657734375,296.1397930847274L604.3830914062501,313.57024767663745L604.6513484375,288.83141585853366L604.91960546875,328.7498183084859L607.33391875,293.1398774219884L608.13868984375,332.06196783648596L610.5530031249999,276.04799140161936L612.1625453125,324.28735582696066L612.43080234375,310.1634642349349L614.0403445312501,312.04704801572694L614.3086015625,347.157628191842L614.57685859375,262.6336825092634L615.11337265625,305.6870011025005L616.72291484375,320.65028258827L618.3324570312501,313.4797958566083L618.6007140625001,325.7751762237814L620.7467703125001,305.36526701847714L621.01502734375,306.62438306874697L621.8197984375,311.23009786340924L622.62456953125,301.928628421492L623.6975976562501,347.77591641081705L624.23411171875,310.0341376695368L625.3071398437501,314.82224792573186L626.91668203125,314.5045773386955L627.9897101562501,315.96819152765806L628.2579671875001,321.0414581530624L629.0627382812501,269.0154326160749L629.59925234375,311.4885637362798L630.4040234375001,318.6080226831966L631.4770515625,282.8139448364576L632.013565625,313.8910142613782L632.5500796875001,313.8678816656272L632.8183367187501,300.9445880220996L633.08659375,311.4799561136299L634.9643929687501,309.7644363211261L635.5009070312501,323.3073289891084L635.7691640625001,310.8211265537474L637.37870625,313.16279939810437L637.64696328125,294.9609669910537L637.9152203125001,313.3283291624652L638.451734375,306.8592232333289L638.9882484375,331.09295176466304L642.2073328125001,298.0977120200793L644.6216460937501,304.62700888845654L645.69467421875,301.1724684337775L647.0359593750001,303.08641920818224L647.30421640625,316.96198806497785L648.6455015625,316.91795748472214L648.91375859375,308.32571495241586L649.182015625,291.07782435417175L650.25504375,320.4134013122982L650.52330078125,288.62928965356616L652.1328429687501,305.5041624638769L653.20587109375,314.7839661637942L653.474128125,300.75129414929285L653.74238515625,272.90310065282716L654.2788992187501,299.355061603917L654.5471562500001,327.7194690240754L655.88844140625,312.44224962592125L656.6932125,316.0624259577857L657.2297265625001,309.6948075824314L658.03449765625,301.85256425208513L658.83926875,297.6403470204936L659.6440398437501,307.41154048509065L660.18055390625,292.3739113608996L661.7900960937501,308.06479600071907L662.058353125,304.3070599966579L662.5948671875001,286.4212003714508L663.13138125,295.66430775986777L665.54569453125,311.1821723182996L665.8139515625,318.2423578898112L666.08220859375,292.1355694731077L666.350465625,333.7263630943166L670.1060640625001,315.84608063432904L671.1790921874999,293.09427387515706L672.2521203125,260.88872577084436L672.52037734375,292.656989167134L673.3251484374999,276.9501626359092L673.59340546875,290.61352456940546L674.3981765625,299.5543726980686L674.934690625,300.1130379935106L675.4712046875,326.3228931725025L676.8124898437501,312.1903565062417L677.6172609375,313.3424047165447L678.153775,314.08790972828865L678.42203203125,317.7040475308895L678.9585460937501,299.4082303709454L679.7633171875,301.24764000707205L680.56808828125,336.16923012170525L681.1046023437501,288.40107217762204L681.9093734375,269.3436583081881L682.71414453125,292.4733765290843L682.9824015625,291.18579103218184L683.78717265625,308.65148756570284L684.59194375,320.8567282093896L686.738,260.7193572190073L687.00625703125,273.1800114313761L687.54277109375,294.32507028513487L688.8840562500001,304.7730201350318L690.22534140625,273.7569843100177L690.4935984374999,325.03717089196044L690.7618554687501,324.3066496352355L691.29836953125,305.2523067957825L691.5666265625,310.6826056241989L692.103140625,322.91162178251477L692.6396546875,309.40010105901297L693.4444257812501,290.96209271417723L693.7126828125,301.35440823435783L694.7857109375,315.8755238221751L696.1269960937501,308.4334818886386L696.66351015625,312.2466899322139L698.2730523437501,284.298188606898L698.5413093750001,318.9688562220997L698.80956640625,282.22931310865613L699.0778234375,310.1473413275348L699.3460804687501,292.91164122025174L700.1508515625,294.15464684698316L700.6873656250001,280.4166563881768L701.4921367187501,309.78019095460576L701.76039375,303.3899018863837L702.56516484375,280.7437460488743L703.1016789062501,301.3712364799446L703.6381929687501,294.95173517531816L703.9064500000001,292.97044645084276L704.17470703125,134.68327560689715L705.2477351562501,270.8994346062342L706.32076328125,308.43439321054353L706.5890203125,301.72032894690835L706.85727734375,314.8918891482883L707.93030546875,327.71601099438135L708.1985625000001,348.5368109030856L708.7350765625,318.64773384730023L709.00333359375,291.5239975717333L709.53984765625,305.0273975431919L709.8081046875,324.72275859283076L710.0763617187499,313.93529451886815L710.6128757812501,329.0319254944722L710.8811328125,311.7991871833801L711.4176468750001,302.42573579483565L712.2224179687499,307.4219707515505L712.7589320312501,333.3900946742958L713.0271890625,314.87105358309213L714.63673125,342.7669978506035L714.90498828125,317.4915659626325L715.1732453125001,316.1589574184683L716.2462734375,316.53525846203166L716.7827875,319.5652227799098L717.3193015625,279.81412280268137L718.3923296875,320.5490010182063L720.2701289062501,308.3346908489863L721.0749000000001,302.8973885741499L721.6114140625,322.51474733485117L722.147928125,318.54911758171187L722.4161851562501,310.9972426328394L723.48921328125,258.6010581122504L724.02572734375,291.7525583538744L724.293984375,304.3449048234357L724.56224140625,299.6100819309553L725.3670125000001,297.6009541948637L725.6352695312501,306.4943449232313L726.440040625,328.40387177467346L726.70829765625,327.55816816786927L727.5130687500001,313.86774434314833L728.31783984375,312.71793698602255L729.39086796875,294.43278104397984L731.00041015625,317.6416531900565L731.2686671875,297.46046081516477L732.0734382812501,282.6707050071822L732.3416953125001,315.8798682060507L732.8782093750001,292.5532170666589L733.4147234375,315.29911895924147L733.68298046875,282.85821885201665L734.21949453125,324.7635496109724L734.4877515625001,290.20303647054567L735.0242656250001,298.3633873230881L735.2925226562501,306.26522860924405L735.5607796875,324.2129644950231L735.82903671875,322.79515983661014L736.36555078125,324.8309343755245L736.90206484375,316.29604894585077L737.1703218750001,283.59642080465954L738.24335,326.443103397886L738.51160703125,295.2945732275645L739.04812109375,299.67667709125413L739.8528921875001,292.7146084308624L740.38940625,322.48380608359975L741.19417734375,315.0641664399041L744.41326171875,289.7390300565296L745.48628984375,266.13288397921457L746.2910609375,308.70501212279004L747.63234609375,322.12417099542085L748.16886015625,307.5120043622123L748.9736312499999,293.42068940732213L750.5831734375,243.9502476851145L750.85143046875,312.82556035783557L751.3879445312501,286.7959908677472L752.192715625,328.79148943887816L752.99748671875,309.35895425081253L753.26574375,303.4170792533292L753.53400078125,321.83392745256424L755.9483140625,330.1772823548979L756.21657109375,328.6958412114117L756.484828125,294.95700336496037L756.7530851562501,308.3244103888671L757.28959921875,316.00608628988266L757.8261132812501,312.07971828182536L758.6308843749999,330.7767386684815L759.9721695312501,311.69824267758264L760.50868359375,305.2262904279762L760.776940625,307.27933014763727L761.0451976562501,340.82792954643566L761.3134546875001,313.0962104797363L763.4595109375,228.26345151000555L765.87382421875,323.5451403127776L767.215109375,278.61042261454793L769.361165625,287.9112803472413L769.6294226562501,301.1398481031259L770.43419375,316.7445129520363L771.507221875,312.7233549820052L772.31199296875,320.961480293009L773.3850210937501,272.150080356333L774.1897921875001,309.67467111349106L774.99456328125,334.07584568195875L775.2628203125,309.322438955307L775.53107734375,319.37337703506154L776.06759140625,303.56887052787675L778.21364765625,296.8265115916729L778.7501617187501,318.8856013483471L779.28667578125,298.9511150485939L779.82318984375,307.9727649721834L781.164475,312.5262597733074L782.50576015625,314.4496296213733L784.65181640625,288.5814452535576L784.9200734375,302.80938359101617L785.18833046875,321.7940727240509L786.2613585937501,296.2088600496451L787.0661296875,231.94475507073935L787.87090078125,294.81834511293306L790.01695703125,295.33334186010893L790.5534710937501,319.8343249029583L791.62649921875,329.99497115943166L791.89475625,317.6869383984142L792.16301328125,284.604848427905L792.4312703125,337.48534748454887L792.9677843750001,297.7951781153679L793.5042984375001,305.47235358423654L794.30906953125,311.4075746834278L795.1138406250001,318.44537669089107L795.38209765625,295.47871018780603L795.9186117187501,309.9032755891482L796.45512578125,323.3679506215784L798.332925,334.5270967102713L799.405953125,330.2683989405632L799.9424671875001,314.2748867670695L800.4789812500001,302.5475970109304L801.0154953125001,309.265968206856L801.28375234375,323.45021927025584L801.82026640625,317.54577713211376L802.6250375000001,309.6613383491834L803.1615515625001,310.820233957635L803.96632265625,309.85239136881296L804.50283671875,334.75316384103564L805.3076078125,306.2890852689743L805.5758648437501,321.9450525475873L805.844121875,286.6481569773621L808.5266921875,294.9258810977141L808.79494921875,350.1493138687478L809.33146328125,308.90856772992345L809.5997203124999,303.39407773812616L809.8679773437501,291.0972117914094L810.1362343750001,305.9525515668922L810.9410054687501,318.25532862212924L811.2092625,320.00200189153355L811.7457765624999,343.14305233789815L812.55054765625,317.37911757826805L813.0870617187501,300.0448324150509L813.62357578125,310.8340161409643L814.16008984375,308.8768587211768L816.574403125,333.9878750294447L816.84266015625,315.9706258806917L817.6474312500001,305.7935571041372L818.1839453125,312.60139389501677L818.720459375,330.8870960060093L819.2569734374999,322.0674942632516L819.7934875000001,276.0937634805838L820.06174453125,285.00749666161005L820.866515625,302.6167763306035L822.4760578125,329.095302939415L822.7443148437501,318.50432548589174L823.81734296875,324.98977903193895L824.6221140625,305.8855631649494L825.42688515625,314.7355537480778L825.96339921875,302.68159878253937L826.23165625,173.6268320216073L827.3046843750001,300.7228871219688L828.3777125,324.6065432031949L829.1824835937501,268.5239429805014L829.4507406250001,336.52706753379766L829.71899765625,308.1920502450731L829.9872546875,313.44431047969397L830.79202578125,293.5216339131197L831.8650539062501,327.0962122281392L832.4015679687501,313.04029526313144L833.47459609375,295.11495542526245L833.742853125,312.85856144626933L834.2793671875,318.15470869673624L834.5476242187501,295.37526890966626L835.888909375,304.9867251217365L836.6936804687501,280.0525520775053L836.9619375000001,305.4312941630682L837.4984515625,312.2832801308897L838.034965625,306.3775583969222L838.5714796875,263.03374034166336L838.83973671875,307.8329269952244L839.6445078125,293.461730102698L839.91276484375,320.74000410238904L840.44927890625,296.29447437326115L841.2540500000001,316.83811694714757L841.5223070312501,322.7324159476492L842.05882109375,310.2311891847187L843.6683632812501,259.5897425081995L844.4731343750001,276.58677614728606L845.27790546875,303.5232232875294L845.5461625,295.2140460775958L846.6191906250001,296.0538292129835L848.2287328125,315.6660383807288L851.71607421875,305.9442934923702L852.78910234375,316.4025924636258L853.3256164062501,267.9623439775573L854.6669015625,307.9359250962734L855.47167265625,307.0893881917L856.00818671875,275.9661908977562L857.08121484375,292.33557342158423L858.4225000000001,323.98919127384823L859.4955281250001,293.7420677012867L860.5685562500001,321.66730535030365L861.37332734375,296.6838335361746L863.7876406250001,330.1414411879248L865.3971828125,320.64882197644977L868.0797531250001,323.9012175003688L868.3480101562501,319.61201853553456L868.6162671875001,314.5689503716098L869.42103828125,309.74978026747704L869.6892953125,324.74086331327754L871.03058046875,303.10184301932657L871.5670945312501,332.1263221436077L872.64012265625,313.1043437156412L872.9083796875001,299.48901968201005L873.17663671875,321.23543239633244L873.44489375,325.47498616410627L873.7131507812501,302.14844425850447L873.9814078125,295.8906526565552L874.24966484375,324.71283080180484L876.39572109375,322.4985932177967L877.2004921875,315.0083510941929L878.810034375,319.08058054248494L879.8830624999999,305.68557170033455L882.5656328125001,293.3490570088228L882.8338898437501,325.0015138619476L883.102146875,307.50699833366605L884.9799460937501,299.20283339420956L886.32123125,284.21243696080313L887.12600234375,282.7137556042936L887.6625164062501,314.3778786261876L887.9307734375001,306.07333292894896L888.19903046875,319.98833830489053L888.4672875,333.9575891809331L889.540315625,304.41293562783136L891.686371875,298.15114294820364L891.95462890625,313.66702257262335L892.7594,316.7152757479085L893.2959140625001,317.86404694451227L893.56417109375,325.65428562793466L894.10068515625,316.69603811701137L895.4419703125001,333.62469764550525L897.3197695312501,317.62264651060104L897.85628359375,325.717229258683L898.6610546875,293.31565019488335L899.19756875,302.84518106447325L900.5388539062501,328.9536860121621L901.343625,312.22508036759166L902.1483960937501,307.39782696300085L904.562709375,300.66268994079695L904.8309664062501,313.8377206557327L905.6357375,313.1015910241339L906.44050859375,304.02188490165605L906.97702265625,305.4809237553014L907.2452796875001,273.8338162369198L908.854821875,305.4831958181328L909.6595929687501,316.4507177505228L909.92785,308.93040824598734L910.4643640625001,307.3824780550268L911.26913515625,313.8701287607352L911.8056492187501,308.2615104516347L912.34216328125,340.578311610553L913.146934375,305.0575835208098L913.41519140625,306.8650219870938L913.6834484375,301.8995222979122L915.56124765625,235.90939235687256L916.9025328125001,256.06879415114724L917.439046875,278.8654866351022L917.70730390625,316.23698155416383L917.9755609375001,322.7322224477927L919.0485890625001,317.73693626456793L919.3168460937501,311.5757884780566L920.65813125,274.44185520542993L920.92638828125,332.4196679260996L921.99941640625,310.47140365176733L922.8041875,313.45379821459454L923.07244453125,336.98075915707483L923.60895859375,298.7876513633463L925.4867578125001,285.5101031760375L925.75501484375,312.77199834916325L927.0963,325.0986663947503L930.315384375,300.4153409467803L931.65666953125,292.90699722369516L932.1931835937501,299.8839154375924L932.461440625,314.6259017487367L933.26621171875,317.1689205567042L933.5344687500001,320.79965823557643L935.9487820312501,321.8815845946471L937.55832421875,338.1167968147331L938.6313523437501,304.37760005725755L938.8996093750001,328.433661389682" style="fill: none;" fill="none"></path></g><g><path stroke="rgb(0, 119, 187)" stroke-width="2px" d="M195.8276328125,281.3706294066376L222.6533359375,285.575893127256L270.9396015625,288.26916145284974L407.7506875,289.6478042370743L472.132375,245.49989440706042L614.3086015625,288.61427156792746L643.816875,288.71366807487277L855.7399296875,288.7676295671198L938.8996093750001,288.35013802184" style="fill: none;" fill="none"></path></g></g></g></g></g></g><g transform="translate(41, 377)" clip-path="url(#clip_1)"><clipPath id="clip_1"><rect width="1073" height="23"></rect></clipPath><g><g><line x1="0" y1="0" x2="0" y2="5" style="visibility: inherit;" fill="rgb(0, 0, 0)" stroke="rgb(204, 204, 204)" stroke-width="1px"></line><line x1="134.128515625" y1="0" x2="134.128515625" y2="5" style="visibility: inherit;" fill="rgb(0, 0, 0)" stroke="rgb(204, 204, 204)" stroke-width="1px"></line><line x1="268.25703125" y1="0" x2="268.25703125" y2="5" style="visibility: inherit;" fill="rgb(0, 0, 0)" stroke="rgb(204, 204, 204)" stroke-width="1px"></line><line x1="402.38554687500005" y1="0" x2="402.38554687500005" y2="5" style="visibility: inherit;" fill="rgb(0, 0, 0)" stroke="rgb(204, 204, 204)" stroke-width="1px"></line><line x1="536.5140625" y1="0" x2="536.5140625" y2="5" style="visibility: inherit;" fill="rgb(0, 0, 0)" stroke="rgb(204, 204, 204)" stroke-width="1px"></line><line x1="670.642578125" y1="0" x2="670.642578125" y2="5" style="visibility: inherit;" fill="rgb(0, 0, 0)" stroke="rgb(204, 204, 204)" stroke-width="1px"></line><line x1="804.7710937500001" y1="0" x2="804.7710937500001" y2="5" style="visibility: inherit;" fill="rgb(0, 0, 0)" stroke="rgb(204, 204, 204)" stroke-width="1px"></line><line x1="938.8996093750001" y1="0" x2="938.8996093750001" y2="5" style="visibility: inherit;" fill="rgb(0, 0, 0)" stroke="rgb(204, 204, 204)" stroke-width="1px"></line><line x1="1073.028125" y1="0" x2="1073.028125" y2="5" style="visibility: inherit;" fill="rgb(0, 0, 0)" stroke="rgb(204, 204, 204)" stroke-width="1px"></line></g><g transform="translate(0, 8)"><text x="0" y="0" dx="0em" dy="0.95em" style="text-anchor: middle; visibility: hidden; font-family: Roboto, sans-serif; font-size: 12px; font-weight: 200;" fill="rgb(33, 33, 33)" stroke="none" stroke-width="1px">-50k</text><text x="134.128515625" y="0" dx="0em" dy="0.95em" style="text-anchor: middle; visibility: inherit; font-family: Roboto, sans-serif; font-size: 12px; font-weight: 200;" fill="rgb(33, 33, 33)" stroke="none" stroke-width="1px">0</text><text x="268.25703125" y="0" dx="0em" dy="0.95em" style="text-anchor: middle; visibility: inherit; font-family: Roboto, sans-serif; font-size: 12px; font-weight: 200;" fill="rgb(33, 33, 33)" stroke="none" stroke-width="1px">50k</text><text x="402.38554687500005" y="0" dx="0em" dy="0.95em" style="text-anchor: middle; visibility: inherit; font-family: Roboto, sans-serif; font-size: 12px; font-weight: 200;" fill="rgb(33, 33, 33)" stroke="none" stroke-width="1px">100k</text><text x="536.5140625" y="0" dx="0em" dy="0.95em" style="text-anchor: middle; visibility: inherit; font-family: Roboto, sans-serif; font-size: 12px; font-weight: 200;" fill="rgb(33, 33, 33)" stroke="none" stroke-width="1px">150k</text><text x="670.642578125" y="0" dx="0em" dy="0.95em" style="text-anchor: middle; visibility: inherit; font-family: Roboto, sans-serif; font-size: 12px; font-weight: 200;" fill="rgb(33, 33, 33)" stroke="none" stroke-width="1px">200k</text><text x="804.7710937500001" y="0" dx="0em" dy="0.95em" style="text-anchor: middle; visibility: inherit; font-family: Roboto, sans-serif; font-size: 12px; font-weight: 200;" fill="rgb(33, 33, 33)" stroke="none" stroke-width="1px">250k</text><text x="938.8996093750001" y="0" dx="0em" dy="0.95em" style="text-anchor: middle; visibility: inherit; font-family: Roboto, sans-serif; font-size: 12px; font-weight: 200;" fill="rgb(33, 33, 33)" stroke="none" stroke-width="1px">300k</text><text x="1073.028125" y="0" dx="0em" dy="0.95em" style="text-anchor: middle; visibility: hidden; font-family: Roboto, sans-serif; font-size: 12px; font-weight: 200;" fill="rgb(33, 33, 33)" stroke="none" stroke-width="1px">350k</text></g><line x1="0" y1="0" x2="1073.028125" y2="0" fill="rgb(0, 0, 0)" stroke="rgb(204, 204, 204)" stroke-width="1px"></line></g></g></g></g></svg>